<svg width="149" height="123" viewBox="0 0 149 123" fill="none" xmlns="http://www.w3.org/2000/svg">
<rect width="149" height="123" fill="#9A8856"/>
<rect x="144" y="30" width="5" height="5" fill="#D9D9D9" fill-opacity="0.79"/>
<rect x="144" y="20" width="5" height="5" fill="#D9D9D9" fill-opacity="0.79"/>
<rect x="139" y="25" width="5" height="5" fill="#D9D9D9" fill-opacity="0.79"/>
<rect x="134" y="20" width="5" height="5" fill="#D9D9D9" fill-opacity="0.79"/>
<rect x="139" y="15" width="5" height="5" fill="#D9D9D9" fill-opacity="0.79"/>
<rect x="129" y="15" width="5" height="5" fill="#D9D9D9" fill-opacity="0.79"/>
<rect x="124" y="20" width="5" height="5" fill="#D9D9D9" fill-opacity="0.79"/>
<rect x="119" y="25" width="5" height="5" fill="#D9D9D9" fill-opacity="0.79"/>
<rect x="114" y="20" width="5" height="5" fill="#D9D9D9" fill-opacity="0.79"/>
<rect x="109" y="25" width="5" height="5" fill="#D9D9D9" fill-opacity="0.79"/>
<rect x="114" y="30" width="5" height="5" fill="#D9D9D9" fill-opacity="0.79"/>
<rect x="134" y="10" width="5" height="5" fill="#D9D9D9" fill-opacity="0.79"/>
<rect x="124" y="10" width="5" height="5" fill="#D9D9D9" fill-opacity="0.79"/>
<rect x="119" y="15" width="5" height="5" fill="#D9D9D9" fill-opacity="0.79"/>
<rect x="129" y="5" width="5" height="5" fill="#D9D9D9" fill-opacity="0.79"/>
<rect x="119" y="5" width="5" height="5" fill="#D9D9D9" fill-opacity="0.79"/>
<rect x="124" width="5" height="5" fill="#D9D9D9" fill-opacity="0.79"/>
<rect x="114" width="5" height="5" fill="#D9D9D9" fill-opacity="0.79"/>
<rect x="144" y="5" width="5" height="5" fill="#D9D9D9" fill-opacity="0.79"/>
<rect y="118" width="5" height="5" fill="#D9D9D9" fill-opacity="0.79"/>
<rect y="112" width="5" height="6" fill="#D9D9D9" fill-opacity="0.79"/>
<rect y="83" width="5" height="5" fill="#D9D9D9" fill-opacity="0.79"/>
<rect x="5" y="88" width="5" height="5" fill="#D9D9D9" fill-opacity="0.79"/>
<rect x="10" y="93" width="5" height="5" fill="#D9D9D9" fill-opacity="0.79"/>
<rect x="5" y="93" width="5" height="5" fill="#D9D9D9" fill-opacity="0.79"/>
<rect x="5" y="98" width="5" height="5" fill="#D9D9D9" fill-opacity="0.79"/>
<rect x="10" y="98" width="5" height="5" fill="#D9D9D9" fill-opacity="0.79"/>
<rect x="10" y="103" width="5" height="5" fill="#D9D9D9" fill-opacity="0.79"/>
<rect x="15" y="108" width="5" height="5" fill="#D9D9D9" fill-opacity="0.79"/>
<rect x="20" y="113" width="5" height="5" fill="#D9D9D9" fill-opacity="0.79"/>
<rect x="25" y="118" width="5" height="5" fill="#D9D9D9" fill-opacity="0.79"/>
<rect x="30" y="118" width="5" height="5" fill="#D9D9D9" fill-opacity="0.79"/>
<rect x="25" y="113" width="5" height="5" fill="#D9D9D9" fill-opacity="0.79"/>
<rect x="20" y="108" width="5" height="5" fill="#D9D9D9" fill-opacity="0.79"/>
<rect x="15" y="103" width="5" height="5" fill="#D9D9D9" fill-opacity="0.79"/>
<rect x="15" y="99" width="5" height="4" fill="#D9D9D9" fill-opacity="0.79"/>
<rect x="20" y="99" width="5" height="5" fill="#D9D9D9" fill-opacity="0.79"/>
<rect x="25" y="99" width="4" height="5" fill="#D9D9D9" fill-opacity="0.79"/>
<rect x="24" y="94" width="5" height="5" fill="#D9D9D9" fill-opacity="0.79"/>
<rect x="19" y="94" width="5" height="5" fill="#D9D9D9" fill-opacity="0.79"/>
<rect x="24" y="90" width="5" height="4" fill="#D9D9D9" fill-opacity="0.79"/>
<rect x="29" y="90" width="5" height="5" fill="#D9D9D9" fill-opacity="0.79"/>
<rect x="29" y="85" width="5" height="5" fill="#D9D9D9" fill-opacity="0.79"/>
<rect x="15" y="80" width="5" height="5" fill="#D9D9D9" fill-opacity="0.79"/>
<rect x="10" y="75" width="5" height="5" fill="#D9D9D9" fill-opacity="0.79"/>
<rect x="15" y="70" width="5" height="5" fill="#D9D9D9" fill-opacity="0.79"/>
<rect x="20" y="75" width="5" height="5" fill="#D9D9D9" fill-opacity="0.79"/>
<rect x="25" y="70" width="5" height="5" fill="#D9D9D9" fill-opacity="0.79"/>
<rect x="20" y="65" width="5" height="5" fill="#D9D9D9" fill-opacity="0.79"/>
<rect x="25" y="60" width="5" height="5" fill="#D9D9D9" fill-opacity="0.79"/>
<rect x="30" y="65" width="5" height="5" fill="#D9D9D9" fill-opacity="0.79"/>
<rect x="35" y="60" width="5" height="5" fill="#D9D9D9" fill-opacity="0.79"/>
<rect x="40" y="65" width="5" height="5" fill="#D9D9D9" fill-opacity="0.79"/>
<rect x="45" y="70" width="5" height="5" fill="#D9D9D9" fill-opacity="0.79"/>
<rect x="50" y="65" width="5" height="5" fill="#D9D9D9" fill-opacity="0.79"/>
<rect x="55" y="60" width="5" height="5" fill="#D9D9D9" fill-opacity="0.79"/>
<rect x="60" y="55" width="5" height="5" fill="#D9D9D9" fill-opacity="0.79"/>
<rect x="55" y="70" width="5" height="5" fill="#D9D9D9" fill-opacity="0.79"/>
<rect x="60" y="65" width="5" height="5" fill="#D9D9D9" fill-opacity="0.79"/>
<rect x="65" y="60" width="5" height="5" fill="#D9D9D9" fill-opacity="0.79"/>
<rect x="69" y="75" width="5" height="5" fill="#D9D9D9" fill-opacity="0.79"/>
<rect x="74" y="80" width="5" height="5" fill="#D9D9D9" fill-opacity="0.79"/>
<rect x="74" y="75" width="5" height="5" fill="#D9D9D9" fill-opacity="0.79"/>
<rect x="74" y="70" width="5" height="5" fill="#D9D9D9" fill-opacity="0.79"/>
<rect x="79" y="75" width="5" height="5" fill="#D9D9D9" fill-opacity="0.79"/>
<rect x="79" y="70" width="5" height="5" fill="#D9D9D9" fill-opacity="0.79"/>
<rect x="79" y="65" width="5" height="5" fill="#D9D9D9" fill-opacity="0.79"/>
<rect x="84" y="70" width="5" height="5" fill="#D9D9D9" fill-opacity="0.79"/>
<rect x="84" y="65" width="5" height="5" fill="#D9D9D9" fill-opacity="0.79"/>
<rect x="84" y="60" width="5" height="5" fill="#D9D9D9" fill-opacity="0.79"/>
<rect x="84" y="55" width="5" height="5" fill="#D9D9D9" fill-opacity="0.79"/>
<rect x="89" y="57" width="5" height="5" fill="#D9D9D9" fill-opacity="0.79"/>
<rect x="94" y="57" width="5" height="5" fill="#D9D9D9" fill-opacity="0.79"/>
<rect x="99" y="57" width="4" height="5" fill="#D9D9D9" fill-opacity="0.79"/>
<rect x="98" y="52" width="5" height="5" fill="#D9D9D9" fill-opacity="0.79"/>
<rect x="98" y="47" width="5" height="5" fill="#D9D9D9" fill-opacity="0.79"/>
<rect x="103" y="52" width="5" height="5" fill="#D9D9D9" fill-opacity="0.79"/>
<rect x="103" y="47" width="5" height="5" fill="#D9D9D9" fill-opacity="0.79"/>
<rect x="103" y="42" width="5" height="5" fill="#D9D9D9" fill-opacity="0.79"/>
<rect x="108" y="47" width="5" height="5" fill="#D9D9D9" fill-opacity="0.79"/>
<rect x="129" y="47" width="5" height="5" fill="#D9D9D9" fill-opacity="0.79"/>
<rect x="129" y="42" width="5" height="5" fill="#D9D9D9" fill-opacity="0.79"/>
<rect x="129" y="52" width="5" height="5" fill="#D9D9D9" fill-opacity="0.79"/>
<rect x="124" y="47" width="5" height="5" fill="#D9D9D9" fill-opacity="0.79"/>
<rect x="134" y="47" width="5" height="5" fill="#D9D9D9" fill-opacity="0.79"/>
<rect x="93" y="52" width="5" height="5" fill="#D9D9D9" fill-opacity="0.79"/>
<rect x="94" y="62" width="5" height="5" fill="#D9D9D9" fill-opacity="0.79"/>
<rect x="89" y="62" width="5" height="5" fill="#D9D9D9" fill-opacity="0.79"/>
<rect x="89" y="67" width="5" height="5" fill="#D9D9D9" fill-opacity="0.79"/>
<rect x="94" y="67" width="5" height="5" fill="#D9D9D9" fill-opacity="0.79"/>
<rect x="94" y="72" width="5" height="5" fill="#D9D9D9" fill-opacity="0.79"/>
<rect x="99" y="72" width="5" height="5" fill="#D9D9D9" fill-opacity="0.79"/>
<rect x="104" y="72" width="5" height="5" fill="#D9D9D9" fill-opacity="0.79"/>
<rect x="104" y="77" width="5" height="5" fill="#D9D9D9" fill-opacity="0.79"/>
<rect x="104" y="82" width="5" height="5" fill="#D9D9D9" fill-opacity="0.79"/>
<rect x="109" y="77" width="5" height="5" fill="#D9D9D9" fill-opacity="0.79"/>
<rect x="109" y="82" width="5" height="5" fill="#D9D9D9" fill-opacity="0.79"/>
<rect x="114" y="82" width="5" height="5" fill="#D9D9D9" fill-opacity="0.79"/>
<rect x="114" y="87" width="5" height="5" fill="#D9D9D9" fill-opacity="0.79"/>
<rect x="119" y="87" width="5" height="5" fill="#D9D9D9" fill-opacity="0.79"/>
<rect x="119" y="92" width="5" height="5" fill="#D9D9D9" fill-opacity="0.79"/>
<rect x="124" y="92" width="5" height="5" fill="#D9D9D9" fill-opacity="0.79"/>
<rect x="124" y="97" width="5" height="5" fill="#D9D9D9" fill-opacity="0.79"/>
<rect x="119" y="97" width="5" height="5" fill="#D9D9D9" fill-opacity="0.79"/>
<rect x="129" y="97" width="5" height="5" fill="#D9D9D9" fill-opacity="0.79"/>
<rect x="129" y="102" width="5" height="5" fill="#D9D9D9" fill-opacity="0.79"/>
<rect x="134" y="102" width="5" height="5" fill="#D9D9D9" fill-opacity="0.79"/>
<rect x="134" y="97" width="5" height="5" fill="#D9D9D9" fill-opacity="0.79"/>
<rect x="134" y="92" width="5" height="5" fill="#D9D9D9" fill-opacity="0.79"/>
<rect x="139" y="97" width="5" height="5" fill="#D9D9D9" fill-opacity="0.79"/>
<rect x="139" y="92" width="5" height="5" fill="#D9D9D9" fill-opacity="0.79"/>
<rect x="139" y="87" width="5" height="5" fill="#D9D9D9" fill-opacity="0.79"/>
<rect x="144" y="88" width="5" height="5" fill="#D9D9D9" fill-opacity="0.79"/>
<rect x="144" y="83" width="5" height="5" fill="#D9D9D9" fill-opacity="0.79"/>
<rect x="119" y="82" width="5" height="5" fill="#D9D9D9" fill-opacity="0.79"/>
<rect x="124" y="82" width="5" height="5" fill="#D9D9D9" fill-opacity="0.79"/>
<rect x="124" y="77" width="5" height="5" fill="#D9D9D9" fill-opacity="0.79"/>
<rect x="129" y="77" width="5" height="5" fill="#D9D9D9" fill-opacity="0.79"/>
<rect x="124" y="72" width="5" height="5" fill="#D9D9D9" fill-opacity="0.79"/>
<rect x="129" y="72" width="5" height="5" fill="#D9D9D9" fill-opacity="0.79"/>
<rect x="129" y="67" width="5" height="5" fill="#D9D9D9" fill-opacity="0.79"/>
<rect x="134" y="72" width="5" height="5" fill="#D9D9D9" fill-opacity="0.79"/>
<rect x="119" y="77" width="5" height="5" fill="#D9D9D9" fill-opacity="0.79"/>
<rect x="104" y="92" width="5" height="5" fill="#D9D9D9" fill-opacity="0.79"/>
<rect x="109" y="92" width="5" height="5" fill="#D9D9D9" fill-opacity="0.79"/>
<rect x="109" y="97" width="5" height="5" fill="#D9D9D9" fill-opacity="0.79"/>
<rect x="104" y="97" width="5" height="5" fill="#D9D9D9" fill-opacity="0.79"/>
<rect x="104" y="102" width="5" height="5" fill="#D9D9D9" fill-opacity="0.79"/>
<rect x="99" y="97" width="5" height="5" fill="#D9D9D9" fill-opacity="0.79"/>
<rect x="144" y="93" width="5" height="5" fill="#D9D9D9" fill-opacity="0.79"/>
<rect x="122" y="115" width="5" height="5" fill="#D9D9D9" fill-opacity="0.79"/>
<rect x="117" y="110" width="5" height="5" fill="#D9D9D9" fill-opacity="0.79"/>
<rect x="117" y="115" width="5" height="5" fill="#D9D9D9" fill-opacity="0.79"/>
<rect x="112" y="115" width="5" height="5" fill="#D9D9D9" fill-opacity="0.79"/>
<rect x="134" y="107" width="5" height="5" fill="#D9D9D9" fill-opacity="0.79"/>
<rect x="129" y="107" width="5" height="5" fill="#D9D9D9" fill-opacity="0.79"/>
<rect x="139" y="107" width="5" height="5" fill="#D9D9D9" fill-opacity="0.79"/>
<rect x="139" y="112" width="5" height="5" fill="#D9D9D9" fill-opacity="0.79"/>
<rect x="144" y="112" width="5" height="5" fill="#D9D9D9" fill-opacity="0.79"/>
<rect x="144" y="120" width="5" height="3" fill="#D9D9D9" fill-opacity="0.79"/>
<rect x="144" y="117" width="5" height="3" fill="#D9D9D9" fill-opacity="0.79"/>
<rect x="139" y="117" width="5" height="3" fill="#D9D9D9" fill-opacity="0.79"/>
<rect x="134" y="112" width="5" height="5" fill="#D9D9D9" fill-opacity="0.79"/>
<rect x="124" y="102" width="5" height="5" fill="#D9D9D9" fill-opacity="0.79"/>
<rect x="114" y="92" width="5" height="5" fill="#D9D9D9" fill-opacity="0.79"/>
<rect x="109" y="87" width="5" height="5" fill="#D9D9D9" fill-opacity="0.79"/>
<rect x="99" y="77" width="5" height="5" fill="#D9D9D9" fill-opacity="0.79"/>
<rect x="99" y="67" width="5" height="5" fill="#D9D9D9" fill-opacity="0.79"/>
<rect x="84" y="50" width="5" height="5" fill="#D9D9D9" fill-opacity="0.79"/>
<rect x="79" y="55" width="5" height="5" fill="#D9D9D9" fill-opacity="0.79"/>
<rect x="79" y="50" width="5" height="5" fill="#D9D9D9" fill-opacity="0.79"/>
<rect x="74" y="50" width="5" height="5" fill="#D9D9D9" fill-opacity="0.79"/>
<rect x="79" y="45" width="5" height="5" fill="#D9D9D9" fill-opacity="0.79"/>
<rect x="79" y="40" width="5" height="5" fill="#D9D9D9" fill-opacity="0.79"/>
<rect x="79" y="35" width="5" height="5" fill="#D9D9D9" fill-opacity="0.79"/>
<rect x="84" y="40" width="5" height="5" fill="#D9D9D9" fill-opacity="0.79"/>
<rect x="84" y="35" width="5" height="5" fill="#D9D9D9" fill-opacity="0.79"/>
<rect x="84" y="30" width="5" height="5" fill="#D9D9D9" fill-opacity="0.79"/>
<rect x="89" y="35" width="5" height="5" fill="#D9D9D9" fill-opacity="0.79"/>
<rect x="89" y="30" width="5" height="5" fill="#D9D9D9" fill-opacity="0.79"/>
<rect x="89" y="25" width="5" height="5" fill="#D9D9D9" fill-opacity="0.79"/>
<rect x="94" y="30" width="5" height="5" fill="#D9D9D9" fill-opacity="0.79"/>
<rect x="74" y="45" width="5" height="5" fill="#D9D9D9" fill-opacity="0.79"/>
<rect x="74" y="40" width="5" height="5" fill="#D9D9D9" fill-opacity="0.79"/>
<rect x="69" y="45" width="5" height="5" fill="#D9D9D9" fill-opacity="0.79"/>
<rect x="69" y="40" width="5" height="5" fill="#D9D9D9" fill-opacity="0.79"/>
<rect x="64" y="40" width="5" height="5" fill="#D9D9D9" fill-opacity="0.79"/>
<rect x="64" y="35" width="5" height="5" fill="#D9D9D9" fill-opacity="0.79"/>
<rect x="64" y="30" width="5" height="5" fill="#D9D9D9" fill-opacity="0.79"/>
<rect x="64" y="25" width="5" height="5" fill="#D9D9D9" fill-opacity="0.79"/>
<rect x="64" y="20" width="5" height="5" fill="#D9D9D9" fill-opacity="0.79"/>
<rect x="69" y="25" width="5" height="5" fill="#D9D9D9" fill-opacity="0.79"/>
<rect x="69" y="20" width="5" height="5" fill="#D9D9D9" fill-opacity="0.79"/>
<rect x="69" y="15" width="5" height="5" fill="#D9D9D9" fill-opacity="0.79"/>
<rect x="74" y="20" width="5" height="5" fill="#D9D9D9" fill-opacity="0.79"/>
<rect x="74" y="15" width="5" height="5" fill="#D9D9D9" fill-opacity="0.79"/>
<rect x="74" y="10" width="5" height="5" fill="#D9D9D9" fill-opacity="0.79"/>
<rect x="84" width="5" height="5" fill="#D9D9D9" fill-opacity="0.79"/>
<rect x="89" width="5" height="5" fill="#D9D9D9" fill-opacity="0.79"/>
<rect x="94" width="5" height="5" fill="#D9D9D9" fill-opacity="0.79"/>
<rect x="45" y="40" width="5" height="5" fill="#D9D9D9" fill-opacity="0.79"/>
<rect x="45" y="45" width="5" height="5" fill="#D9D9D9" fill-opacity="0.79"/>
<rect x="45" y="50" width="5" height="5" fill="#D9D9D9" fill-opacity="0.79"/>
<rect x="50" y="45" width="5" height="5" fill="#D9D9D9" fill-opacity="0.79"/>
<rect x="40" y="45" width="5" height="5" fill="#D9D9D9" fill-opacity="0.79"/>
<rect x="89" y="5" width="5" height="5" fill="#D9D9D9" fill-opacity="0.79"/>
<rect x="79" y="15" width="5" height="5" fill="#D9D9D9" fill-opacity="0.79"/>
<rect x="59" y="30" width="5" height="5" fill="#D9D9D9" fill-opacity="0.79"/>
<rect x="59" y="25" width="5" height="5" fill="#D9D9D9" fill-opacity="0.79"/>
<rect x="54" y="30" width="5" height="5" fill="#D9D9D9" fill-opacity="0.79"/>
<rect x="54" y="25" width="5" height="5" fill="#D9D9D9" fill-opacity="0.79"/>
<rect x="49" y="25" width="5" height="5" fill="#D9D9D9" fill-opacity="0.79"/>
<rect x="49" y="20" width="5" height="5" fill="#D9D9D9" fill-opacity="0.79"/>
<rect x="49" y="15" width="5" height="5" fill="#D9D9D9" fill-opacity="0.79"/>
<rect x="49" y="10" width="5" height="5" fill="#D9D9D9" fill-opacity="0.79"/>
<rect x="54" y="10" width="5" height="5" fill="#D9D9D9" fill-opacity="0.79"/>
<rect x="54" y="5" width="5" height="5" fill="#D9D9D9" fill-opacity="0.79"/>
<rect x="54" width="5" height="5" fill="#D9D9D9" fill-opacity="0.79"/>
<rect x="59" y="5" width="5" height="5" fill="#D9D9D9" fill-opacity="0.79"/>
<rect x="59" width="5" height="5" fill="#D9D9D9" fill-opacity="0.79"/>
<rect x="64" width="5" height="5" fill="#D9D9D9" fill-opacity="0.79"/>
<rect x="49" y="5" width="5" height="5" fill="#D9D9D9" fill-opacity="0.79"/>
<rect x="44" y="15" width="5" height="5" fill="#D9D9D9" fill-opacity="0.79"/>
<rect x="39" y="15" width="5" height="5" fill="#D9D9D9" fill-opacity="0.79"/>
<rect x="39" y="10" width="5" height="5" fill="#D9D9D9" fill-opacity="0.79"/>
<rect x="34" y="10" width="5" height="5" fill="#D9D9D9" fill-opacity="0.79"/>
<rect x="34" y="5" width="5" height="5" fill="#D9D9D9" fill-opacity="0.79"/>
<rect x="39" y="5" width="5" height="5" fill="#D9D9D9" fill-opacity="0.79"/>
<rect x="44" y="10" width="5" height="5" fill="#D9D9D9" fill-opacity="0.79"/>
<rect x="44" y="20" width="5" height="5" fill="#D9D9D9" fill-opacity="0.79"/>
<rect x="54" y="20" width="5" height="5" fill="#D9D9D9" fill-opacity="0.79"/>
<rect x="59" y="35" width="5" height="5" fill="#D9D9D9" fill-opacity="0.79"/>
<rect x="69" y="35" width="5" height="5" fill="#D9D9D9" fill-opacity="0.79"/>
<rect x="50" y="75" width="5" height="5" fill="#D9D9D9" fill-opacity="0.79"/>
<rect x="55" y="80" width="5" height="5" fill="#D9D9D9" fill-opacity="0.79"/>
<rect x="60" y="85" width="5" height="5" fill="#D9D9D9" fill-opacity="0.79"/>
<rect x="65" y="90" width="5" height="5" fill="#D9D9D9" fill-opacity="0.79"/>
<rect x="70" y="95" width="5" height="5" fill="#D9D9D9" fill-opacity="0.79"/>
<rect x="20" y="55" width="5" height="5" fill="#D9D9D9" fill-opacity="0.79"/>
<rect x="15" y="50" width="5" height="5" fill="#D9D9D9" fill-opacity="0.79"/>
<rect x="10" y="45" width="5" height="5" fill="#D9D9D9" fill-opacity="0.79"/>
<rect x="5" y="40" width="5" height="5" fill="#D9D9D9" fill-opacity="0.79"/>
<rect y="35" width="5" height="5" fill="#D9D9D9" fill-opacity="0.79"/>
<rect x="5" y="30" width="5" height="5" fill="#D9D9D9" fill-opacity="0.79"/>
<rect y="25" width="5" height="5" fill="#D9D9D9" fill-opacity="0.79"/>
<rect y="5" width="5" height="5" fill="#D9D9D9" fill-opacity="0.79"/>
<rect x="5" y="5" width="5" height="5" fill="#D9D9D9" fill-opacity="0.79"/>
<rect width="5" height="5" fill="#D9D9D9" fill-opacity="0.79"/>
<rect y="10" width="5" height="5" fill="#D9D9D9" fill-opacity="0.79"/>
<rect x="10" y="35" width="5" height="5" fill="#D9D9D9" fill-opacity="0.79"/>
<rect x="15" y="40" width="5" height="5" fill="#D9D9D9" fill-opacity="0.79"/>
<rect x="20" y="45" width="5" height="5" fill="#D9D9D9" fill-opacity="0.79"/>
<rect x="25" y="40" width="5" height="5" fill="#D9D9D9" fill-opacity="0.79"/>
<rect x="20" y="35" width="5" height="5" fill="#D9D9D9" fill-opacity="0.79"/>
<rect x="25" y="30" width="5" height="5" fill="#D9D9D9" fill-opacity="0.79"/>
<rect x="30" y="25" width="5" height="5" fill="#D9D9D9" fill-opacity="0.79"/>
<rect x="30" y="35" width="5" height="5" fill="#D9D9D9" fill-opacity="0.79"/>
<rect x="35" y="30" width="5" height="5" fill="#D9D9D9" fill-opacity="0.79"/>
<rect x="25" y="50" width="5" height="5" fill="#D9D9D9" fill-opacity="0.79"/>
<rect x="45" y="80" width="5" height="5" fill="#D9D9D9" fill-opacity="0.79"/>
<rect x="50" y="85" width="5" height="5" fill="#D9D9D9" fill-opacity="0.79"/>
<rect x="55" y="90" width="5" height="5" fill="#D9D9D9" fill-opacity="0.79"/>
<rect x="50" y="95" width="5" height="5" fill="#D9D9D9" fill-opacity="0.79"/>
<rect x="45" y="100" width="5" height="5" fill="#D9D9D9" fill-opacity="0.79"/>
<rect x="40" y="105" width="5" height="5" fill="#D9D9D9" fill-opacity="0.79"/>
<rect x="60" y="95" width="5" height="5" fill="#D9D9D9" fill-opacity="0.79"/>
<rect x="55" y="100" width="5" height="5" fill="#D9D9D9" fill-opacity="0.79"/>
<rect x="50" y="105" width="5" height="5" fill="#D9D9D9" fill-opacity="0.79"/>
<rect x="50" y="105" width="5" height="5" fill="#D9D9D9" fill-opacity="0.79"/>
<rect x="45" y="110" width="5" height="5" fill="#D9D9D9" fill-opacity="0.79"/>
<rect x="65" y="100" width="5" height="5" fill="#D9D9D9" fill-opacity="0.79"/>
<rect x="70" y="105" width="5" height="5" fill="#D9D9D9" fill-opacity="0.79"/>
<rect x="75" y="110" width="5" height="5" fill="#D9D9D9" fill-opacity="0.79"/>
<rect x="80" y="115" width="5" height="5" fill="#D9D9D9" fill-opacity="0.79"/>
<rect x="75" y="100" width="5" height="5" fill="#D9D9D9" fill-opacity="0.79"/>
<rect x="80" y="95" width="5" height="5" fill="#D9D9D9" fill-opacity="0.79"/>
<rect x="85" y="100" width="5" height="5" fill="#D9D9D9" fill-opacity="0.79"/>
<rect x="90" y="95" width="5" height="5" fill="#D9D9D9" fill-opacity="0.79"/>
<rect x="95" y="90" width="5" height="5" fill="#D9D9D9" fill-opacity="0.79"/>
<rect x="85" y="90" width="5" height="5" fill="#D9D9D9" fill-opacity="0.79"/>
<rect x="90" y="85" width="5" height="5" fill="#D9D9D9" fill-opacity="0.79"/>
<rect x="80" y="105" width="5" height="5" fill="#D9D9D9" fill-opacity="0.79"/>
<rect x="85" y="110" width="5" height="5" fill="#D9D9D9" fill-opacity="0.79"/>
<rect x="90" y="115" width="5" height="5" fill="#D9D9D9" fill-opacity="0.79"/>
<rect x="117" y="120" width="5" height="3" fill="#D9D9D9" fill-opacity="0.79"/>
<rect x="139" y="120" width="5" height="3" fill="#D9D9D9" fill-opacity="0.79"/>
<rect x="85" y="120" width="5" height="3" fill="#D9D9D9" fill-opacity="0.79"/>
<rect x="95" y="120" width="5" height="3" fill="#D9D9D9" fill-opacity="0.79"/>
<rect x="40" y="75" width="5" height="5" fill="#D9D9D9" fill-opacity="0.79"/>
<rect x="35" y="70" width="5" height="5" fill="#D9D9D9" fill-opacity="0.79"/>
<rect x="30" y="55" width="5" height="5" fill="#D9D9D9" fill-opacity="0.79"/>
<rect x="34" y="90" width="5" height="5" fill="#D9D9D9" fill-opacity="0.79"/>
<rect x="29" y="95" width="5" height="5" fill="#D9D9D9" fill-opacity="0.79"/>
<rect x="25" y="108" width="5" height="5" fill="#D9D9D9" fill-opacity="0.79"/>
<rect x="30" y="113" width="5" height="5" fill="#D9D9D9" fill-opacity="0.79"/>
<rect x="35" y="118" width="5" height="5" fill="#D9D9D9" fill-opacity="0.79"/>
<rect x="20" y="104" width="5" height="4" fill="#D9D9D9" fill-opacity="0.79"/>
<rect y="88" width="5" height="5" fill="#D9D9D9" fill-opacity="0.79"/>
<rect y="93" width="5" height="5" fill="#D9D9D9" fill-opacity="0.79"/>
<rect x="5" y="117" width="5" height="6" fill="#D9D9D9" fill-opacity="0.79"/>
</svg>
