<svg width="32" height="18" viewBox="0 0 32 18" fill="none" xmlns="http://www.w3.org/2000/svg">
<rect x="12" y="4" width="2" height="2" fill="#D90000"/>
<rect x="14" y="2" width="2" height="2" fill="#D90000"/>
<rect x="16" width="2" height="2" fill="#D90000"/>
<rect x="18" y="2" width="2" height="2" fill="#D90000"/>
<rect x="20" y="4" width="2" height="2" fill="#D90000"/>
<rect x="20" y="8" width="2" height="2" fill="#D90000"/>
<rect x="24" y="8" width="2" height="2" fill="#D90000"/>
<rect x="22" y="10" width="2" height="2" fill="#D90000"/>
<rect x="20" y="12" width="2" height="2" fill="#D90000"/>
<rect x="22" y="14" width="2" height="2" fill="#D90000"/>
<rect x="24" y="16" width="2" height="2" fill="#D90000"/>
<rect x="26" y="14" width="2" height="2" fill="#D90000"/>
<rect x="28" y="12" width="2" height="2" fill="#D90000"/>
<rect x="26" y="10" width="2" height="2" fill="#D90000"/>
<rect x="28" y="8" width="2" height="2" fill="#D90000"/>
<rect x="30" y="6" width="2" height="2" fill="#D90000"/>
<rect x="28" y="4" width="2" height="2" fill="#D90000"/>
<rect x="30" y="2" width="2" height="2" fill="#D90000"/>
<rect x="12" y="8" width="2" height="2" fill="#D90000"/>
<rect x="8" y="8" width="2" height="2" fill="#D90000"/>
<rect x="4" y="8" width="2" height="2" fill="#D90000"/>
<rect x="2" y="6" width="2" height="2" fill="#D90000"/>
<rect x="4" y="4" width="2" height="2" fill="#D90000"/>
<rect x="2" y="2" width="2" height="2" fill="#D90000"/>
<rect width="2" height="2" fill="#D90000"/>
<rect y="8" width="2" height="2" fill="#D90000"/>
<rect x="6" y="10" width="2" height="2" fill="#D90000"/>
<rect x="4" y="12" width="2" height="2" fill="#D90000"/>
<rect x="6" y="14" width="2" height="2" fill="#D90000"/>
<rect x="8" y="16" width="2" height="2" fill="#D90000"/>
<rect x="10" y="14" width="2" height="2" fill="#D90000"/>
<rect x="12" y="12" width="2" height="2" fill="#D90000"/>
<rect x="10" y="10" width="2" height="2" fill="#D90000"/>
<rect x="18" y="6" width="2" height="2" fill="#D90000"/>
<rect x="16" y="8" width="2" height="2" fill="#D90000"/>
<rect x="14" y="6" width="2" height="2" fill="#D90000"/>
</svg>
