<svg width="511" height="398" viewBox="0 0 511 398" fill="none" xmlns="http://www.w3.org/2000/svg">
<path d="M182 158C148.873 157.231 127.612 163.088 96.5324 152.294C65.4532 141.5 43.0651 144.124 8.47481 137L65.4532 186L1.99999 222C1.99999 222 72.3934 222.169 96.5324 234C120.671 245.831 146.384 242.015 182 244V158Z" fill="#0C735F" stroke="#095E4D"/>
<path d="M344 158C374.367 157.231 393.856 163.088 422.345 152.294C450.835 141.5 471.357 144.124 503.065 137L450.835 186L509 222C509 222 444.473 222.169 422.345 234C400.218 245.831 376.648 242.015 344 244V158Z" fill="#0C735F" stroke="#095E4D"/>
<path d="M108.597 72.5823C170.29 56.7308 204.728 40.7431 256.287 4.09466C259.721 1.65323 264.325 1.59415 267.823 3.94324C316.451 36.5945 350.794 52.4431 414.431 72.3128C418.624 73.6222 421.5 77.4994 421.5 81.8928V213.607C421.5 214.858 421.259 216.116 420.798 217.279C389.697 295.685 353.307 334.731 266.908 394.14C263.905 396.205 259.946 396.466 256.708 394.794C169.501 349.768 134.642 309.796 101.583 217.141C101.201 216.069 101 214.919 101 213.781V82.3217C101 77.7266 104.147 73.7258 108.597 72.5823Z" fill="url(#paint0_linear_328_135)"/>
<path d="M135.606 94.7399C185.609 81.828 214.016 68.6672 255.909 39.0764C259.343 36.6507 263.944 36.5891 267.441 38.9226C306.971 65.2959 335.305 78.3363 386.915 94.4714C391.111 95.7832 394 99.6642 394 104.06V211.466C394 212.72 393.759 213.98 393.294 215.145C367.607 279.587 337.519 311.88 266.511 360.66C263.514 362.719 259.585 362.978 256.354 361.308C184.708 324.272 155.882 291.182 128.586 215.007C128.201 213.933 128 212.781 128 211.64V104.489C128 99.8911 131.154 95.8894 135.606 94.7399Z" fill="#99CD41" fill-opacity="0.5"/>
<path d="M423 145C292.839 173.974 222.66 173.986 98.5 145V226.5C224.259 263.045 295.325 261.973 423 226.5V145Z" fill="#0C735E" stroke="#095E4D"/>
<g clip-path="url(#clip0_328_135)">
<path d="M198.526 293.209C199.092 293.209 199.646 293.154 200.183 293.051L201.497 294.001C200.558 294.295 199.56 294.454 198.526 294.454C197.478 294.454 196.468 294.291 195.519 293.989L196.828 293.043C197.377 293.152 197.945 293.209 198.526 293.209Z" fill="white"/>
<path d="M200.622 276.046L200.176 274.684C203.586 275.255 206.413 277.565 207.712 280.668L206.344 280.665C205.223 278.389 203.137 276.67 200.622 276.046Z" fill="white"/>
<path d="M207.175 285.521L208.479 284.569C208.46 287.249 207.378 289.68 205.633 291.461L205.193 290.097C206.26 288.828 206.972 287.251 207.175 285.521Z" fill="white"/>
<path d="M189.881 285.562C190.088 287.256 190.783 288.802 191.821 290.053L191.38 291.422C189.666 289.653 188.602 287.252 188.574 284.607L189.881 285.562Z" fill="white"/>
<path d="M190.707 280.665L189.34 280.668C190.632 277.582 193.436 275.28 196.821 274.693L196.373 276.06C193.884 276.695 191.82 278.406 190.707 280.665Z" fill="white"/>
<path d="M191.393 295.437L194.084 287.09L187 281.918L195.771 281.898L198.5 273.563L201.229 281.898L210 281.918L202.916 287.09L205.608 295.437L198.5 290.298L191.393 295.437Z" fill="white"/>
</g>
<g clip-path="url(#clip1_328_135)">
<path d="M228.29 293.209C228.857 293.209 229.411 293.154 229.948 293.051L231.262 294.001C230.323 294.295 229.325 294.454 228.29 294.454C227.243 294.454 226.233 294.291 225.284 293.989L226.592 293.043C227.142 293.152 227.709 293.209 228.29 293.209Z" fill="white"/>
<path d="M230.387 276.046L229.941 274.684C233.35 275.255 236.177 277.565 237.477 280.668L236.109 280.665C234.988 278.389 232.901 276.67 230.387 276.046Z" fill="white"/>
<path d="M236.94 285.521L238.243 284.569C238.225 287.249 237.142 289.68 235.398 291.461L234.958 290.097C236.025 288.828 236.737 287.251 236.94 285.521Z" fill="white"/>
<path d="M219.646 285.562C219.853 287.256 220.548 288.802 221.586 290.053L221.145 291.422C219.431 289.653 218.366 287.252 218.338 284.607L219.646 285.562Z" fill="white"/>
<path d="M220.472 280.665L219.104 280.668C220.396 277.582 223.201 275.28 226.585 274.693L226.138 276.06C223.649 276.695 221.585 278.406 220.472 280.665Z" fill="white"/>
<path d="M221.157 295.437L223.848 287.09L216.765 281.918L225.535 281.898L228.265 273.563L230.994 281.898L239.765 281.918L232.681 287.09L235.372 295.437L228.265 290.298L221.157 295.437Z" fill="white"/>
</g>
<g clip-path="url(#clip2_328_135)">
<path d="M258.055 293.209C258.622 293.209 259.176 293.154 259.712 293.051L261.026 294.001C260.088 294.295 259.09 294.454 258.055 294.454C257.007 294.454 255.997 294.291 255.048 293.989L256.357 293.043C256.906 293.152 257.474 293.209 258.055 293.209Z" fill="white"/>
<path d="M260.152 276.046L259.706 274.684C263.115 275.255 265.942 277.565 267.241 280.668L265.873 280.665C264.752 278.389 262.666 276.67 260.152 276.046Z" fill="white"/>
<path d="M266.704 285.521L268.008 284.569C267.989 287.249 266.907 289.68 265.162 291.461L264.723 290.097C265.789 288.828 266.501 287.251 266.704 285.521Z" fill="white"/>
<path d="M249.411 285.562C249.617 287.256 250.313 288.802 251.351 290.053L250.909 291.422C249.196 289.653 248.131 287.252 248.103 284.607L249.411 285.562Z" fill="white"/>
<path d="M250.237 280.665L248.869 280.668C250.161 277.582 252.965 275.28 256.35 274.693L255.902 276.06C253.413 276.695 251.35 278.406 250.237 280.665Z" fill="white"/>
<path d="M250.922 295.437L253.613 287.09L246.529 281.918L255.3 281.898L258.029 273.563L260.759 281.898L269.529 281.918L262.446 287.09L265.137 295.437L258.029 290.298L250.922 295.437Z" fill="white"/>
</g>
<g clip-path="url(#clip3_328_135)">
<path d="M287.82 293.209C288.386 293.209 288.94 293.154 289.477 293.051L290.791 294.001C289.852 294.295 288.854 294.454 287.82 294.454C286.772 294.454 285.762 294.291 284.813 293.989L286.122 293.043C286.671 293.152 287.239 293.209 287.82 293.209Z" fill="white"/>
<path d="M289.916 276.046L289.47 274.684C292.88 275.255 295.707 277.565 297.006 280.668L295.638 280.665C294.517 278.389 292.431 276.67 289.916 276.046Z" fill="white"/>
<path d="M296.469 285.521L297.772 284.569C297.754 287.249 296.671 289.68 294.927 291.461L294.487 290.097C295.554 288.828 296.266 287.251 296.469 285.521Z" fill="white"/>
<path d="M279.175 285.562C279.382 287.256 280.077 288.802 281.115 290.053L280.674 291.422C278.96 289.653 277.896 287.252 277.867 284.607L279.175 285.562Z" fill="white"/>
<path d="M280.001 280.665L278.634 280.668C279.926 277.582 282.73 275.28 286.115 274.693L285.667 276.06C283.178 276.695 281.114 278.406 280.001 280.665Z" fill="white"/>
<path d="M280.687 295.437L283.378 287.09L276.294 281.918L285.065 281.898L287.794 273.563L290.523 281.898L299.294 281.918L292.21 287.09L294.902 295.437L287.794 290.298L280.687 295.437Z" fill="white"/>
</g>
<g clip-path="url(#clip4_328_135)">
<path d="M317.584 293.209C318.151 293.209 318.705 293.154 319.242 293.051L320.556 294.001C319.617 294.295 318.619 294.454 317.584 294.454C316.537 294.454 315.527 294.291 314.577 293.989L315.886 293.043C316.436 293.152 317.003 293.209 317.584 293.209Z" fill="white"/>
<path d="M319.681 276.046L319.235 274.684C322.644 275.255 325.471 277.565 326.771 280.668L325.403 280.665C324.282 278.389 322.195 276.67 319.681 276.046Z" fill="white"/>
<path d="M326.234 285.521L327.537 284.569C327.519 287.249 326.436 289.68 324.692 291.461L324.252 290.097C325.319 288.828 326.031 287.251 326.234 285.521Z" fill="white"/>
<path d="M308.94 285.562C309.147 287.256 309.842 288.802 310.88 290.053L310.439 291.422C308.725 289.653 307.66 287.252 307.632 284.607L308.94 285.562Z" fill="white"/>
<path d="M309.766 280.665L308.398 280.668C309.69 277.582 312.495 275.28 315.879 274.693L315.432 276.06C312.943 276.695 310.879 278.406 309.766 280.665Z" fill="white"/>
<path d="M310.451 295.437L313.142 287.09L306.059 281.918L314.829 281.898L317.559 273.563L320.288 281.898L329.059 281.918L321.975 287.09L324.666 295.437L317.559 290.298L310.451 295.437Z" fill="white"/>
</g>
<path d="M131.197 196.752C130.834 198.277 130.237 199.515 129.407 200.466C128.583 201.414 127.612 202.058 126.494 202.401C125.38 202.744 124.204 202.768 122.965 202.473C121.726 202.178 120.684 201.626 119.84 200.817C119.002 200.004 118.426 198.988 118.113 197.77C117.805 196.548 117.832 195.177 118.194 193.657C118.557 192.132 119.15 190.896 119.975 189.948C120.805 188.997 121.776 188.35 122.89 188.007C124.008 187.665 125.187 187.641 126.426 187.936C127.665 188.231 128.704 188.783 129.544 189.591C130.388 190.4 130.963 191.416 131.271 192.638C131.585 193.856 131.56 195.228 131.197 196.752ZM128.62 196.139C128.875 195.066 128.923 194.121 128.762 193.304C128.607 192.483 128.279 191.814 127.78 191.296C127.281 190.773 126.647 190.42 125.878 190.237C125.109 190.054 124.384 190.083 123.703 190.325C123.024 190.562 122.428 191.012 121.915 191.673C121.408 192.331 121.026 193.197 120.771 194.27C120.515 195.344 120.465 196.29 120.62 197.111C120.781 197.928 121.111 198.598 121.609 199.12C122.109 199.639 122.743 199.989 123.513 200.172C124.282 200.355 125.006 200.328 125.686 200.091C126.366 199.849 126.96 199.399 127.467 198.741C127.98 198.079 128.364 197.212 128.62 196.139Z" fill="white"/>
<path d="M139.355 192.664L142.232 193.273C143.344 193.508 144.28 193.956 145.041 194.615C145.801 195.274 146.335 196.089 146.643 197.059C146.952 198.025 146.984 199.086 146.739 200.245C146.5 201.375 146.045 202.312 145.375 203.056C144.704 203.8 143.888 204.317 142.927 204.607C141.966 204.892 140.93 204.918 139.818 204.682L136.942 204.074C135.825 203.838 134.883 203.396 134.115 202.75C133.352 202.1 132.815 201.299 132.503 200.347C132.191 199.396 132.156 198.352 132.396 197.218C132.641 196.059 133.102 195.102 133.78 194.345C134.459 193.584 135.28 193.056 136.242 192.761C137.21 192.462 138.248 192.43 139.355 192.664ZM138.894 194.846C138.217 194.703 137.602 194.718 137.047 194.891C136.499 195.061 136.034 195.383 135.652 195.859C135.271 196.335 134.998 196.96 134.835 197.734C134.678 198.475 134.679 199.131 134.839 199.702C135.004 200.274 135.306 200.747 135.744 201.12C136.183 201.494 136.736 201.751 137.403 201.892L140.287 202.502C140.958 202.644 141.566 202.632 142.109 202.467C142.658 202.297 143.119 201.983 143.492 201.525C143.87 201.063 144.137 200.464 144.293 199.727C144.455 198.963 144.458 198.286 144.302 197.696C144.15 197.108 143.858 196.623 143.426 196.241C142.999 195.86 142.449 195.598 141.777 195.456L138.894 194.846ZM142.425 191.397L139.239 206.462L136.758 205.937L139.945 190.873L142.425 191.397Z" fill="white"/>
<path d="M149.153 192.995L151.723 193.473L149.91 203.221L150.043 203.246L158.58 194.748L160.905 195.18L158.246 209.481L155.656 208.999L157.466 199.258L157.348 199.236L148.792 207.723L146.494 207.296L149.153 192.995Z" fill="white"/>
<path d="M174.021 209.769L172.935 215.306L170.41 214.899L170.957 211.506L169.947 211.343L170.298 209.169L174.021 209.769ZM160.383 209.802L162.697 195.442L165.193 195.844L163.227 208.045L169.678 209.084L171.644 196.883L174.161 197.289L171.848 211.649L160.383 209.802Z" fill="white"/>
<path d="M175.009 212.071L176.993 197.661L186.365 198.952L186.063 201.14L179.302 200.209L178.763 204.121L185.039 204.985L184.738 207.173L178.462 206.309L177.92 210.242L184.738 211.181L184.437 213.369L175.009 212.071Z" fill="white"/>
<path d="M187.597 213.735L189.276 199.286L194.694 199.916C195.804 200.045 196.711 200.36 197.415 200.861C198.124 201.363 198.63 201.999 198.931 202.768C199.238 203.533 199.338 204.374 199.231 205.291C199.124 206.218 198.833 207.018 198.359 207.692C197.885 208.366 197.243 208.866 196.433 209.191C195.623 209.512 194.661 209.608 193.547 209.478L189.956 209.061L190.206 206.909L193.444 207.285C194.093 207.361 194.638 207.31 195.078 207.132C195.518 206.954 195.86 206.68 196.103 206.307C196.351 205.936 196.505 205.494 196.565 204.981C196.624 204.468 196.576 204.005 196.419 203.591C196.267 203.178 195.994 202.839 195.6 202.574C195.212 202.305 194.691 202.132 194.037 202.056L191.639 201.777L190.214 214.039L187.597 213.735Z" fill="white"/>
<path d="M202.829 206.418L206.506 206.756C207.614 206.858 208.548 207.127 209.307 207.562C210.071 207.994 210.635 208.557 210.999 209.251C211.363 209.946 211.504 210.736 211.423 211.622C211.341 212.514 211.057 213.279 210.57 213.919C210.084 214.554 209.425 215.026 208.593 215.335C207.765 215.644 206.798 215.748 205.69 215.646L200.265 215.148L201.596 200.663L204.227 200.905L203.094 213.239L205.887 213.496C206.472 213.55 206.977 213.485 207.403 213.3C207.829 213.116 208.162 212.852 208.403 212.508C208.649 212.164 208.791 211.78 208.83 211.356C208.886 210.743 208.698 210.2 208.266 209.728C207.839 209.251 207.187 208.972 206.31 208.892L202.633 208.554L202.829 206.418ZM216.222 202.007L214.891 216.491L212.26 216.25L213.591 201.765L216.222 202.007Z" fill="white"/>
<path d="M224.222 202.48L226.831 202.623L226.29 212.523L226.425 212.53L233.795 203.003L236.157 203.133L235.363 217.656L232.732 217.512L233.273 207.62L233.152 207.613L225.761 217.131L223.428 217.004L224.222 202.48Z" fill="white"/>
<path d="M257.204 208.525L254.549 208.474C254.481 208.037 254.349 207.648 254.152 207.308C253.955 206.964 253.707 206.67 253.409 206.427C253.111 206.185 252.769 206.001 252.383 205.875C252.002 205.744 251.589 205.675 251.144 205.666C250.353 205.651 249.648 205.836 249.03 206.222C248.412 206.603 247.922 207.171 247.562 207.927C247.202 208.677 247.011 209.599 246.99 210.693C246.968 211.805 247.123 212.746 247.454 213.515C247.789 214.279 248.256 214.861 248.855 215.261C249.458 215.656 250.153 215.862 250.939 215.877C251.374 215.885 251.782 215.836 252.163 215.73C252.549 215.619 252.896 215.453 253.203 215.232C253.515 215.011 253.778 214.736 253.993 214.409C254.213 214.082 254.367 213.706 254.455 213.281L257.111 213.347C256.998 214.036 256.77 214.681 256.427 215.28C256.089 215.88 255.65 216.406 255.111 216.86C254.572 217.309 253.944 217.657 253.229 217.903C252.514 218.145 251.724 218.258 250.857 218.241C249.579 218.216 248.444 217.898 247.452 217.287C246.46 216.676 245.686 215.806 245.13 214.678C244.574 213.549 244.311 212.204 244.341 210.642C244.372 209.075 244.689 207.741 245.293 206.639C245.897 205.533 246.706 204.694 247.721 204.122C248.736 203.55 249.878 203.276 251.147 203.3C251.956 203.316 252.707 203.444 253.398 203.685C254.09 203.926 254.703 204.272 255.239 204.722C255.775 205.168 256.212 205.712 256.55 206.353C256.893 206.99 257.111 207.714 257.204 208.525Z" fill="white"/>
<path d="M271.643 210.786C271.651 212.353 271.364 213.696 270.782 214.817C270.205 215.932 269.413 216.788 268.407 217.385C267.406 217.981 266.269 218.282 264.995 218.288C263.722 218.294 262.579 218.004 261.568 217.417C260.561 216.825 259.762 215.974 259.17 214.864C258.582 213.749 258.285 212.411 258.277 210.848C258.27 209.281 258.555 207.94 259.132 206.824C259.714 205.704 260.505 204.846 261.506 204.249C262.512 203.653 263.652 203.351 264.925 203.345C266.199 203.339 267.339 203.63 268.346 204.217C269.357 204.804 270.156 205.655 270.744 206.77C271.336 207.88 271.636 209.218 271.643 210.786ZM268.994 210.798C268.989 209.695 268.812 208.765 268.463 208.009C268.118 207.249 267.642 206.676 267.034 206.29C266.426 205.9 265.727 205.707 264.936 205.71C264.146 205.714 263.448 205.914 262.844 206.31C262.24 206.701 261.767 207.278 261.425 208.042C261.087 208.802 260.921 209.733 260.926 210.836C260.931 211.939 261.106 212.871 261.451 213.632C261.8 214.388 262.279 214.961 262.886 215.351C263.494 215.736 264.194 215.927 264.984 215.923C265.775 215.92 266.472 215.722 267.077 215.331C267.681 214.935 268.152 214.358 268.489 213.599C268.831 212.835 269 211.901 268.994 210.798Z" fill="white"/>
<path d="M272.545 217.994L272.482 215.807L272.893 215.774C273.451 215.725 273.887 215.511 274.203 215.133C274.524 214.754 274.751 214.153 274.883 213.33C275.021 212.506 275.095 211.405 275.108 210.026L275.158 203.367L284.685 203.093L285.104 217.632L282.526 217.707L282.17 205.332L277.676 205.462L277.602 210.772C277.581 212.364 277.444 213.687 277.19 214.741C276.941 215.795 276.505 216.589 275.881 217.123C275.261 217.658 274.386 217.941 273.255 217.973L272.545 217.994Z" fill="white"/>
<path d="M286.836 221.04L286.537 215.387L287.508 215.336C287.821 215.059 288.106 214.676 288.365 214.188C288.624 213.7 288.831 213.04 288.986 212.207C289.141 211.373 289.222 210.302 289.228 208.993L289.286 202.831L298.57 202.34L299.225 214.716L300.842 214.631L301.14 220.269L298.615 220.403L298.431 216.913L289.175 217.403L289.361 220.906L286.836 221.04ZM290.572 215.174L296.7 214.85L296.162 204.679L291.772 204.911L291.753 208.86C291.744 209.851 291.691 210.741 291.596 211.528C291.5 212.315 291.363 213.013 291.187 213.619C291.01 214.221 290.805 214.74 290.572 215.174Z" fill="white"/>
<path d="M304.24 216.478L301.436 216.694L305.424 201.798L308.667 201.548L314.898 215.656L312.093 215.873L307.331 204.643L307.218 204.652L304.24 216.478ZM303.894 210.784L311.542 210.195L311.704 212.305L304.057 212.895L303.894 210.784Z" fill="white"/>
<path d="M314.568 203.248L314.348 201.05L325.895 199.893L326.115 202.091L321.642 202.539L322.871 214.814L320.271 215.075L319.041 202.799L314.568 203.248Z" fill="white"/>
<path d="M330.441 204.979L334.105 204.52C335.209 204.382 336.179 204.444 337.013 204.707C337.852 204.965 338.524 205.394 339.028 205.994C339.533 206.594 339.84 207.336 339.951 208.219C340.062 209.107 339.948 209.916 339.61 210.645C339.271 211.37 338.729 211.972 337.983 212.452C337.241 212.932 336.318 213.24 335.214 213.378L329.809 214.055L328.002 199.622L330.624 199.294L332.162 211.584L334.946 211.236C335.528 211.163 336.008 210.991 336.384 210.72C336.761 210.448 337.03 210.119 337.191 209.731C337.357 209.343 337.414 208.937 337.361 208.515C337.284 207.904 336.985 207.414 336.461 207.045C335.942 206.671 335.246 206.539 334.372 206.648L330.707 207.107L330.441 204.979ZM342.576 197.798L344.382 212.231L341.761 212.559L339.955 198.126L342.576 197.798Z" fill="white"/>
<path d="M350.477 196.558L353.658 196.032L359.637 205.726L359.805 205.699L362.347 194.596L365.528 194.07L367.9 208.42L365.406 208.833L363.776 198.974L363.643 198.996L361.3 209.468L359.436 209.776L353.843 200.594L353.71 200.616L355.344 210.496L352.849 210.909L350.477 196.558Z" fill="white"/>
<path d="M366.776 193.764L369.342 193.272L371.212 203.009L371.344 202.983L376.192 191.957L378.514 191.511L381.257 205.795L378.669 206.292L376.801 196.562L376.683 196.585L371.813 207.608L369.518 208.049L366.776 193.764Z" fill="white"/>
<path d="M383.35 205.311L380.289 191.092L385.621 189.944C386.714 189.709 387.674 189.715 388.503 189.963C389.335 190.21 390.018 190.649 390.551 191.28C391.088 191.906 391.453 192.67 391.648 193.573C391.844 194.484 391.826 195.336 391.594 196.127C391.363 196.918 390.916 197.597 390.254 198.166C389.59 198.73 388.71 199.13 387.613 199.366L384.079 200.127L383.623 198.009L386.81 197.324C387.449 197.186 387.948 196.962 388.308 196.653C388.667 196.343 388.902 195.972 389.013 195.542C389.128 195.11 389.132 194.642 389.023 194.137C388.915 193.633 388.719 193.21 388.438 192.869C388.161 192.526 387.793 192.293 387.335 192.169C386.881 192.039 386.332 192.043 385.689 192.182L383.328 192.69L385.926 204.757L383.35 205.311Z" fill="white"/>
<path d="M397.574 202.141L394.838 202.794L396.442 187.457L399.606 186.702L407.971 199.659L405.235 200.312L398.772 189.968L398.661 189.994L397.574 202.141ZM396.34 196.572L403.8 194.791L404.292 196.85L396.831 198.631L396.34 196.572Z" fill="white"/>
<path d="M254.383 59.1815C253.267 59.7079 251.72 60.5613 248.904 62.2283L244.98 64.5413L243.608 65.8971L242.236 67.2451L242.38 68.0107C242.46 68.4255 242.539 68.8083 242.571 68.8562C242.603 68.912 243.616 68.3298 245.187 67.3727L247.764 65.8014L249.255 65.6978L250.755 65.5941L251.592 65.1793C252.413 64.7726 252.469 64.7566 254.503 64.3897C255.644 64.1903 256.625 64.0228 256.681 64.0228C256.744 64.0228 257.263 63.6559 257.837 63.2013C258.419 62.7467 259.64 61.8454 260.549 61.1994L262.216 60.0269L263.165 59.7717C263.683 59.6282 264.114 59.5005 264.114 59.4766C264.114 59.4527 263.827 59.2613 263.484 59.0539L262.854 58.679L260.948 58.5594C259.903 58.4956 258.347 58.4398 257.494 58.4477H255.939L254.383 59.1815Z" fill="white"/>
<path d="M249.239 60.003C245.443 61.0319 241.064 63.0338 237.236 65.4744C231.788 68.9518 226.764 73.6975 222.768 79.137C222.249 79.8468 222.193 79.8867 223.765 78.4351C224.275 77.9645 224.714 77.5817 224.73 77.5817C224.754 77.5817 224.841 77.813 224.921 78.1001C225.001 78.3872 225.089 78.6106 225.113 78.6026C225.136 78.5866 225.743 78.1878 226.46 77.7013L227.76 76.824L227.457 76.5688C227.298 76.4252 227.178 76.2976 227.194 76.2816C227.21 76.2736 227.697 75.8111 228.263 75.2527L229.3 74.2478L230.137 74.2956L230.967 74.3515L229.738 75.3325C229.061 75.8749 228.494 76.3534 228.478 76.3853C228.462 76.4252 228.67 76.8878 228.941 77.4222L229.435 78.3793L229.651 78.0842C229.77 77.9167 230.177 77.3105 230.56 76.7362C231.214 75.7552 231.254 75.6755 231.254 75.2607L231.262 74.83L232.674 73.3465L234.085 71.871L234.564 70.6108L235.042 69.3586L236.717 67.9708C238.376 66.599 238.408 66.5751 240.346 65.5302C242.428 64.4056 250.26 59.7956 250.069 59.8036C250.005 59.8036 249.638 59.8913 249.239 60.003Z" fill="white"/>
<path d="M284.062 61.9171C284.804 62.8104 284.836 62.8583 284.891 63.3448C284.923 63.608 284.963 63.8792 284.979 63.943C285.003 64.0307 284.82 64.1823 284.421 64.4215C283.871 64.7485 283.823 64.7964 283.767 65.0915C283.743 65.275 283.703 65.4424 283.687 65.4743C283.663 65.5063 283.376 65.4026 283.033 65.243C282.698 65.0915 282.331 64.932 282.227 64.8921L282.036 64.8124L282.18 65.0357C282.259 65.1633 282.443 65.4345 282.586 65.6578C282.73 65.8731 282.866 66.2161 282.897 66.4155C282.921 66.6149 282.969 66.8302 282.985 66.91C283.009 66.9977 282.874 67.1572 282.547 67.4045C282.283 67.6039 282.052 67.7714 282.02 67.7714C281.948 67.7714 280.624 66.7186 280.624 66.6627C280.624 66.6388 280.999 66.6229 281.462 66.6388C282.395 66.6707 282.379 66.6787 282.22 66.0965C282.148 65.8173 282.1 65.7934 281.111 65.3946C280.21 65.0277 279.946 64.9639 278.925 64.8283C277.952 64.6927 277.697 64.6289 277.338 64.4295C277.011 64.2461 276.668 64.1504 275.855 64.0148L274.786 63.8393L273.701 64.3657C273.095 64.6608 272.449 64.94 272.258 64.9878L271.907 65.0676L271.955 65.5461C271.995 66.0247 271.995 66.0327 271.468 66.91C271.101 67.5321 270.655 68.1064 269.993 68.8401C269.466 69.4144 268.98 69.9089 268.908 69.9408C268.836 69.9727 268.581 69.9966 268.342 69.9966L267.895 70.0046L267.951 70.6985C267.999 71.2967 268.07 71.536 268.405 72.3096C268.629 72.8121 268.852 73.2428 268.916 73.2747C268.972 73.3066 269.211 73.3545 269.434 73.3864C269.849 73.4422 269.865 73.4342 270.391 73.0274L270.934 72.6207L271.484 72.6685C271.787 72.7004 272.058 72.7403 272.098 72.7563C272.202 72.8281 272.936 74.1441 273.271 74.8699C273.526 75.4202 273.646 75.5957 273.917 75.7711L274.244 75.9944L275.033 75.3484L275.815 74.7024L275.671 73.9845L275.52 73.2587L275.998 72.5968L276.469 71.9268L275.775 71.4323L275.073 70.9378L274.89 70.2917C274.786 69.9328 274.69 69.5899 274.666 69.5101C274.642 69.4224 274.802 69.2629 275.241 68.9678L275.863 68.553L275.815 67.8751L275.775 67.1891L276.19 67.245C276.413 67.2689 276.732 67.2928 276.9 67.2928C277.155 67.2928 277.211 67.3247 277.282 67.5082C277.362 67.7076 277.33 67.8113 277.003 68.4174C276.525 69.3267 276.525 69.542 276.995 70.4832C277.195 70.882 277.402 71.201 277.458 71.201C277.745 71.201 278.136 71.3765 278.176 71.52C278.248 71.7992 278.75 71.7274 279.867 71.2648L280.88 70.858L281.398 71.1132L281.924 71.3685L281.741 71.5679C281.565 71.7513 281.502 71.7593 280.696 71.7593H279.835L279.619 72.0384L279.412 72.3176L279.739 72.9078C279.922 73.2348 280.066 73.5299 280.066 73.5538C280.066 73.5937 279.962 73.5858 279.125 73.4741L278.774 73.4262L278.83 74.8061L278.886 76.1859L277.019 76.7282L275.153 77.2706L274.698 77.0951C274.268 76.9276 274.228 76.9276 273.757 77.0473L273.263 77.1749L272.792 76.8558C272.537 76.6804 272.329 76.5288 272.329 76.5209C272.329 76.5129 272.218 75.8908 272.09 75.149C271.963 74.3993 271.851 73.7772 271.851 73.7612C271.851 73.7373 270.926 74.5429 270.391 75.0294C270.256 75.157 270.272 75.2048 270.694 76.1779C270.934 76.7282 271.133 77.2227 271.133 77.2546C271.133 77.2945 270.495 77.446 269.721 77.5976L268.31 77.8608L268.254 78.1399C268.222 78.2915 268.174 78.5547 268.15 78.7142C268.102 78.9934 268.039 79.0412 266.986 79.6553C265.957 80.2695 265.837 80.3652 265.151 81.1389L264.425 81.9683H263.867C263.333 81.9683 263.301 81.9763 262.966 82.2874L262.615 82.6144L261.466 82.5585L260.326 82.5027L260.35 82.9813L260.382 83.4598L261.267 83.8108L262.16 84.1617L262.136 84.4408C262.12 84.6801 262.184 84.7918 262.543 85.1906L262.974 85.6691L262.695 87.2643C262.551 88.1496 262.416 88.8754 262.4 88.8913C262.376 88.9153 259.831 88.5723 257.486 88.2294C256.721 88.1257 256.705 88.1257 255.995 88.333C255.596 88.4527 255.253 88.5723 255.229 88.5883C255.213 88.6122 255.229 89.2024 255.277 89.9043L255.349 91.1804L254.823 92.4087L254.304 93.637L254.448 94.9211L254.583 96.2052L255.142 96.1812L255.7 96.1573L256.378 96.9469C257.12 97.8243 257.383 97.9678 257.686 97.6887C257.79 97.6009 258.667 97.3138 259.911 96.9629L261.969 96.3806L262.743 95.7904C263.165 95.4634 263.54 95.1364 263.564 95.0646C263.588 94.9928 263.652 94.5143 263.708 94.0118C263.803 93.1265 263.827 93.0707 264.146 92.624C264.465 92.1854 264.505 92.1535 265.311 91.8504C265.773 91.6829 266.308 91.4835 266.499 91.4117L266.85 91.2761L266.802 90.4147L266.746 89.5454L267.249 89.2263C267.52 89.0509 267.791 88.9073 267.855 88.9073C267.911 88.9073 268.366 89.0349 268.868 89.1944L269.777 89.4736L270.942 88.7239L272.106 87.9741L272.704 88.1974C273.406 88.4527 273.358 88.4208 274.818 90C275.871 91.1405 275.966 91.2283 276.469 91.4197C276.756 91.5313 277.498 91.9541 278.104 92.3608L279.213 93.0946L279.635 93.8284L280.058 94.5701L279.452 94.9769C278.846 95.3916 278.846 95.3916 278 95.4554C277.538 95.4873 277.011 95.5192 276.828 95.5192C276.525 95.5272 276.501 95.5432 276.413 95.8223C276.365 95.9818 276.333 96.1254 276.349 96.1414C276.357 96.1573 276.995 96.3966 277.761 96.6757C278.527 96.9629 279.205 97.2101 279.276 97.242C279.388 97.2819 279.396 97.2021 279.364 96.4843L279.324 95.6867H279.675H280.026L280.489 94.8094L280.959 93.9321L280.632 93.5652C280.265 93.1504 280.249 93.0547 280.449 92.6719L280.592 92.4167L280.904 92.648C281.079 92.7676 281.358 92.8952 281.526 92.9271C281.861 92.9909 281.861 92.9909 281.661 92.4565C281.621 92.3528 281.207 92.0817 280.584 91.7467C279.747 91.3 279.556 91.1565 279.468 90.9491C279.364 90.7019 279.332 90.6859 278.678 90.5902L277.992 90.4865L277.442 89.8325C277.139 89.4736 276.644 88.9631 276.341 88.6919C275.871 88.2692 275.759 88.1257 275.512 87.5275L275.225 86.8495L275.608 86.682L275.998 86.5225L276.118 86.8017C276.23 87.0649 276.246 87.0729 276.676 87.0729C277.123 87.0729 277.131 87.0808 277.554 87.5434C277.921 87.9342 278.359 88.2294 280.186 89.3061L282.379 90.5982V91.3C282.379 91.986 282.387 92.0099 282.754 92.6559C283.089 93.2461 283.185 93.3498 283.743 93.7167L284.357 94.1315L284.915 95.256C285.545 96.5242 285.378 96.3966 286.598 96.5322L287.109 96.588L287.061 95.942L287.013 95.2959L287.372 94.8413L287.723 94.3787L287.268 94.1155C287.013 93.9719 286.782 93.8443 286.758 93.8364C286.686 93.8044 285.88 92.1774 285.936 92.1774C285.96 92.1774 286.072 92.2492 286.183 92.3369C286.295 92.4246 286.479 92.4964 286.59 92.4964C286.79 92.4964 286.79 92.4964 286.734 91.9301L286.678 91.3638L287.101 91.4117C287.332 91.4356 287.779 91.4755 288.09 91.5074L288.664 91.5553L289.406 93.1823L290.155 94.8094L291.168 95.4156C291.814 95.7984 292.349 96.0616 292.644 96.1254C293.242 96.269 293.226 96.277 293.226 96.0536C293.226 95.9499 293.25 95.7505 293.274 95.615L293.33 95.3597L293.856 95.4076C294.303 95.4554 294.59 95.4156 295.762 95.1364C296.52 94.953 297.182 94.8094 297.238 94.8094C297.294 94.8094 297.445 95.1444 297.589 95.5831C297.836 96.3408 297.844 96.4365 297.932 98.558C298.02 100.696 298.02 100.767 297.86 101.134C297.772 101.342 297.669 101.509 297.637 101.517C297.605 101.517 297.063 101.565 296.448 101.621L295.324 101.716L294.598 102.291L293.88 102.865L291.32 102.554L288.752 102.243L288.297 101.94C287.93 101.685 287.723 101.613 287.22 101.533L286.606 101.445L285.809 101.972C285.107 102.442 285.019 102.53 285.051 102.705C285.067 102.817 285.091 103.224 285.107 103.615L285.131 104.333L284.652 104.524L284.174 104.715L283.296 104.548C282.818 104.46 282.212 104.364 281.956 104.333C281.502 104.293 281.462 104.261 280.72 103.599C280.289 103.216 279.867 102.841 279.771 102.761C279.643 102.65 279.245 102.57 278.088 102.426C276.597 102.243 276.565 102.235 275.655 101.812C274.746 101.397 274.73 101.389 274.635 101.046C274.539 100.712 274.539 100.704 274.993 100.034L275.44 99.3556L275.073 98.8053L274.714 98.255L274.914 97.8482C275.025 97.6328 275.121 97.4175 275.121 97.3856C275.121 97.242 274.188 96.8193 273.741 96.7635C273.326 96.7156 273.263 96.7316 273.039 96.915C272.8 97.1224 272.776 97.1224 271.452 97.1224C270.192 97.1224 270.072 97.1383 269.658 97.3138L269.219 97.5132L268.373 97.2819L267.528 97.0586L265.367 97.8163C264.17 98.231 262.711 98.7415 262.12 98.9568L261.044 99.3397L260.645 99.1163C260.302 98.9249 260.103 98.8771 259.169 98.7973C258.037 98.7016 257.941 98.6617 257.837 98.255C257.806 98.1034 257.742 98.0795 257.375 98.0795H256.952L256.896 98.4145C256.864 98.6059 256.809 98.8133 256.777 98.8771C256.737 98.9409 255.652 100.018 254.36 101.262L252.007 103.527L251.951 104.301L251.903 105.074L250.803 106.167L249.702 107.268L248.753 107.499C248.211 107.635 247.756 107.786 247.676 107.866C247.604 107.946 246.671 109.174 245.595 110.602C243.888 112.867 243.553 113.353 242.955 114.502C242.572 115.22 242.261 115.818 242.261 115.842C242.261 115.858 242.404 116.081 242.58 116.336L242.891 116.807L242.572 119.383L242.245 121.967L241.71 122.605C241.415 122.956 241.152 123.283 241.12 123.339C241.088 123.387 241.216 123.801 241.407 124.256L241.75 125.078L241.647 125.779L241.543 126.481L243.369 128.475L245.188 130.469L245.611 131.658C245.842 132.312 246.057 132.878 246.081 132.918C246.105 132.958 247.477 133.987 249.12 135.215C251.521 137.001 252.159 137.44 252.35 137.432C252.486 137.432 252.964 137.328 253.427 137.201L254.264 136.97L256.697 137.352C258.037 137.568 259.201 137.735 259.289 137.735C259.377 137.735 260.438 137.432 261.642 137.057L263.835 136.379L265.837 136.324L267.839 136.268L268.429 137.352C268.884 138.19 269.059 138.437 269.179 138.437C269.267 138.437 270.056 138.349 270.926 138.246L272.513 138.062L273.398 138.78C273.885 139.171 274.292 139.506 274.307 139.514C274.323 139.53 274.1 140 273.821 140.559C273.542 141.125 273.159 142.026 272.968 142.561L272.633 143.526L273.007 144.212L273.382 144.906L274.642 145.783C275.336 146.261 275.935 146.7 275.982 146.756C276.022 146.804 276.278 147.402 276.541 148.072L277.019 149.292L276.788 149.563L276.557 149.827L276.916 150.497L277.275 151.174L275.751 152.746L274.228 154.317L274.307 154.939C274.379 155.553 274.395 155.585 274.985 156.367L275.592 157.164L275.647 157.81L275.703 158.456L276.254 158.759L276.804 159.071L277.657 158.879C279.667 158.44 282.531 157.507 284.612 156.598C286.782 155.657 289.573 154.142 291.511 152.849C292.955 151.884 294.111 151.015 294.024 150.959C293.976 150.927 293.944 150.752 293.96 150.552L293.984 150.209L296.927 147.873C298.546 146.588 299.902 145.496 299.934 145.432C299.974 145.376 300.532 143.781 301.186 141.899L302.382 138.477L305.668 133.221L308.962 127.957L310.191 124.743L311.411 121.52L311.395 119.917L311.371 118.306L310.031 119.957C309.297 120.858 308.659 121.624 308.611 121.648C308.572 121.68 308.324 121.68 308.069 121.648L307.599 121.592L307.503 120.946C307.391 120.18 307.311 120.045 306.641 119.343L306.139 118.825L305.573 118.801L305.006 118.777L304.751 117.891C304.512 117.038 304.48 116.982 303.778 116.089L303.06 115.172L302.925 114.103C302.845 113.513 302.749 112.938 302.717 112.819C302.677 112.699 302.342 112.237 301.968 111.782C301.385 111.088 301.074 110.586 299.934 108.488L298.578 106.015L299.128 105.736C299.431 105.593 299.695 105.481 299.71 105.497C299.726 105.521 300.333 106.326 301.058 107.292C301.864 108.368 302.614 109.278 303.004 109.644L303.635 110.243L303.946 111.439L304.257 112.635L305.573 114.231C306.299 115.108 306.937 115.882 306.992 115.953C307.056 116.025 307.208 116.807 307.343 117.828C307.67 120.188 307.63 120.029 307.926 119.997C308.165 119.973 308.269 119.814 310.015 116.942L311.858 113.911L312.631 111.638L313.397 109.365L313.485 106.813C313.525 105.409 313.564 104.149 313.564 104.006C313.564 103.774 313.501 103.702 312.974 103.352C312.4 102.961 312.384 102.937 312.129 102.291C311.746 101.326 311.746 101.334 311.571 101.429C311.427 101.509 311.411 101.605 311.411 102.666V103.814L310.94 104.317L310.47 104.819L310.39 104.5C310.342 104.325 310.247 103.91 310.175 103.583L310.047 102.985L309.242 102.426C308.803 102.123 308.396 101.796 308.332 101.708C308.277 101.621 308.029 101.134 307.79 100.616L307.359 99.6906L307.758 99.4354C308.237 99.1482 308.069 99.0446 309.122 100.281L309.808 101.086L310.302 101.134C311.068 101.222 311.052 101.222 311.251 100.791C311.355 100.568 311.451 100.392 311.467 100.392C311.491 100.392 311.722 100.56 311.993 100.767C312.264 100.967 312.528 101.166 312.575 101.198C312.623 101.238 312.926 100.887 313.365 100.265C313.756 99.7225 314.099 99.2998 314.139 99.3397C314.171 99.3716 314.378 99.8102 314.601 100.313C314.817 100.815 315 101.182 315 101.134C315 100.943 314.442 98.2071 314.163 97.0745C312.288 89.2822 308.819 82.4389 303.746 76.5049C302.693 75.2766 299.679 72.2538 298.49 71.2488C294.765 68.0745 291.041 65.5382 286.566 63.1454C284.293 61.9251 283.91 61.7417 284.062 61.9171ZM300.301 83.1169C300.779 83.2205 300.835 83.2604 301.736 84.1298C302.295 84.6562 303.012 85.4697 303.507 86.1078C304.336 87.2005 306.546 90.4387 306.546 90.5742C306.546 90.6141 306.378 90.7816 306.179 90.9491C305.812 91.2442 305.804 91.2442 305.437 91.1485C304.464 90.8933 304.241 90.8055 304.201 90.6779C304.177 90.6061 304.049 89.9681 303.914 89.2662C303.778 88.5643 303.643 87.9741 303.603 87.9502C303.571 87.9263 302.965 87.4557 302.263 86.8974L300.987 85.8845L300.357 84.5126C300.014 83.7549 299.718 83.1089 299.703 83.069C299.663 82.9892 299.703 82.9892 300.301 83.1169ZM290.738 84.5605C291.152 84.6163 291.16 84.6243 291.886 85.4617C292.293 85.9323 292.628 86.3311 292.644 86.3471C292.66 86.371 292.955 86.1078 293.298 85.7648L293.92 85.1427L295.372 85.7409C296.512 86.2194 296.951 86.4428 297.413 86.8017C297.74 87.0489 298.052 87.3042 298.107 87.368C298.179 87.4557 298.426 88.7478 298.379 88.8036C298.371 88.8116 297.772 88.8834 297.047 88.9711L295.731 89.1226L294.502 88.8993L293.274 88.676L292.484 89.5055C291.862 90.1675 291.663 90.335 291.527 90.3031C291.432 90.2871 291.033 90.2472 290.65 90.2233L289.948 90.1675L289.43 89.6889C289.119 89.3938 288.919 89.1466 288.919 89.0349C288.919 88.9472 289.087 87.8704 289.294 86.6501L289.677 84.4249L289.996 84.4727C290.171 84.4967 290.506 84.5365 290.738 84.5605Z" fill="white"/>
<path d="M254.455 66.4236C254.176 66.6469 253.913 66.8543 253.881 66.8862C253.849 66.9181 254.04 67.2212 254.304 67.5562L254.782 68.1703H255.205C255.428 68.1623 256.21 68.0267 256.928 67.8672L258.236 67.5721L258.355 67.1414L258.475 66.7107L258.204 66.4874L257.933 66.2641L256.617 66.2561C255.58 66.2561 255.261 66.2322 255.125 66.1365C254.974 66.0248 254.926 66.0487 254.455 66.4236Z" fill="white"/>
<path d="M261.131 73.3065L260.573 73.801L260.836 74.3593C261.083 74.8857 261.091 74.9415 261.043 75.5636L260.987 76.2177L261.737 76.2416C262.343 76.2575 262.479 76.2894 262.463 76.3852C262.463 76.449 262.391 76.8079 262.319 77.1827L262.184 77.8607L261.314 78.4589C260.477 79.0331 260.445 79.065 260.493 79.2963C260.565 79.6313 260.573 79.6393 260.924 79.743C261.099 79.7988 261.243 79.8706 261.243 79.9105C261.243 79.9424 260.932 80.1737 260.557 80.4209C259.919 80.8277 259.871 80.8755 259.99 80.9952C260.11 81.1068 260.286 81.0909 262.136 80.7878C263.245 80.5964 264.234 80.4289 264.329 80.4129C264.433 80.389 264.76 80.1577 265.071 79.8945L265.621 79.416L265.103 78.6981C264.736 78.1957 264.545 77.8447 264.457 77.5337C264.377 77.2306 264.13 76.768 263.675 76.0821L263.005 75.0771L263.053 74.2237L263.101 73.3703L262.479 73.0832C262.136 72.9236 261.817 72.796 261.769 72.796C261.721 72.796 261.434 73.0273 261.131 73.3065Z" fill="white"/>
<path d="M258.459 76.0663C258.212 76.3773 258.172 76.3933 257.829 76.3773L257.454 76.3534L257.167 76.8798L256.88 77.4062L257.287 77.5577C257.622 77.6774 257.694 77.7332 257.694 77.8927C257.694 78.0921 257.646 78.124 256.968 78.2915C256.665 78.3713 256.641 78.4032 256.561 78.7541C256.513 78.9695 256.481 79.1449 256.497 79.1609C256.505 79.1768 257.048 79.113 257.702 79.0253C258.348 78.9296 258.978 78.8578 259.097 78.8578C259.225 78.8578 259.345 78.8179 259.377 78.7621C259.528 78.5228 260.182 76.2019 260.142 76.0264C260.118 75.8748 260.063 75.827 259.887 75.827C259.767 75.827 259.456 75.8031 259.201 75.7791L258.731 75.7313L258.459 76.0663Z" fill="white"/>
<path d="M272.505 90.0079C272.17 90.1355 272.154 90.1514 272.202 90.4226C272.226 90.5742 272.25 90.7736 272.25 90.8693C272.25 90.965 272.345 91.1723 272.457 91.3398L272.664 91.6509L272.361 91.8981L272.058 92.1534L272.154 93.3019C272.21 93.924 272.265 94.4584 272.281 94.4743C272.305 94.4903 272.569 94.4185 272.88 94.3228L273.446 94.1394V93.2062V92.281L273.119 91.9061L272.792 91.5392L272.959 91.3957C273.119 91.2681 273.127 91.2122 273.079 90.5582C273.047 90.1355 272.991 89.8643 272.935 89.8723C272.888 89.8723 272.688 89.9361 272.505 90.0079Z" fill="white"/>
<path d="M213.037 110.362C212.894 111.064 213.189 115.1 213.548 117.461C214.832 125.803 219.147 135.167 225.192 142.744C226.086 143.861 226.867 144.778 226.867 144.714C226.867 144.69 226.524 143.853 226.109 142.84C225.695 141.827 225.352 140.981 225.352 140.957C225.352 140.941 225.615 140.614 225.942 140.232L226.54 139.538L225.782 138.014C225.057 136.547 224.961 136.403 223.525 134.529C222.153 132.75 221.906 132.463 220.718 131.37L219.41 130.174L217.886 127.263C217.057 125.668 216.331 124.176 216.275 123.961C215.35 120.101 214.688 117.548 214.13 115.626C213.468 113.369 213.436 113.21 213.268 111.678C213.141 110.482 213.077 110.155 213.037 110.362Z" fill="white"/>
<defs>
<linearGradient id="paint0_linear_328_135" x1="261.25" y1="0.00012207" x2="261.25" y2="397.5" gradientUnits="userSpaceOnUse">
<stop stop-color="#106E56"/>
<stop offset="0.59375" stop-color="#0D846C"/>
<stop offset="1" stop-color="#10977D"/>
</linearGradient>
<clipPath id="clip0_328_135">
<rect width="23" height="23" fill="white" transform="matrix(-1 0 0 1 210 273)"/>
</clipPath>
<clipPath id="clip1_328_135">
<rect width="23" height="23" fill="white" transform="matrix(-1 0 0 1 239.765 273)"/>
</clipPath>
<clipPath id="clip2_328_135">
<rect width="23" height="23" fill="white" transform="matrix(-1 0 0 1 269.529 273)"/>
</clipPath>
<clipPath id="clip3_328_135">
<rect width="23" height="23" fill="white" transform="matrix(-1 0 0 1 299.294 273)"/>
</clipPath>
<clipPath id="clip4_328_135">
<rect width="23" height="23" fill="white" transform="matrix(-1 0 0 1 329.059 273)"/>
</clipPath>
</defs>
</svg>
