<svg id="Слой_1" data-name="Слой 1" xmlns="http://www.w3.org/2000/svg" xmlns:xlink="http://www.w3.org/1999/xlink" viewBox="0 0 1000 1000"><defs><style>.cls-1,.cls-20,.cls-21,.cls-22{fill:none;}.cls-2{fill:url(#Безымянный_градиент_10);}.cls-3{clip-path:url(#clip-path);}.cls-4{fill:url(#linear-gradient);}.cls-5{fill:url(#linear-gradient-2);}.cls-6{fill:url(#linear-gradient-3);}.cls-7{fill:#fff;}.cls-8{fill:#508d2b;}.cls-9{fill:url(#linear-gradient-4);}.cls-10{fill:url(#linear-gradient-5);}.cls-11{fill:url(#linear-gradient-6);}.cls-12{fill:url(#linear-gradient-7);}.cls-13{fill:url(#linear-gradient-8);}.cls-14{fill:url(#linear-gradient-9);}.cls-15{fill:url(#linear-gradient-10);}.cls-16{fill:url(#Безымянный_градиент_165);}.cls-17{fill:#e21b1f;}.cls-18{fill:#661c1f;}.cls-19{fill:#e7706d;}.cls-20{stroke:#e7706d;}.cls-20,.cls-21,.cls-22{stroke-miterlimit:10;}.cls-21{stroke:#927318;stroke-width:6px;}.cls-22{stroke:#f1cb77;stroke-width:3px;}</style><linearGradient id="Безымянный_градиент_10" x1="187.03" y1="501.93" x2="786.12" y2="501.93" gradientUnits="userSpaceOnUse"><stop offset="0" stop-color="#232d2c"/><stop offset="0.17" stop-color="#273130"/><stop offset="0.33" stop-color="#333d3c"/><stop offset="0.5" stop-color="#475150"/><stop offset="0.52" stop-color="#4a5453"/><stop offset="0.52" stop-color="#485251"/><stop offset="0.58" stop-color="#374140"/><stop offset="0.64" stop-color="#2c3635"/><stop offset="0.74" stop-color="#252f2e"/><stop offset="1" stop-color="#232d2c"/></linearGradient><clipPath id="clip-path"><rect class="cls-1" x="131.09" y="161.01" width="640.6" height="681.84" rx="81.53"/></clipPath><linearGradient id="linear-gradient" x1="286.57" y1="795.15" x2="613.86" y2="795.15" gradientTransform="translate(116.94 -118.69) rotate(-7.64)" gradientUnits="userSpaceOnUse"><stop offset="0.38" stop-color="#4275bd"/><stop offset="0.51" stop-color="#3f6fb5"/><stop offset="0.72" stop-color="#355e9f"/><stop offset="0.97" stop-color="#26427a"/><stop offset="1" stop-color="#243f76"/></linearGradient><linearGradient id="linear-gradient-2" x1="590" y1="881.58" x2="399.66" y2="821.47" gradientTransform="translate(116.94 -118.69) rotate(-7.64)" gradientUnits="userSpaceOnUse"><stop offset="0.04" stop-color="#dd5353"/><stop offset="0.32" stop-color="#dc5050"/><stop offset="0.52" stop-color="#d84747"/><stop offset="0.68" stop-color="#d23838"/><stop offset="0.83" stop-color="#c92222"/><stop offset="0.97" stop-color="#be0606"/><stop offset="1" stop-color="#b00"/></linearGradient><linearGradient id="linear-gradient-3" x1="350.3" y1="682.25" x2="562.01" y2="856.61" gradientTransform="translate(116.94 -118.69) rotate(-7.64)" gradientUnits="userSpaceOnUse"><stop offset="0.14" stop-color="#fff"/><stop offset="0.36" stop-color="#f0f0f0"/><stop offset="0.78" stop-color="#c7c7c7"/><stop offset="1" stop-color="#b0b0b0"/></linearGradient><linearGradient id="linear-gradient-4" x1="232.7" y1="654.86" x2="346.68" y2="778.24" xlink:href="#linear-gradient-3"/><linearGradient id="linear-gradient-5" x1="-533.03" y1="847.26" x2="395.51" y2="847.26" xlink:href="#linear-gradient"/><linearGradient id="linear-gradient-6" x1="-533.03" y1="864.21" x2="395.51" y2="864.21" xlink:href="#linear-gradient"/><linearGradient id="linear-gradient-7" x1="-495.38" y1="915.21" x2="389.94" y2="915.21" xlink:href="#linear-gradient-2"/><linearGradient id="linear-gradient-8" x1="-495.38" y1="887.1" x2="389.94" y2="887.1" xlink:href="#linear-gradient-2"/><linearGradient id="linear-gradient-9" x1="-38.99" y1="595.18" x2="-143.68" y2="879.66" xlink:href="#linear-gradient-3"/><linearGradient id="linear-gradient-10" x1="228.36" y1="693.56" x2="123.67" y2="978.04" xlink:href="#linear-gradient-3"/><linearGradient id="Безымянный_градиент_165" x1="147.17" y1="485.94" x2="825.98" y2="485.94" gradientUnits="userSpaceOnUse"><stop offset="0.01" stop-color="#9a6e24"/><stop offset="0.49" stop-color="#f8e494"/><stop offset="0.56" stop-color="#f1dc8c"/><stop offset="0.69" stop-color="#e0c677"/><stop offset="0.84" stop-color="#c2a254"/><stop offset="1" stop-color="#9c7226"/></linearGradient></defs><path class="cls-2" d="M486.58,875.71C837.63,761.52,783.05,262.34,783.05,262.34,566.36,250.48,486.58,128.16,486.58,128.16S406.8,250.48,190.1,262.34C190.1,262.34,135.53,761.52,486.58,875.71Z"/><g class="cls-3"><path class="cls-4" d="M506.86,614.69C514.7,585.53,758,575.31,830.8,585.57l-5,32.67c-71.84-12.37-313.18-1.73-316.57,31.39l-2.32-34.94"/><path class="cls-5" d="M509.18,649.63l2.18,32.88a6.77,6.77,0,0,1,0-.78,12.42,12.42,0,0,1,.51-2.38,12.78,12.78,0,0,1,2.71-4.06,31.45,31.45,0,0,1,6.78-5.19,76.41,76.41,0,0,1,12.44-5.76,174.2,174.2,0,0,1,19.61-5.83c2.73-.66,5.64-1.32,8.75-2s6.37-1.28,9.85-1.91,7.14-1.23,11-1.84,8-1.18,12.29-1.75c11.09-1.47,22.34-2.75,33.63-3.86s22.52-2,33.8-2.73,22.49-1.28,33.64-1.63,22.24-.53,33.16-.5c8.42,0,16.58.16,24.42.41,1.95-7.79,7.86-14.05,13.09-20.1,3.34-3.86,10.35-.76,10.11,4.19-.27,5.69.22,11.35.36,17,1.6.1,3.2.21,4.75.33,7.87.58,15.13,1.28,21.61,2.1s12.3,1.77,17.08,2.81l4.77-30.85C753.43,605.47,514.93,615.33,509.18,649.63Z"/><path class="cls-6" d="M504.46,578.45a6.9,6.9,0,0,1,.63-2,10.17,10.17,0,0,1,3-2.63,39.23,39.23,0,0,1,7.39-3.41A121.64,121.64,0,0,1,529,566.53c5.62-1.32,12.54-2.67,21.06-4q4.38-.69,9.36-1.39c3.31-.46,6.82-.91,10.54-1.37s7.63-.9,11.79-1.35,8.5-.88,13.11-1.32c11.83-1.11,23.82-2.12,35.85-3s24-1.66,36-2.31,24-1.2,35.84-1.62,23.72-.73,35.37-.9c10.21-.16,20.11-.21,29.53-.18s18.5.17,26.88.39,16.26.54,23.25.93,13.28.89,18.47,1.45l-5.22,33.73c-84.56-11.61-323.32,2.06-323.94,29.12l-2.4-36.24"/><path class="cls-7" d="M506.25,614.67c1.65,9.16,27.84,12.45,50.15,9.27,38.49-5.48,59.65,1.79,60,11.42l-.37,38.92c-.68-12.94-25-18.92-56.59-13.89-28.82,4.58-49.58-1.88-50.88-10.79l-2.33-34.93"/><path class="cls-8" d="M508.58,649.6c1.72,10.6,27.3,14.6,49,11.09,37.51-6.05,58.11,2.49,58.46,13.59l-.35,36.4a10.53,10.53,0,0,0-.31-2.69,11.36,11.36,0,0,0-1-2.55,13.26,13.26,0,0,0-1.63-2.38,17.68,17.68,0,0,0-2.27-2.21,29.62,29.62,0,0,0-9-4.81,55.47,55.47,0,0,0-11.86-2.58,88.32,88.32,0,0,0-14.06-.38A118.1,118.1,0,0,0,559.84,695a88.69,88.69,0,0,1-12.67,1.42,79.91,79.91,0,0,1-12.09-.39,58.24,58.24,0,0,1-10.56-2.09,33,33,0,0,1-8.17-3.65,16.45,16.45,0,0,1-2.33-1.8,11.93,11.93,0,0,1-1.71-1.91,8.57,8.57,0,0,1-1.08-2,7.18,7.18,0,0,1-.45-2.07l-2.2-32.87"/><path class="cls-9" d="M503.83,578.44a3,3,0,0,0,.42,1.31,5.23,5.23,0,0,0,1.1,1.26,10.68,10.68,0,0,0,1.79,1.2,20.62,20.62,0,0,0,2.46,1.1,47.9,47.9,0,0,0,8.71,2.2,98.26,98.26,0,0,0,11.34,1.16c4.13.2,8.52.22,13,0s9.14-.56,13.7-1.14c5.91-.75,11.62-1.24,17-1.49s10.49-.25,15.17,0a95.48,95.48,0,0,1,12.82,1.45,41.73,41.73,0,0,1,9.74,2.94,17.54,17.54,0,0,1,2.47,1.38,10.2,10.2,0,0,1,1.78,1.51,5.87,5.87,0,0,1,1.07,1.63,4.26,4.26,0,0,1,.35,1.74l-.39,40.64c-.71-11.22-25.69-16.24-58.09-11.69-29.62,4.16-50.84-1.3-52.08-9l-2.42-36.23"/><path class="cls-10" d="M347.29,689.79c-37.09,3.33-72.76,7.72-107.15,12.86C251,715,267.21,723,279.8,733.47c3.55,2.95,7,6,10.42,9.1,20.88-3,42.22-5.63,64.15-7.79,155-15.27,250-26.94,262.43-60.33l.4-39C605.13,664.65,507.18,675.46,347.29,689.79Z"/><path class="cls-11" d="M122.12,768.24c-.15-.39-.32-.78-.46-1.17a4,4,0,0,1,1.6-5.18c.32-2.6.66-5.19,1.07-7.76l0-1.11a4.69,4.69,0,0,1,.69-2.57,73.73,73.73,0,0,1,1.89-7.55c-.11-6.52-.34-13-.62-19.56q-18.75,4-36.78,8.31v54q16.29-4.73,33.28-9.21a5.22,5.22,0,0,1-.92-3A45.24,45.24,0,0,1,122.12,768.24Z"/><path class="cls-12" d="M126.53,778.92a6.54,6.54,0,0,1-3.83-2.62q-17,4.46-33.22,9.16V836q8.2-3.09,16.86-6.2c11.58-4.16,23.7-8.33,36.19-12.36l.65-.21C137.12,804.71,131.82,791.82,126.53,778.92Z"/><path class="cls-13" d="M355.66,734.65c-22.38,2.21-44.15,4.9-65.41,7.94,11.33,10.25,22.22,21,34.43,30.29a21,21,0,0,1,5.88,6.8l12.49-1.35,20.35-2.18c20.79-2.22,41.2-4.39,60.94-6.67,19.57-2.26,38.46-4.61,56.33-7.19,17.67-2.55,34.29-5.31,49.5-8.4a388,388,0,0,0,40.27-10.16c4.27-1.37,8.3-2.79,12.06-4.27s7.21-3,10.41-4.56a85.67,85.67,0,0,0,8.66-4.86,55.31,55.31,0,0,0,6.85-5.14c1.35-1.21,2.52-2.41,6-7.19.66-1.17,1.15-2.34,2-6.85l.37-36.41C608.56,709.76,485.72,721.85,355.66,734.65Z"/><path class="cls-14" d="M123.58,679.35c0-.13,0-.25,0-.37a5.1,5.1,0,0,1,1.4-4.21c-.22-1.51-.44-3-.69-4.54a6.2,6.2,0,0,1,.12-2.7c-11.79,2.21-23.45,4.52-34.88,6.88h0v57.34q18-4.31,36.78-8.35c-.64-14.67-1.63-29.32-2.67-44A.28.28,0,0,0,123.58,679.35Z"/><path class="cls-15" d="M615.47,599.31c-.72.78-1.62,1.58-6.54,4.8a68.65,68.65,0,0,1-7.47,3.49c-2.84,1.15-6,2.26-9.48,3.34s-7.31,2.16-11.4,3.19-8.56,2-13.26,3c-12.92,2.7-27.83,5.16-44.35,7.44-16.78,2.33-35.13,4.46-54.66,6.48-19.76,2-40.65,3.94-62.32,5.79-21.87,1.87-44.49,3.69-67.54,5.55l-22.59,1.82q-11.43.91-23,1.87l-23.16,1.95c-7.74.66-15.48,1.33-23.17,2q-14.2,1.27-28.34,2.93c-4,.47-8,1-11.95,1.55a48.8,48.8,0,0,1,10.38,10.19c9.11,11.39,13.32,26,22.72,37.09.24.28.51.53.76.8,34-5.1,69.25-9.45,105.82-12.73,160.29-14.37,258.52-25.21,271.25-54.42l.41-40.66C617.6,595.54,617.42,596.27,615.47,599.31Z"/></g><path class="cls-16" d="M486.58,128.16s79.78,122.32,296.47,134.18c0,0,54.58,499.18-296.47,613.37C135.53,761.52,190.1,262.34,190.1,262.34c216.7-11.86,296.48-134.18,296.48-134.18m-.64-73.85-32.62,52c-1.47,2.11-19.87,27.7-59.77,54.08-55.79,36.89-125,57.84-205.62,62.25l-33.73,1.85L150.53,258c-.59,5.36-14,132.89,17.26,276.65,18.7,86,49.59,160,91.81,220,54,76.7,126.23,130.18,214.67,159l12.31,4,12.31-4c88.44-28.77,160.67-82.25,214.67-159,42.22-60,73.11-134,91.8-220C836.62,390.91,823.22,263.38,822.63,258L819,224.44l-33.73-1.85C682.45,217,614.71,184.31,576,157.91s-55.9-51.26-56.06-51.5l-34-52.1Z"/><polygon class="cls-17" points="401.91 496.07 428.36 398.45 349.58 335.02 450.6 330.01 486.58 235.49 522.56 330.01 623.58 335.02 544.8 398.45 571.25 496.07 486.58 440.75 401.91 496.07"/><polygon class="cls-18" points="486.58 382.02 486.58 239.17 521.64 331.27 486.58 382.02"/><polygon class="cls-18" points="486.58 382.02 451.51 331.27 353.08 336.16 486.58 382.02"/><polygon class="cls-18" points="486.58 382.02 620.08 336.16 543.32 397.97 486.58 382.02"/><polygon class="cls-18" points="486.58 382.02 569.08 493.09 486.58 439.19 486.58 382.02"/><polygon class="cls-18" points="486.58 382.02 404.07 493.09 429.84 397.97 486.58 382.02"/><path class="cls-19" d="M401.91,496.07l26.44-97.62L349.58,335l101-5,36-94.52,36,94.52,101,5L544.8,398.45l26.45,97.62-84.67-55.32Zm84.67-58.45,80.34,52.49-25.09-92.63.66-.53,74.08-59.65-95.85-4.76-34.14-89.69-34.15,89.69-95.84,4.76,74.74,60.18-.22.83-24.87,91.8Z"/><polyline class="cls-20" points="486.58 239.17 486.58 382.02 616.61 337.41"/><path class="cls-21" d="M605.31,363.05a119.73,119.73,0,0,1-31.86,103.78"/><path class="cls-21" d="M511.55,266.55a119.72,119.72,0,0,1,79.53,57.34"/><path class="cls-21" d="M383.4,324.9a119.74,119.74,0,0,1,80-58.33"/><path class="cls-21" d="M542,490.54a119.76,119.76,0,0,1-112.86-2.06"/><path class="cls-21" d="M401.26,467.1A119.72,119.72,0,0,1,370,362.35"/><path class="cls-22" d="M511.55,266.55a119.72,119.72,0,0,1,79.53,57.34"/><path class="cls-22" d="M383.4,324.9a119.74,119.74,0,0,1,80-58.33"/><path class="cls-22" d="M401.26,467.1A119.72,119.72,0,0,1,370,362.35"/><path class="cls-22" d="M542,490.14a119.76,119.76,0,0,1-112.86-2.06"/><path class="cls-22" d="M605.31,363.05a119.73,119.73,0,0,1-31.86,103.78"/></svg>