<svg width="511" height="398" viewBox="0 0 511 398" fill="none" xmlns="http://www.w3.org/2000/svg">
<path d="M182 158C148.873 157.231 127.612 163.088 96.5324 152.294C65.4532 141.5 43.0651 144.124 8.47481 137L65.4532 186L1.99999 222C1.99999 222 72.3934 222.169 96.5324 234C120.671 245.831 146.384 242.015 182 244V158Z" fill="#0C735F" stroke="#095E4D"/>
<path d="M344 158C374.367 157.231 393.856 163.088 422.345 152.294C450.835 141.5 471.357 144.124 503.065 137L450.835 186L509 222C509 222 444.473 222.169 422.345 234C400.218 245.831 376.648 242.015 344 244V158Z" fill="#0C735F" stroke="#095E4D"/>
<path d="M108.597 72.5821C170.29 56.7307 204.728 40.743 256.287 4.09453C259.721 1.65311 264.325 1.59403 267.823 3.94312C316.451 36.5944 350.794 52.4429 414.431 72.3127C418.624 73.6221 421.5 77.4993 421.5 81.8926V213.607C421.5 214.858 421.259 216.116 420.798 217.279C389.697 295.685 353.307 334.731 266.908 394.14C263.905 396.205 259.946 396.466 256.708 394.794C169.501 349.768 134.642 309.796 101.583 217.141C101.201 216.069 101 214.919 101 213.781V82.3216C101 77.7265 104.147 73.7257 108.597 72.5821Z" fill="url(#paint0_linear_331_38)"/>
<path d="M135.606 94.7398C185.609 81.8279 214.016 68.6671 255.909 39.0763C259.343 36.6506 263.944 36.589 267.441 38.9225C306.971 65.2958 335.305 78.3362 386.915 94.4713C391.111 95.7831 394 99.664 394 104.06V211.466C394 212.72 393.759 213.98 393.294 215.145C367.607 279.587 337.519 311.88 266.511 360.66C263.514 362.718 259.585 362.978 256.354 361.308C184.708 324.272 155.882 291.182 128.586 215.007C128.201 213.933 128 212.781 128 211.64V104.488C128 99.8909 131.154 95.8893 135.606 94.7398Z" fill="#99CD41" fill-opacity="0.5"/>
<g clip-path="url(#clip0_331_38)">
<path d="M261.5 289.547C239.649 289.547 218.927 282.567 201.575 269.361C201.112 269.009 200.904 268.413 201.047 267.85C201.189 267.285 201.655 266.86 202.23 266.77C205.145 266.313 208.759 265.526 210.849 263.479C212.932 261.439 213.896 259.702 213.715 258.317C213.418 256.06 210.002 254.131 206.698 252.264C202.404 249.839 197.536 247.091 197.532 242.407C197.532 229.971 184.707 218.663 166.344 214.907C165.792 214.794 165.355 214.372 165.223 213.825C163.385 206.21 162.453 198.363 162.453 190.5C162.453 153.823 182.581 120.311 214.983 103.041C215.199 102.926 215.433 102.871 215.666 102.871C216.036 102.871 216.402 103.012 216.68 103.283C217.132 103.724 217.248 104.407 216.966 104.973C216.281 106.342 215.754 107.673 215.354 109.043C214.457 112.11 211.141 119.055 207.629 126.406C204.497 132.963 201.258 139.744 200.411 142.492C199.644 144.978 196.066 165.658 203.352 178.659C206.423 184.139 210.035 184.533 214.217 184.99C220.883 185.718 228.437 186.544 233.912 206.774C235.062 211.022 243.373 220.304 246.104 223.354C246.545 223.847 246.873 224.213 247.051 224.423C247.886 225.4 248.69 229.022 251.499 242.876C254.444 257.402 259.374 281.716 262.504 284.711C262.643 284.843 262.768 284.895 262.95 284.895C263.56 284.895 265.968 284.305 271.368 276.718L271.44 276.616C273.334 273.958 274.318 266.376 275.359 258.348C277.043 245.375 278.784 231.96 284.949 227.751C286.525 226.676 288.754 225.7 291.113 224.667C298.219 221.556 303.58 218.794 302.632 213.995C301.767 209.612 274.678 183.121 265.068 179.939C263.573 179.444 262.251 179.203 261.023 179.203C257.637 179.203 255.417 181.149 252.844 183.401C250.677 185.3 248.22 187.451 244.727 188.687C243.499 189.122 242.278 189.343 241.097 189.343C238.369 189.343 235.8 188.152 233.666 185.9C229.653 181.664 227.821 174.491 228.086 169.596C229.044 151.895 254.239 143.288 267.515 142.614C281.037 141.927 292.868 140.835 303.683 139.275C304.213 139.199 304.772 139.125 305.349 139.049C309.24 138.538 314.083 137.901 316.656 135.38C318.739 133.341 319.703 131.604 319.522 130.219C319.226 127.962 315.81 126.032 312.505 124.166C308.211 121.741 303.344 118.992 303.34 114.309C303.34 109.884 301.805 105.625 298.779 101.65C298.38 101.125 298.384 100.397 298.789 99.8765C299.072 99.5149 299.498 99.3173 299.935 99.3173C300.128 99.3173 300.322 99.3556 300.507 99.435C322.318 108.79 340.078 125.694 350.517 147.033C350.705 147.417 350.714 147.865 350.542 148.256C349.033 151.681 346.922 156.103 344.88 160.378C341.75 166.931 338.513 173.708 337.665 176.455C336.899 178.941 333.32 199.621 340.606 212.622C343.677 218.102 347.29 218.498 351.473 218.955C352.47 219.064 353.502 219.177 354.546 219.361C354.96 219.434 355.322 219.684 355.539 220.044C355.755 220.405 355.805 220.842 355.674 221.242C342.346 262.098 304.5 289.547 261.5 289.547Z" fill="#8AC3EA"/>
<path d="M299.936 100.771C321.445 109.997 338.968 126.728 349.213 147.673C345.371 156.396 337.72 171.355 336.278 176.028C335.257 179.339 331.95 200.146 339.341 213.333C343.556 220.857 348.906 219.84 354.294 220.792C341.548 259.861 304.825 288.094 261.501 288.094C239.308 288.094 218.849 280.682 202.455 268.205C205.915 267.662 209.565 266.769 211.866 264.516C224.004 252.627 198.992 251.693 198.985 242.406C198.985 228.816 185.377 217.317 166.635 213.484C164.856 206.113 163.906 198.418 163.906 190.5C163.906 153.168 184.871 120.737 215.667 104.323C214.987 105.68 214.405 107.11 213.96 108.636C212.27 114.421 200.82 136.24 199.023 142.064C198.002 145.375 194.694 166.182 202.084 179.369C210.61 194.583 223.772 174.869 232.51 207.153C233.928 212.393 244.562 223.744 245.947 225.366C247.821 227.562 256.065 280.561 261.5 285.761C261.926 286.169 262.417 286.348 262.95 286.348C266.368 286.348 271.528 278.996 272.624 277.459C277.756 270.255 276.229 235.461 285.768 228.951C291.152 225.278 305.773 222.401 304.057 213.714C302.985 208.284 275.015 181.703 265.525 178.561C263.821 177.996 262.341 177.751 261.024 177.751C253.992 177.751 251.572 184.725 244.243 187.318C243.136 187.71 242.087 187.89 241.098 187.89C233.252 187.89 229.165 176.554 229.538 169.675C230.415 153.454 253.941 144.758 267.591 144.064C279.712 143.448 291.872 142.446 303.891 140.713C308.207 140.092 314.35 139.674 317.674 136.419C329.813 124.53 304.801 123.596 304.793 114.309C304.793 109.442 303.038 104.846 299.936 100.771ZM299.937 97.8661C299.062 97.8661 298.209 98.2618 297.646 98.9841C296.833 100.025 296.825 101.481 297.624 102.531C300.453 106.248 301.888 110.21 301.888 114.309C301.893 119.841 307.152 122.812 311.792 125.432C314.505 126.964 317.881 128.87 318.083 130.409C318.137 130.82 318.007 132.027 315.641 134.343C313.414 136.524 308.838 137.126 305.16 137.609C304.577 137.686 304.013 137.761 303.476 137.838C292.706 139.39 280.919 140.478 267.442 141.163C261.114 141.484 251.202 143.583 242.36 148.509C232.52 153.99 227.083 161.255 226.636 169.517C226.354 174.723 228.316 182.365 232.612 186.899C235.026 189.448 237.961 190.795 241.097 190.795C242.444 190.795 243.827 190.547 245.212 190.057C248.967 188.727 251.535 186.478 253.801 184.494C256.6 182.043 258.315 180.656 261.023 180.656C262.092 180.656 263.266 180.873 264.611 181.317C268.359 182.558 276.628 188.768 285.678 197.137C295.499 206.218 300.742 212.734 301.211 214.301C301.922 218.026 297.015 220.496 290.528 223.336C288.106 224.397 285.817 225.399 284.129 226.552C277.425 231.127 275.642 244.871 273.917 258.162C272.99 265.309 271.938 273.411 270.256 275.772L270.182 275.876C266.213 281.455 264.033 282.932 263.248 283.314C262.641 282.355 261.111 279.124 258.539 268.618C256.562 260.545 254.628 251.004 252.92 242.587C249.761 227.004 249.182 224.683 248.155 223.479C247.971 223.266 247.636 222.889 247.184 222.385C240.01 214.372 236.016 208.992 235.312 206.394C232.784 197.053 229.706 191.087 225.624 187.617C221.79 184.357 217.85 183.926 214.373 183.546C210.28 183.099 207.322 182.776 204.617 177.949C198.123 166.361 200.582 146.858 201.797 142.92C202.613 140.274 205.828 133.542 208.938 127.032C212.475 119.626 215.817 112.63 216.746 109.451C217.122 108.164 217.618 106.913 218.263 105.622C218.829 104.491 218.597 103.125 217.692 102.243C217.136 101.701 216.404 101.418 215.664 101.418C215.199 101.418 214.729 101.529 214.298 101.759C181.424 119.282 161.001 153.286 161.001 190.501C161.001 198.478 161.946 206.44 163.811 214.166C164.076 215.261 164.949 216.105 166.053 216.331C174.741 218.108 182.507 221.708 187.919 226.468C193.258 231.163 196.08 236.675 196.08 242.406C196.084 247.939 201.344 250.909 205.983 253.529C208.696 255.061 212.073 256.968 212.274 258.506C212.328 258.917 212.199 260.124 209.832 262.442C208.037 264.2 204.706 264.912 202.005 265.335C200.854 265.515 199.924 266.365 199.638 267.493C199.353 268.622 199.769 269.811 200.695 270.516C218.302 283.916 239.329 290.999 261.5 290.999C283.128 290.999 303.734 284.233 321.088 271.431C338.095 258.887 350.532 241.687 357.056 221.693C357.317 220.893 357.218 220.019 356.785 219.298C356.353 218.576 355.629 218.078 354.8 217.931C353.709 217.738 352.654 217.623 351.633 217.511C347.539 217.063 344.58 216.74 341.874 211.912C335.381 200.325 337.84 180.822 339.054 176.883C339.871 174.238 343.084 167.51 346.191 161.004C348.238 156.719 350.355 152.288 351.872 148.842C352.217 148.059 352.199 147.163 351.823 146.394C341.232 124.744 323.211 107.593 301.081 98.1015C300.711 97.9427 300.322 97.8661 299.937 97.8661Z" fill="black"/>
<path d="M349.213 147.673C340.587 130.037 326.789 115.408 309.806 105.714C337.096 126.689 359.095 231.826 259.941 288.062C260.462 288.07 260.978 288.094 261.5 288.094C304.824 288.094 341.548 259.861 354.294 220.792C348.906 219.84 345.371 156.396 349.213 147.673Z" fill="#58A5DB"/>
<path d="M262.95 287.801C262.021 287.801 261.173 287.458 260.496 286.811C256.987 283.453 253.216 265.966 248.651 243.454C247.06 235.602 245.414 227.486 244.788 226.247C244.609 226.041 244.318 225.716 243.939 225.293C238.585 219.312 232.287 211.889 231.107 207.533C226.15 189.217 220.201 188.567 213.902 187.879C209.551 187.403 204.619 186.864 200.817 180.08C192.925 165.997 196.78 144.408 197.634 141.637C198.546 138.685 201.684 132.114 205.008 125.155C208.315 118.231 211.735 111.071 212.565 108.229C213.014 106.69 213.604 105.2 214.367 103.674C214.502 103.404 214.717 103.184 214.983 103.041C229.207 95.4608 245.293 91.4531 261.5 91.4531C275.035 91.4531 288.159 94.1396 300.508 99.4364C300.739 99.5352 300.94 99.6917 301.091 99.8916C304.511 104.384 306.246 109.235 306.246 114.309C306.248 117.297 310.156 119.503 313.935 121.638C317.86 123.854 321.919 126.146 322.403 129.842C322.714 132.214 321.5 134.705 318.69 137.457C315.424 140.656 310.048 141.362 305.729 141.93C305.164 142.005 304.617 142.077 304.098 142.151C293.194 143.723 281.276 144.824 267.664 145.516C255.685 146.124 231.835 154.092 230.988 169.753C230.762 173.925 232.363 180.302 235.776 183.904C237.369 185.586 239.159 186.438 241.097 186.438H241.099C241.948 186.437 242.843 186.273 243.759 185.949C246.726 184.899 248.864 183.027 250.931 181.216C253.691 178.799 256.545 176.299 261.024 176.299C262.567 176.299 264.189 176.588 265.982 177.182C271.261 178.93 281.301 187.127 288.937 194.215C291.545 196.635 304.596 208.936 305.483 213.433C306.958 220.901 298.818 224.465 292.278 227.329C290.047 228.306 287.939 229.229 286.587 230.152C281.497 233.626 279.692 247.541 278.241 258.723C277.104 267.485 276.122 275.052 273.807 278.302L273.735 278.404C269.234 284.727 265.707 287.801 262.95 287.801Z" fill="#C4DEB2"/>
<path d="M261.5 92.9058C275.148 92.9058 288.14 95.7119 299.936 100.771C303.038 104.846 304.793 109.442 304.793 114.309C304.801 123.596 329.813 124.53 317.674 136.42C314.35 139.675 308.207 140.092 303.891 140.714C291.872 142.446 279.712 143.449 267.591 144.065C253.941 144.758 230.415 153.454 229.538 169.675C229.165 176.555 233.251 187.891 241.098 187.891C242.087 187.891 243.137 187.71 244.243 187.319C251.572 184.725 253.991 177.751 261.024 177.752C262.341 177.752 263.822 177.997 265.525 178.561C275.015 181.704 302.985 208.284 304.057 213.714C305.773 222.401 291.151 225.278 285.768 228.952C276.229 235.462 277.756 270.255 272.624 277.459C271.528 278.996 266.369 286.348 262.95 286.348C262.417 286.348 261.926 286.169 261.5 285.761C256.065 280.561 247.82 227.562 245.947 225.366C244.562 223.744 233.928 212.394 232.51 207.154C223.772 174.869 210.61 194.583 202.084 179.37C194.694 166.183 198.002 145.375 199.023 142.065C200.82 136.24 212.269 114.421 213.96 108.636C214.405 107.11 214.988 105.681 215.667 104.323C229.333 97.0398 244.933 92.9058 261.5 92.9058ZM261.5 90.001C245.055 90.001 228.734 94.0673 214.3 101.76C213.768 102.043 213.338 102.485 213.068 103.024C212.266 104.629 211.645 106.198 211.171 107.822C210.374 110.551 206.827 117.976 203.697 124.529C200.35 131.536 197.188 138.155 196.246 141.208C195.368 144.057 191.41 166.265 199.55 180.79C203.717 188.227 209.276 188.835 213.743 189.322C216.771 189.653 219.386 189.939 221.862 192.044C224.963 194.681 227.529 199.872 229.705 207.912C230.964 212.562 237.395 220.161 242.856 226.261C243.134 226.571 243.364 226.828 243.535 227.021C244.19 228.76 245.8 236.704 247.228 243.742C252.747 270.965 255.99 284.51 259.491 287.86C260.443 288.771 261.639 289.252 262.95 289.252C266.301 289.252 269.991 286.166 274.917 279.245L274.988 279.144C277.392 275.77 278.337 269.257 279.68 258.909C281.019 248.59 282.853 234.457 287.405 231.35C288.644 230.504 290.692 229.608 292.86 228.658C296.067 227.254 299.701 225.663 302.463 223.494C306.189 220.568 307.684 217.088 306.907 213.15C305.982 208.47 294.722 197.604 289.923 193.149C286.164 189.659 273.359 178.094 266.437 175.802C264.494 175.159 262.723 174.846 261.023 174.845C255.997 174.845 252.796 177.65 249.972 180.123C247.917 181.922 245.977 183.621 243.272 184.579C242.512 184.848 241.781 184.984 241.097 184.984C239.551 184.984 238.155 184.304 236.828 182.903C233.809 179.716 232.224 173.754 232.436 169.831C233.235 155.081 256.198 147.551 267.736 146.965C281.393 146.272 293.354 145.166 304.304 143.588C304.817 143.514 305.357 143.443 305.916 143.37C310.45 142.773 316.092 142.031 319.704 138.494C322.864 135.4 324.217 132.508 323.842 129.652C323.263 125.237 318.883 122.764 314.648 120.372C311.39 118.532 307.699 116.448 307.697 114.306C307.697 108.985 305.812 103.696 302.246 99.011C301.942 98.612 301.541 98.2986 301.079 98.1005C288.549 92.7262 275.232 90.001 261.5 90.001Z" fill="black"/>
<path d="M354.295 222.245C354.211 222.245 354.126 222.238 354.041 222.223C353.092 222.055 352.109 221.948 351.159 221.844C346.807 221.368 341.875 220.829 338.073 214.043C330.181 199.961 334.035 178.37 334.89 175.6C335.801 172.649 338.938 166.081 342.259 159.128C344.292 154.872 346.393 150.471 347.884 147.086C348.112 146.569 348.619 146.231 349.184 146.22L349.213 146.219C349.767 146.219 350.274 146.535 350.518 147.034C357.173 160.636 360.547 175.26 360.547 190.5C360.547 200.99 358.908 211.334 355.675 221.243C355.477 221.849 354.914 222.245 354.295 222.245Z" fill="#C4DEB2"/>
<path d="M349.214 147.673C355.539 160.603 359.094 175.136 359.094 190.501C359.094 201.076 357.405 211.255 354.294 220.793C348.906 219.84 343.556 220.857 339.34 213.334C331.95 200.146 335.257 179.339 336.278 176.029C337.72 171.355 345.371 156.396 349.214 147.673ZM349.214 144.767L349.155 144.768C348.025 144.79 347.011 145.467 346.554 146.501C345.073 149.865 342.976 154.255 340.948 158.501C337.604 165.504 334.444 172.119 333.503 175.172C332.624 178.021 328.666 200.229 336.806 214.753C340.974 222.191 346.533 222.799 351 223.288C351.97 223.394 352.887 223.494 353.788 223.653C353.958 223.683 354.128 223.698 354.296 223.698C355.532 223.698 356.66 222.905 357.055 221.694C360.336 211.639 361.999 201.144 361.999 190.501C361.999 175.038 358.575 160.199 351.823 146.396C351.335 145.398 350.321 144.767 349.214 144.767Z" fill="black"/>
<path d="M202.455 269.658C202.139 269.658 201.83 269.555 201.575 269.361C183.45 255.566 170.54 235.844 165.224 213.825C165.107 213.342 165.246 212.832 165.59 212.475C165.867 212.189 166.246 212.032 166.636 212.032C166.732 212.032 166.83 212.042 166.927 212.062C186.97 216.161 200.438 228.356 200.438 242.406C200.44 245.394 204.348 247.601 208.127 249.735C212.052 251.952 216.111 254.244 216.596 257.939C216.906 260.311 215.692 262.802 212.882 265.555C210.204 268.178 206.023 269.116 202.68 269.64C202.605 269.652 202.53 269.658 202.455 269.658Z" fill="#C4DEB2"/>
<path d="M166.635 213.484C185.377 217.317 198.985 228.816 198.985 242.406C198.992 251.693 224.004 252.627 211.866 264.517C209.565 266.769 205.915 267.662 202.455 268.205C184.88 254.83 171.982 235.631 166.635 213.484ZM166.635 210.579C165.856 210.579 165.099 210.894 164.545 211.466C163.855 212.182 163.578 213.199 163.811 214.166C169.205 236.509 182.305 256.521 200.695 270.517C201.204 270.904 201.824 271.11 202.455 271.11C202.604 271.11 202.755 271.099 202.905 271.075C206.461 270.517 210.925 269.504 213.898 266.593C217.056 263.499 218.41 260.606 218.035 257.75C217.455 253.335 213.076 250.862 208.841 248.47C205.583 246.631 201.892 244.546 201.89 242.404C201.89 227.647 187.956 214.88 167.217 210.638C167.024 210.599 166.829 210.579 166.635 210.579Z" fill="black"/>
<path d="M240.211 142.364C251.967 142.364 261.497 132.835 261.497 121.079C261.497 109.323 251.967 99.7933 240.211 99.7933C228.456 99.7933 218.926 109.323 218.926 121.079C218.926 132.835 228.456 142.364 240.211 142.364Z" fill="#E9F2E2"/>
<path d="M213.914 159.246C219.683 159.246 224.36 154.57 224.36 148.801C224.36 143.032 219.683 138.355 213.914 138.355C208.145 138.355 203.469 143.032 203.469 148.801C203.469 154.57 208.145 159.246 213.914 159.246Z" fill="#E9F2E2"/>
</g>
<defs>
<linearGradient id="paint0_linear_331_38" x1="261.25" y1="0" x2="261.25" y2="397.5" gradientUnits="userSpaceOnUse">
<stop stop-color="#106E56"/>
<stop offset="0.59375" stop-color="#0D846C"/>
<stop offset="1" stop-color="#10977D"/>
</linearGradient>
<clipPath id="clip0_331_38">
<rect width="201" height="201" fill="white" transform="translate(161 90)"/>
</clipPath>
</defs>
</svg>
