<svg id="Слой_1" data-name="Слой 1" xmlns="http://www.w3.org/2000/svg" xmlns:xlink="http://www.w3.org/1999/xlink" viewBox="0 0 1000 1000"><defs><style>.cls-1,.cls-20,.cls-21,.cls-22{fill:none;}.cls-2{fill:url(#Безымянный_градиент_10);}.cls-3{clip-path:url(#clip-path);}.cls-4{fill:url(#linear-gradient);}.cls-5{fill:url(#linear-gradient-2);}.cls-6{fill:url(#linear-gradient-3);}.cls-27,.cls-7{fill:#fff;}.cls-8{fill:#508d2b;}.cls-9{fill:url(#linear-gradient-4);}.cls-10{fill:url(#linear-gradient-5);}.cls-11{fill:url(#linear-gradient-6);}.cls-12{fill:url(#linear-gradient-7);}.cls-13{fill:url(#linear-gradient-8);}.cls-14{fill:url(#linear-gradient-9);}.cls-15{fill:url(#linear-gradient-10);}.cls-16{fill:url(#Безымянный_градиент_165);}.cls-17{fill:#e21b1f;}.cls-18{fill:#661c1f;}.cls-19{fill:#e7706d;}.cls-20{stroke:#e7706d;stroke-width:0.5px;}.cls-20,.cls-21,.cls-22,.cls-26{stroke-miterlimit:10;}.cls-21{stroke:#927318;stroke-width:3px;}.cls-22{stroke:#f1cb77;}.cls-23{fill:#232d2c;}.cls-24{fill:#ceb05d;}.cls-25{opacity:0.59;}.cls-26,.cls-27{font-size:59.72px;font-family:DisketMono-Bold, Disket Mono;font-weight:700;}.cls-26{stroke:#000;stroke-width:2px;}</style><linearGradient id="Безымянный_градиент_10" x1="187.03" y1="501.93" x2="786.12" y2="501.93" gradientUnits="userSpaceOnUse"><stop offset="0" stop-color="#232d2c"/><stop offset="0.17" stop-color="#273130"/><stop offset="0.33" stop-color="#333d3c"/><stop offset="0.5" stop-color="#475150"/><stop offset="0.52" stop-color="#4a5453"/><stop offset="0.52" stop-color="#485251"/><stop offset="0.58" stop-color="#374140"/><stop offset="0.64" stop-color="#2c3635"/><stop offset="0.74" stop-color="#252f2e"/><stop offset="1" stop-color="#232d2c"/></linearGradient><clipPath id="clip-path"><rect class="cls-1" x="198.35" y="323.77" width="540.96" height="575.79" rx="81.53"/></clipPath><linearGradient id="linear-gradient" x1="283.41" y1="885.14" x2="559.79" y2="885.14" gradientTransform="translate(116.94 -118.69) rotate(-7.64)" gradientUnits="userSpaceOnUse"><stop offset="0.38" stop-color="#4275bd"/><stop offset="0.51" stop-color="#3f6fb5"/><stop offset="0.72" stop-color="#355e9f"/><stop offset="0.97" stop-color="#26427a"/><stop offset="1" stop-color="#243f76"/></linearGradient><linearGradient id="linear-gradient-2" x1="539.64" y1="958.13" x2="378.9" y2="907.37" gradientTransform="translate(116.94 -118.69) rotate(-7.64)" gradientUnits="userSpaceOnUse"><stop offset="0.04" stop-color="#dd5353"/><stop offset="0.32" stop-color="#dc5050"/><stop offset="0.52" stop-color="#d84747"/><stop offset="0.68" stop-color="#d23838"/><stop offset="0.83" stop-color="#c92222"/><stop offset="0.97" stop-color="#be0606"/><stop offset="1" stop-color="#b00"/></linearGradient><linearGradient id="linear-gradient-3" x1="337.22" y1="789.81" x2="516.01" y2="937.04" gradientTransform="translate(116.94 -118.69) rotate(-7.64)" gradientUnits="userSpaceOnUse"><stop offset="0.14" stop-color="#fff"/><stop offset="0.36" stop-color="#f0f0f0"/><stop offset="0.78" stop-color="#c7c7c7"/><stop offset="1" stop-color="#b0b0b0"/></linearGradient><linearGradient id="linear-gradient-4" x1="237.91" y1="766.67" x2="334.16" y2="870.86" xlink:href="#linear-gradient-3"/><linearGradient id="linear-gradient-5" x1="-408.71" y1="929.14" x2="375.4" y2="929.14" xlink:href="#linear-gradient"/><linearGradient id="linear-gradient-6" x1="-408.71" y1="943.46" x2="375.4" y2="943.46" xlink:href="#linear-gradient"/><linearGradient id="linear-gradient-7" x1="-376.91" y1="986.53" x2="370.7" y2="986.53" xlink:href="#linear-gradient-2"/><linearGradient id="linear-gradient-8" x1="-376.91" y1="962.79" x2="370.7" y2="962.79" xlink:href="#linear-gradient-2"/><linearGradient id="linear-gradient-9" x1="8.48" y1="716.28" x2="-79.92" y2="956.5" xlink:href="#linear-gradient-3"/><linearGradient id="linear-gradient-10" x1="234.25" y1="799.36" x2="145.84" y2="1039.59" xlink:href="#linear-gradient-3"/><linearGradient id="Безымянный_градиент_165" x1="147.17" y1="485.94" x2="825.98" y2="485.94" gradientUnits="userSpaceOnUse"><stop offset="0.01" stop-color="#9a6e24"/><stop offset="0.49" stop-color="#f8e494"/><stop offset="0.56" stop-color="#f1dc8c"/><stop offset="0.69" stop-color="#e0c677"/><stop offset="0.84" stop-color="#c2a254"/><stop offset="1" stop-color="#9c7226"/></linearGradient></defs><path class="cls-2" d="M486.58,875.71C837.63,761.52,783.05,262.34,783.05,262.34,566.36,250.48,486.58,128.16,486.58,128.16S406.8,250.48,190.1,262.34C190.1,262.34,135.53,761.52,486.58,875.71Z"/><g class="cls-3"><path class="cls-4" d="M515.67,706.88c6.62-24.63,212-33.26,273.56-24.59L785,709.87c-60.66-10.44-264.47-1.45-267.33,26.52l-2-29.51"/><path class="cls-5" d="M517.63,736.39l1.84,27.76q0-.33,0-.66a10.54,10.54,0,0,1,.43-2,10.71,10.71,0,0,1,2.29-3.42,26.17,26.17,0,0,1,5.72-4.39,64.5,64.5,0,0,1,10.51-4.86A146.12,146.12,0,0,1,555,743.88q3.46-.84,7.39-1.66t8.32-1.61q4.39-.78,9.31-1.55c3.28-.51,6.73-1,10.38-1.49,9.37-1.23,18.86-2.32,28.4-3.25s19-1.69,28.54-2.31,19-1.08,28.41-1.38,18.78-.44,28-.42c7.11,0,14,.14,20.62.35,1.65-6.58,6.64-11.87,11.06-17,2.82-3.26,8.73-.65,8.53,3.54-.23,4.8.19,9.58.31,14.38,1.35.08,2.7.17,4,.27,6.64.49,12.78,1.09,18.25,1.78s10.39,1.49,14.42,2.37l4-26.06C723.89,699.1,522.48,707.42,517.63,736.39Z"/><path class="cls-6" d="M513.64,676.28a5.2,5.2,0,0,1,.54-1.71,8.54,8.54,0,0,1,2.55-2.22,33.91,33.91,0,0,1,6.25-2.88,102,102,0,0,1,11.36-3.26c4.75-1.11,10.59-2.25,17.78-3.39,2.48-.39,5.11-.78,7.91-1.17s5.76-.78,8.9-1.16,6.45-.77,10-1.14,7.18-.75,11.07-1.12c10-.94,20.11-1.79,30.27-2.54s20.27-1.39,30.41-2,20.23-1,30.26-1.36,20-.61,29.86-.76c8.63-.13,17-.18,24.94-.15s15.63.14,22.7.33,13.74.45,19.64.78,11.21.75,15.59,1.23l-4.4,28.48c-71.41-9.8-273,1.74-273.56,24.59l-2-30.6"/><path class="cls-7" d="M515.15,706.86c1.4,7.74,23.52,10.52,42.36,7.84,32.5-4.63,50.37,1.51,50.68,9.63l-.31,32.87c-.58-10.93-21.12-16-47.79-11.73-24.34,3.87-41.87-1.58-43-9.11l-2-29.5"/><path class="cls-8" d="M517.12,736.36c1.46,8.95,23,12.33,41.39,9.37,31.67-5.11,49.07,2.1,49.37,11.47l-.3,30.74a9.09,9.09,0,0,0-.26-2.27,9.27,9.27,0,0,0-.83-2.15,10.66,10.66,0,0,0-1.38-2,14.71,14.71,0,0,0-1.91-1.86,25,25,0,0,0-7.61-4.06,46.12,46.12,0,0,0-10-2.18,75.32,75.32,0,0,0-11.87-.32,99.73,99.73,0,0,0-13.29,1.59,75.39,75.39,0,0,1-10.7,1.21,68.39,68.39,0,0,1-10.21-.33,48.6,48.6,0,0,1-8.91-1.78,27.34,27.34,0,0,1-6.9-3.07,15.57,15.57,0,0,1-2-1.52,10.21,10.21,0,0,1-1.44-1.62,7.74,7.74,0,0,1-.91-1.69,6.38,6.38,0,0,1-.38-1.75l-1.86-27.76"/><path class="cls-9" d="M513.11,676.27a2.34,2.34,0,0,0,.36,1.1,4.1,4.1,0,0,0,.93,1.07,8.32,8.32,0,0,0,1.5,1,15.31,15.31,0,0,0,2.09.93,40,40,0,0,0,7.35,1.86,83.58,83.58,0,0,0,9.58,1c3.48.17,7.19.18,11,0s7.71-.47,11.57-1c5-.64,9.81-1,14.37-1.26s8.85-.2,12.81,0a79.58,79.58,0,0,1,10.82,1.22,34.82,34.82,0,0,1,8.23,2.48,14.41,14.41,0,0,1,2.09,1.17,8.47,8.47,0,0,1,1.5,1.27,5.09,5.09,0,0,1,.9,1.38,3.46,3.46,0,0,1,.3,1.47l-.33,34.31c-.6-9.47-21.69-13.71-49.06-9.87-25,3.51-42.93-1.09-44-7.6l-2-30.59"/><path class="cls-10" d="M380.92,770.3c-31.32,2.81-61.45,6.52-90.48,10.86,9.2,10.42,22.86,17.19,33.49,26,3,2.49,5.91,5.07,8.8,7.69,17.63-2.52,35.65-4.75,54.17-6.58,130.91-12.89,211.16-22.75,221.61-50.95l.33-32.89C598.65,749.07,515.94,758.2,380.92,770.3Z"/><path class="cls-11" d="M190.54,840.88a29,29,0,0,1,1-8.31,95.53,95.53,0,0,1,3.23-17.42c-.1-5.51-.29-11-.53-16.52q-15.84,3.4-31.06,7v45.56q13.75-4,28.11-7.78A4.36,4.36,0,0,1,190.54,840.88Z"/><path class="cls-12" d="M212.8,869.18c-.62-1.07-1.19-2.15-1.74-3.25a5.36,5.36,0,0,1-6-4.76c-.73-5.92-1.45-11.83-2.34-17.72a4.83,4.83,0,0,1-5.18,2.13,5.82,5.82,0,0,1-6.25-2.23q-14.31,3.76-28,7.74V893.8q6.93-2.59,14.24-5.23c9.78-3.52,20-7,30.56-10.44,1.86-.61,3.75-1.2,5.63-1.79Q213.24,872.76,212.8,869.18Z"/><path class="cls-13" d="M388,808.18c-18.9,1.87-37.28,4.14-55.24,6.7,9.57,8.66,18.76,17.74,29.08,25.58a17.78,17.78,0,0,1,5,5.75l10.55-1.15,17.18-1.83c17.56-1.87,34.79-3.71,51.47-5.64,16.52-1.9,32.47-3.89,47.56-6.07,14.92-2.15,29-4.48,41.8-7.09a330,330,0,0,0,34-8.58q5.42-1.74,10.19-3.61c3.15-1.23,6.09-2.52,8.79-3.85a73.82,73.82,0,0,0,7.31-4.1,45.14,45.14,0,0,0,5.78-4.35c1.14-1,2.13-2,5.09-6.06.55-1,1-2,1.68-5.78l.31-30.76C601.55,787.16,497.82,797.37,388,808.18Z"/><path class="cls-14" d="M192,761.48c0-.1,0-.21,0-.31a4.36,4.36,0,0,1,1.18-3.55c-.18-1.28-.37-2.56-.58-3.84a5.38,5.38,0,0,1,.1-2.28c-9.95,1.87-19.8,3.82-29.45,5.81h0v48.42q15.21-3.63,31.06-7c-.54-12.39-1.37-24.76-2.25-37.13A.22.22,0,0,1,192,761.48Z"/><path class="cls-15" d="M607.38,693.9c-.6.66-1.36,1.33-5.52,4a56,56,0,0,1-6.3,2.95q-3.62,1.46-8,2.83c-2.95.92-6.17,1.82-9.63,2.69s-7.23,1.73-11.19,2.56c-10.91,2.27-23.51,4.35-37.45,6.28-14.18,2-29.67,3.77-46.16,5.47-16.69,1.72-34.33,3.33-52.63,4.89-18.47,1.58-37.57,3.12-57,4.68l-19.08,1.54L335,733.42q-9.76.8-19.56,1.64t-19.56,1.71q-12,1.07-23.93,2.47c-3.38.4-6.73.88-10.09,1.31a41.42,41.42,0,0,1,8.76,8.6c7.7,9.62,11.25,22,19.18,31.32.21.24.44.45.65.68,28.71-4.3,58.47-8,89.36-10.75,135.35-12.13,218.31-21.28,229.05-45.95l.35-34.34C609.19,690.71,609,691.33,607.38,693.9Z"/></g><path class="cls-16" d="M486.58,128.16s79.78,122.32,296.47,134.18c0,0,54.58,499.18-296.47,613.37C135.53,761.52,190.1,262.34,190.1,262.34c216.7-11.86,296.48-134.18,296.48-134.18m-.64-73.85-32.62,52c-1.47,2.11-19.87,27.7-59.77,54.08-55.79,36.89-125,57.84-205.62,62.25l-33.73,1.85L150.53,258c-.59,5.36-14,132.89,17.26,276.65,18.7,86,49.59,160,91.81,220,54,76.7,126.23,130.18,214.67,159l12.31,4,12.31-4c88.44-28.77,160.67-82.25,214.67-159,42.22-60,73.11-134,91.8-220C836.62,390.91,823.22,263.38,822.63,258L819,224.44l-33.73-1.85C682.45,217,614.71,184.31,576,157.91s-55.9-51.26-56.06-51.5l-34-52.1Z"/><polygon class="cls-17" points="421.76 408.07 442.01 333.34 381.71 284.79 459.03 280.95 486.58 208.59 514.13 280.95 591.45 284.79 531.15 333.34 551.39 408.07 486.58 365.73 421.76 408.07"/><polygon class="cls-18" points="486.58 320.77 486.58 211.41 513.42 281.92 486.58 320.77"/><polygon class="cls-18" points="486.58 320.77 459.74 281.92 384.39 285.66 486.58 320.77"/><polygon class="cls-18" points="486.58 320.77 588.77 285.66 530.01 332.97 486.58 320.77"/><polygon class="cls-18" points="486.58 320.77 549.74 405.79 486.58 364.53 486.58 320.77"/><polygon class="cls-18" points="486.58 320.77 423.42 405.79 443.15 332.97 486.58 320.77"/><path class="cls-19" d="M421.76,408.07,442,333.34l-60.3-48.55L459,281l27.55-72.36L514.12,281l77.33,3.84-60.3,48.55,20.24,74.73-64.81-42.35Zm64.82-44.74,61.5,40.18L528.87,332.6l.51-.41,56.71-45.66-73.37-3.64-26.14-68.66-26.14,68.66-73.37,3.64,57.22,46.07-.17.63-19,70.28Z"/><polyline class="cls-20" points="486.58 211.41 486.58 320.77 591.45 284.79"/><path class="cls-21" d="M577.47,306.24a92.59,92.59,0,0,1,1.36,15.81,91.22,91.22,0,0,1-25.75,63.64"/><path class="cls-21" d="M505.69,232.37a91.65,91.65,0,0,1,60.88,43.9"/><path class="cls-21" d="M407.59,277a91.65,91.65,0,0,1,61.24-44.65"/><path class="cls-21" d="M529,403.83a91.67,91.67,0,0,1-86.4-1.57"/><path class="cls-21" d="M421.27,385.89a91.22,91.22,0,0,1-25.49-63.38,92.2,92.2,0,0,1,1.54-16.81"/><path class="cls-22" d="M505.69,232.37a91.65,91.65,0,0,1,60.88,43.9"/><path class="cls-22" d="M407.59,277a91.65,91.65,0,0,1,61.24-44.65"/><path class="cls-22" d="M421.27,385.89a91.22,91.22,0,0,1-25.49-63.38,92.2,92.2,0,0,1,1.54-16.81"/><path class="cls-22" d="M529,403.53a91.71,91.71,0,0,1-86.4-1.58"/><path class="cls-22" d="M577.47,306.24a92.59,92.59,0,0,1,1.36,15.81,91.22,91.22,0,0,1-25.75,63.64"/><polygon class="cls-23" points="33.17 620.66 101.36 533.14 33.17 445.61 967.46 445.61 897.29 530.95 966.76 620.66 33.17 620.66"/><path class="cls-24" d="M948.41,454.61l-62.63,76.17,62.63,80.88H51.59l61.18-78.52L51.59,454.61H948.41m38.1-18H14.75l22.64,29.06L90,533.14,37.39,600.6,14.75,629.66H985.11l-22.47-29L908.8,531.12,962.31,466l24.2-29.43Z"/><g class="cls-25"><text class="cls-26" transform="translate(146.36 519.76)">Офицеры и Солдаты <tspan x="270.4" y="71.66">мира</tspan></text></g><text class="cls-27" transform="translate(146.36 519.76)">Офицеры и Солдаты <tspan x="270.4" y="71.66">мира</tspan></text></svg>