<svg width="1385" height="142" viewBox="0 0 1385 142" fill="none" xmlns="http://www.w3.org/2000/svg">
<rect x="622" y="71.0659" width="100" height="100" rx="10" transform="rotate(-45 622 71.0659)" fill="#8C1C28"/>
<path d="M0 71C0 69.3431 1.34315 68 3 68H626C627.657 68 629 69.3431 629 71V71C629 72.6569 627.657 74 626 74H316.957H2.99999C1.34314 74 0 72.6569 0 71V71Z" fill="#8C1C28"/>
<path d="M756 71C756 69.3431 757.343 68 759 68H1382C1383.66 68 1385 69.3431 1385 71V71C1385 72.6569 1383.66 74 1382 74H1072.96H759C757.343 74 756 72.6569 756 71V71Z" fill="#8C1C28"/>
</svg>
