<?xml version="1.0" encoding="utf-8"?>
<!-- Generator: Adobe Illustrator 24.3.0, SVG Export Plug-In . SVG Version: 6.00 Build 0)  -->
<svg version="1.1" id="Слой_1" xmlns="http://www.w3.org/2000/svg" xmlns:xlink="http://www.w3.org/1999/xlink" x="0px" y="0px"
	 viewBox="0 0 51 51" style="enable-background:new 0 0 51 51;" xml:space="preserve">
<style type="text/css">
	.st0{fill:none;stroke:#8C1C28;stroke-width:1;stroke-miterlimit:4;}
	.st1{fill:#8C1C28;}
	.st2{fill:none;stroke:#8C1C28;}
</style>
<rect x="7.9" y="7.9" transform="matrix(0.7071 -0.7071 0.7071 0.7071 -10.4553 25.2401)" class="st0" width="34.7" height="34.7"/>
<path class="st1" d="M38.4,25.1c0.2,0.2,0.2,0.5,0,0.7L35.2,29c-0.2,0.2-0.5,0.2-0.7,0c-0.2-0.2-0.2-0.5,0-0.7l2.8-2.8l-2.8-2.8
	c-0.2-0.2-0.2-0.5,0-0.7c0.2-0.2,0.5-0.2,0.7,0L38.4,25.1z M25,25h13v1H25V25z"/>
<circle class="st2" cx="12.1" cy="25.3" r="1.6"/>
<circle class="st2" cx="19" cy="25.3" r="2.3"/>
</svg>
