<svg width="51" height="51" viewBox="0 0 51 51" fill="none" xmlns="http://www.w3.org/2000/svg">
<rect x="-0.707107" width="34.6957" height="34.6957" transform="matrix(-0.707107 -0.707107 -0.707107 0.707107 49.2734 24.7407)" stroke="#8C1C28"/>
<path d="M12.1269 25.3536C11.9317 25.1583 11.9317 24.8417 12.1269 24.6464L15.3089 21.4645C15.5042 21.2692 15.8207 21.2692 16.016 21.4645C16.2113 21.6597 16.2113 21.9763 16.016 22.1716L13.1876 25L16.016 27.8284C16.2113 28.0237 16.2113 28.3403 16.016 28.5355C15.8207 28.7308 15.5042 28.7308 15.3089 28.5355L12.1269 25.3536ZM25.4805 25.5L12.4805 25.5L12.4805 24.5L25.4805 24.5L25.4805 25.5Z" fill="#8C1C28"/>
<circle r="1.57143" transform="matrix(-1 0 0 1 38.409 25.214)" stroke="#8C1C28"/>
<circle r="2.2619" transform="matrix(-1 0 0 1 31.5037 25.2141)" stroke="#8C1C28"/>
</svg>
