<svg width="528" height="90" viewBox="0 0 528 90" fill="none" xmlns="http://www.w3.org/2000/svg">
<path fill-rule="evenodd" clip-rule="evenodd" d="M264.337 28.144L264.873 69.6663L264.784 48.6165C264.625 42.705 264.842 37.3975 264.459 31.7762C264.539 33.2089 273.17 45.8546 274.6 49.2402C288.295 81.6631 265.831 82.4176 264.71 83.114L265.078 85.5123C304.02 74.8581 264.337 28.144 264.337 28.144Z" fill="#8C1C28" stroke="#8C1C28" stroke-width="1.06667" stroke-linecap="round" stroke-linejoin="round"/>
<path d="M285.382 64.1976C288.842 63.0386 288.263 56.664 281.579 60.7205" stroke="#8C1C28" stroke-width="1.06667" stroke-linecap="round" stroke-linejoin="round"/>
<path fill-rule="evenodd" clip-rule="evenodd" d="M363.916 1.91846C363.916 1.91846 376.755 4.7222 380.605 27.3243C384.703 51.3877 351.068 65.8702 358.723 61.4724C366.539 56.9823 355.756 37.9787 358.908 46.1741C362.061 54.3697 343.703 65.5701 343.703 65.5701C320.153 69.4602 297.09 80.5533 273.54 86.7235C273.54 86.7235 296.099 78.3564 302.166 78.1365C319.358 77.5134 360.207 92.0692 420.844 88.5178C439.609 87.4187 464.791 79.6393 464.791 79.6393C469.899 78.9053 473.405 79.4648 477.03 82.3711C477.03 82.3711 488.549 93.9086 502.62 84.8293C492.236 86.7416 491.308 79.7757 488.898 76.4975C486.487 73.2193 473.507 75.2684 473.507 75.2684C475.176 70.2145 508.739 62.9751 508.739 62.9751C508.739 62.9751 504.889 65.5275 516.713 67.2091C521.515 67.8921 519.947 62.0185 516.342 62.0185L525.428 59.9697C521.291 57.5886 518.128 54.0584 511.706 54.3697C511.706 54.3697 517.084 50.5449 511.15 47.4033C505.216 44.2617 500.395 51.2279 500.395 51.2279C500.395 51.2279 492.421 51.0913 478.699 50.8181C456.299 50.3722 424.182 71.4436 404.526 77.8634C384.869 84.2833 362.061 74.8585 362.061 74.8585C362.061 74.8585 376.883 76.2307 385.24 75.8146C408.492 74.6568 435.742 45.7219 432.526 43.8522C432.526 43.8522 412.919 59.0807 404.896 63.9311C385.24 75.8146 364.286 65.98 364.286 65.98C364.286 65.98 358.723 61.4724 367.068 58.8773C372.966 57.0431 389.676 50.9794 398.242 41.5548C405.528 33.537 389.249 17.7826 408.278 13.9334C407.351 10.1089 397.663 13.2557 397.663 13.2557C397.663 13.2557 393.232 13.9692 395.792 27.1299C396.083 28.1975 396.339 29.3063 396.552 30.466C396.24 29.2698 395.994 28.166 395.792 27.1299C389.246 3.04943 363.916 1.91846 363.916 1.91846ZM379.889 12.7174C417.232 34.4997 379.876 55.0323 371.159 54.7863C384.984 51.3723 388.134 14.6641 379.889 12.7174ZM484.529 55.6675C486.936 55.6907 508.939 56.927 510.434 57.3748C486.045 61.4314 458.203 75.1123 444.922 80.6597C428.67 87.4478 387.849 85.6275 388.427 85.1239C387.944 85.9646 421.995 76.0332 438.929 65.9128C452.232 57.9626 474.1 55.5667 484.529 55.6675Z" fill="#8C1C28"/>
<path d="M395.792 27.1299C393.232 13.9692 397.663 13.2557 397.663 13.2557C397.663 13.2557 407.351 10.1089 408.278 13.9334C389.249 17.7826 405.528 33.537 398.242 41.5548C389.676 50.9794 372.966 57.0431 367.068 58.8773C358.723 61.4724 364.286 65.98 364.286 65.98C364.286 65.98 385.24 75.8146 404.896 63.9311C412.919 59.0807 432.526 43.8522 432.526 43.8522C435.742 45.7219 408.492 74.6568 385.24 75.8146C376.883 76.2307 362.061 74.8585 362.061 74.8585C362.061 74.8585 384.869 84.2833 404.526 77.8634C424.182 71.4436 456.299 50.3722 478.699 50.8181C492.421 51.0913 500.395 51.2279 500.395 51.2279C500.395 51.2279 505.216 44.2617 511.15 47.4033C517.084 50.5449 511.706 54.3697 511.706 54.3697C518.128 54.0584 521.291 57.5886 525.428 59.9697L516.342 62.0185C519.947 62.0185 521.515 67.8921 516.713 67.2091C504.889 65.5275 508.739 62.9751 508.739 62.9751C508.739 62.9751 475.176 70.2145 473.507 75.2684C473.507 75.2684 486.487 73.2193 488.898 76.4975C491.308 79.7757 492.236 86.7416 502.62 84.8293C488.549 93.9086 477.03 82.3711 477.03 82.3711C473.405 79.4648 469.899 78.9053 464.791 79.6393C464.791 79.6393 439.609 87.4187 420.844 88.5178C360.207 92.0692 319.358 77.5134 302.166 78.1365C296.099 78.3564 273.54 86.7235 273.54 86.7235C297.09 80.5533 320.153 69.4602 343.703 65.5701C343.703 65.5701 362.061 54.3697 358.908 46.1741C355.756 37.9787 366.539 56.9823 358.723 61.4724C351.068 65.8702 384.703 51.3877 380.605 27.3243C376.755 4.7222 363.916 1.91846 363.916 1.91846C363.916 1.91846 389.246 3.04943 395.792 27.1299ZM395.792 27.1299C396.083 28.1975 396.339 29.3063 396.552 30.466C396.24 29.2698 395.994 28.166 395.792 27.1299ZM379.889 12.7174C417.232 34.4997 379.876 55.0323 371.159 54.7863C384.984 51.3723 388.134 14.6641 379.889 12.7174ZM484.529 55.6675C486.936 55.6907 508.939 56.927 510.434 57.3748C486.045 61.4314 458.203 75.1123 444.922 80.6597C428.67 87.4478 387.849 85.6275 388.427 85.1239C387.944 85.9646 421.995 76.0332 438.929 65.9128C452.232 57.9626 474.1 55.5667 484.529 55.6675Z" stroke="#8C1C28" stroke-width="1.06667"/>
<path fill-rule="evenodd" clip-rule="evenodd" d="M297.576 80.5206C297.576 80.5206 307.46 80.6859 316.458 82.742C320.806 83.7358 302.589 70.4055 297.576 80.5206Z" fill="#8C1C28" stroke="#8C1C28" stroke-width="1.06667"/>
<path fill-rule="evenodd" clip-rule="evenodd" d="M325.898 59.0786C288.397 60.141 269.385 81.6797 269.385 81.6797L264.796 85.4463C285.97 93.1871 323.931 71.7312 325.898 59.0786ZM321.758 61.7535C300.243 81.0915 277.555 87.6426 272.006 83.7129C272.006 83.7129 295.679 61.1678 321.758 61.7535Z" fill="#8C1C28" stroke="#8C1C28" stroke-width="1.06667"/>
<path d="M381.101 27.2055C381.101 25.545 375.331 19.0883 374.282 29.1373" stroke="#8C1C28" stroke-width="1.06667" stroke-linecap="round" stroke-linejoin="round"/>
<path d="M362.481 64.4875C362.481 64.4875 434.861 60.2378 423.06 32.8076" stroke="#8C1C28" stroke-width="1.06667" stroke-linecap="round" stroke-linejoin="round"/>
<path d="M422.692 53.4468C422.749 53.444 467.376 28.2045 440.314 18.7194C421.04 11.9638 424.367 34.1542 437.347 23.2269" stroke="#8C1C28" stroke-width="1.06667" stroke-linecap="round" stroke-linejoin="round"/>
<path d="M429.866 49.2549C429.866 49.2549 458.924 30.4773 459.043 21.4508C459.112 16.2168 464.231 28.3257 461.268 28.1438C464.531 26.1304 466.28 23.0029 473.692 24.0461C473.692 24.0461 459.469 32.7563 462.566 27.6346C467.87 18.8644 486.616 41.3811 463.716 35.8519" stroke="#8C1C28" stroke-width="1.06667" stroke-linecap="round" stroke-linejoin="round"/>
<path d="M468.314 31.0122C469.056 31.0122 474.248 33.3343 469.056 36.7491" stroke="#8C1C28" stroke-width="1.06667" stroke-linecap="round" stroke-linejoin="round"/>
<path fill-rule="evenodd" clip-rule="evenodd" d="M361.695 66.9985C361.695 66.9985 386.083 70.2824 399.982 66.2258C413.881 62.1693 443.777 43.2386 451.907 48.4542C460.036 53.6698 447.186 43.0454 439.843 44.9771C426.151 48.5793 404.703 64.8736 404.703 64.8736C390.367 68.7656 376.031 66.8448 361.695 66.9985Z" fill="#8C1C28" stroke="#8C1C28" stroke-width="1.06667"/>
<path d="M468.69 86.8952C468.69 86.8952 485.211 85.7362 468.428 78.5889" stroke="#8C1C28" stroke-width="1.06667" stroke-linecap="round" stroke-linejoin="round"/>
<path fill-rule="evenodd" clip-rule="evenodd" d="M448.744 35.557C448.744 35.557 460.282 28.4097 465.79 31.1141C471.297 33.8184 471.297 32.8526 471.297 32.8526C473.929 32.0771 464.392 24.6105 457.398 27.4438C454.455 28.6359 448.744 35.557 448.744 35.557Z" fill="#8C1C28" stroke="#8C1C28" stroke-width="1.06667"/>
<path fill-rule="evenodd" clip-rule="evenodd" d="M263.663 27.1475L263.127 68.6697L263.216 47.6199C263.375 41.7085 263.158 36.4009 263.541 30.7796C263.461 32.2123 254.83 44.8581 253.4 48.2436C239.705 80.6665 262.169 81.421 263.29 82.1174L262.922 84.5157C223.98 73.8616 263.663 27.1475 263.663 27.1475Z" fill="#8C1C28" stroke="#8C1C28" stroke-width="1.06667" stroke-linecap="round" stroke-linejoin="round"/>
<path d="M242.618 63.201C239.158 62.042 239.737 55.6674 246.421 59.724" stroke="#8C1C28" stroke-width="1.06667" stroke-linecap="round" stroke-linejoin="round"/>
<path fill-rule="evenodd" clip-rule="evenodd" d="M164.084 0.921875C164.084 0.921875 151.245 3.72562 147.395 26.3277C143.297 50.3911 176.932 64.8737 169.277 60.4758C161.461 55.9857 172.244 36.9821 169.092 45.1776C165.939 53.3731 184.297 64.5736 184.297 64.5736C207.847 68.4636 230.91 79.5568 254.46 85.7269C254.46 85.7269 231.901 77.3598 225.834 77.1399C208.642 76.5169 167.793 91.0726 107.156 87.5212C88.3912 86.4222 63.2088 78.6427 63.2088 78.6427C58.101 77.9087 54.5951 78.4682 50.9699 81.3745C50.9699 81.3745 39.4505 92.912 25.3797 83.8328C35.764 85.7451 36.6917 78.7791 39.1024 75.5009C41.513 72.2227 54.4929 74.2718 54.4929 74.2718C52.824 69.2179 19.2609 61.9785 19.2609 61.9785C19.2609 61.9785 23.1105 64.5309 11.2871 66.2126C6.48549 66.8955 8.05259 61.0219 11.6578 61.0219L2.5718 58.9731C6.70944 56.592 9.87164 53.0618 16.2937 53.3731C16.2937 53.3731 10.9163 49.5483 16.8502 46.4067C22.7841 43.2651 27.6048 50.2314 27.6048 50.2314C27.6048 50.2314 35.5792 50.0947 49.3013 49.8215C71.7007 49.3756 103.818 70.4471 123.474 76.8669C143.131 83.2867 165.939 73.8619 165.939 73.8619C165.939 73.8619 151.117 75.2341 142.76 74.818C119.508 73.6602 92.2583 44.7253 95.4743 42.8556C95.4743 42.8556 115.081 58.0841 123.104 62.9346C142.76 74.818 163.714 64.9835 163.714 64.9835C163.714 64.9835 169.277 60.4758 160.932 57.8808C155.034 56.0465 138.324 49.9829 129.758 40.5583C122.472 32.5404 138.751 16.786 119.722 12.9369C120.649 9.11231 130.337 12.2591 130.337 12.2591C130.337 12.2591 134.768 12.9726 132.208 26.1333C131.917 27.201 131.661 28.3097 131.448 29.4695C131.76 28.2732 132.006 27.1694 132.208 26.1333C138.754 2.05285 164.084 0.921875 164.084 0.921875ZM148.111 11.7208C110.768 33.5031 148.124 54.0357 156.841 53.7898C143.016 50.3757 139.866 13.6675 148.111 11.7208ZM43.4707 54.6709C41.064 54.6941 19.0606 55.9304 17.566 56.3783C41.9546 60.4349 69.7972 74.1157 83.0785 79.6631C99.3301 86.4512 140.151 84.6309 139.573 84.1273C140.056 84.968 106.005 75.0367 89.0708 64.9162C75.7678 56.9661 53.9003 54.5701 43.4707 54.6709Z" fill="#8C1C28"/>
<path d="M132.208 26.1333C134.768 12.9726 130.337 12.2591 130.337 12.2591C130.337 12.2591 120.649 9.11231 119.722 12.9369C138.751 16.786 122.472 32.5404 129.758 40.5583C138.324 49.9829 155.034 56.0465 160.932 57.8808C169.277 60.4758 163.714 64.9835 163.714 64.9835C163.714 64.9835 142.76 74.818 123.104 62.9346C115.081 58.0841 95.4743 42.8556 95.4743 42.8556C92.2583 44.7253 119.508 73.6602 142.76 74.818C151.117 75.2341 165.939 73.8619 165.939 73.8619C165.939 73.8619 143.131 83.2867 123.474 76.8669C103.818 70.4471 71.7007 49.3756 49.3013 49.8215C35.5792 50.0947 27.6048 50.2314 27.6048 50.2314C27.6048 50.2314 22.7841 43.2651 16.8502 46.4067C10.9163 49.5483 16.2937 53.3731 16.2937 53.3731C9.87164 53.0618 6.70944 56.592 2.5718 58.9731L11.6578 61.0219C8.05259 61.0219 6.48549 66.8955 11.2871 66.2126C23.1105 64.5309 19.2609 61.9785 19.2609 61.9785C19.2609 61.9785 52.824 69.2179 54.4929 74.2718C54.4929 74.2718 41.513 72.2227 39.1024 75.5009C36.6917 78.7791 35.764 85.7451 25.3797 83.8328C39.4505 92.912 50.9699 81.3745 50.9699 81.3745C54.5951 78.4682 58.101 77.9087 63.2088 78.6427C63.2088 78.6427 88.3912 86.4222 107.156 87.5212C167.793 91.0726 208.642 76.5169 225.834 77.1399C231.901 77.3598 254.46 85.7269 254.46 85.7269C230.91 79.5568 207.847 68.4636 184.297 64.5736C184.297 64.5736 165.939 53.3731 169.092 45.1776C172.244 36.9821 161.461 55.9857 169.277 60.4758C176.932 64.8737 143.297 50.3911 147.395 26.3277C151.245 3.72562 164.084 0.921875 164.084 0.921875C164.084 0.921875 138.754 2.05285 132.208 26.1333ZM132.208 26.1333C131.917 27.201 131.661 28.3097 131.448 29.4695C131.76 28.2732 132.006 27.1694 132.208 26.1333ZM148.111 11.7208C110.768 33.5031 148.124 54.0357 156.841 53.7898C143.016 50.3757 139.866 13.6675 148.111 11.7208ZM43.4707 54.6709C41.064 54.6941 19.0606 55.9304 17.566 56.3783C41.9546 60.4349 69.7972 74.1157 83.0785 79.6631C99.3301 86.4512 140.151 84.6309 139.573 84.1273C140.056 84.968 106.005 75.0367 89.0708 64.9162C75.7678 56.9661 53.9003 54.5701 43.4707 54.6709Z" stroke="#8C1C28" stroke-width="1.06667"/>
<path fill-rule="evenodd" clip-rule="evenodd" d="M230.424 79.524C230.424 79.524 220.54 79.6893 211.542 81.7455C207.194 82.7392 225.411 69.4089 230.424 79.524Z" fill="#8C1C28" stroke="#8C1C28" stroke-width="1.06667"/>
<path fill-rule="evenodd" clip-rule="evenodd" d="M202.102 58.082C239.603 59.1444 258.615 80.6831 258.615 80.6831L263.204 84.4497C242.03 92.1905 204.069 70.7347 202.102 58.082ZM206.242 60.7569C227.757 80.095 250.445 86.646 255.994 82.7163C255.994 82.7163 232.321 60.1712 206.242 60.7569Z" fill="#8C1C28" stroke="#8C1C28" stroke-width="1.06667"/>
<path d="M146.899 26.209C146.899 24.5484 152.669 18.0918 153.718 28.1407" stroke="#8C1C28" stroke-width="1.06667" stroke-linecap="round" stroke-linejoin="round"/>
<path d="M165.519 63.4909C165.519 63.4909 93.1393 59.2412 104.94 31.811" stroke="#8C1C28" stroke-width="1.06667" stroke-linecap="round" stroke-linejoin="round"/>
<path d="M105.308 52.4503C105.251 52.4474 60.6242 27.2079 87.6861 17.7228C106.96 10.9672 103.633 33.1576 90.6531 22.2303" stroke="#8C1C28" stroke-width="1.06667" stroke-linecap="round" stroke-linejoin="round"/>
<path d="M98.134 48.2584C98.134 48.2584 69.0762 29.4807 68.9572 20.4542C68.8882 15.2202 63.7694 27.3291 66.732 27.1472C63.4697 25.1338 61.7199 22.0063 54.3079 23.0495C54.3079 23.0495 68.5314 31.7598 65.434 26.638C60.1302 17.8678 41.3844 40.3845 64.2841 34.8553" stroke="#8C1C28" stroke-width="1.06667" stroke-linecap="round" stroke-linejoin="round"/>
<path d="M59.6855 30.0156C58.9438 30.0156 53.7516 32.3377 58.9438 35.7525" stroke="#8C1C28" stroke-width="1.06667" stroke-linecap="round" stroke-linejoin="round"/>
<path fill-rule="evenodd" clip-rule="evenodd" d="M166.305 66.0019C166.305 66.0019 141.917 69.2858 128.018 65.2292C114.119 61.1727 84.2232 42.242 76.0937 47.4576C67.9641 52.6732 80.814 42.0488 88.1568 43.9805C101.85 47.5827 123.298 63.8771 123.298 63.8771C137.633 67.769 151.969 65.8482 166.305 66.0019Z" fill="#8C1C28" stroke="#8C1C28" stroke-width="1.06667"/>
<path d="M59.31 85.8986C59.31 85.8986 42.7887 84.7396 59.5723 77.5923" stroke="#8C1C28" stroke-width="1.06667" stroke-linecap="round" stroke-linejoin="round"/>
<path fill-rule="evenodd" clip-rule="evenodd" d="M79.2563 34.5604C79.2563 34.5604 67.7176 27.4131 62.2105 30.1175C56.7034 32.8218 56.7034 31.856 56.7034 31.856C54.0714 31.0805 63.6084 23.6139 70.6023 26.4472C73.545 27.6394 79.2563 34.5604 79.2563 34.5604Z" fill="#8C1C28" stroke="#8C1C28" stroke-width="1.06667"/>
</svg>
