<svg width="65" height="64" viewBox="0 0 65 64" fill="none" xmlns="http://www.w3.org/2000/svg">
<g clip-path="url(#clip0_406_84)">
<path d="M61.462 63.5201C59.1183 60.4225 57.4783 56.8154 54.8884 53.8774C51.8522 49.7112 51.3271 43.8968 53.7282 39.3165C52.6261 34.995 47.4562 36.3634 44.7281 33.7497C41.3208 31.5772 39.6494 27.3108 40.3968 23.3836C38.9571 22.9581 35.4672 24.1504 33.5801 22.7882C30.1759 21.076 28.1286 17.4149 27.6279 13.7271C25.7354 10.5504 22.4505 12.4862 19.7676 13.2089C14.5741 13.7317 10.2836 10.1202 6.27761 7.34807C4.67437 5.31951 0.924931 5.06887 0 3.17681C2.2164 0.740052 6.10485 1.61549 9.01519 0.553052C14.1013 -0.621288 19.5276 0.094224 24.1479 2.5121C26.9506 1.3385 30.6676 -0.755998 34.144 0.822676C36.0753 2.23068 37.3896 -0.279909 39.3253 0.23626C44.9917 0.347372 50.6789 0.106013 56.3279 0.559568C60.0444 1.38772 55.0844 6.54292 57.2457 7.22213C59.7062 6.07235 64.4673 4.15639 63.3691 8.98457C63.3243 12.0609 62.9554 15.1854 63.8445 18.1507C64.1654 21.6721 63.3003 25.1901 62.9964 28.6375C64.4902 32.154 65.2387 36.5504 62.8408 39.8529C64.5008 42.5438 65.334 45.6753 64.875 48.8529C64.397 53.3459 64.2203 57.8681 63.7698 62.3616C63.7091 63.4583 62.3722 64.0941 61.462 63.5201ZM62.6888 62.2491C63.0137 58.2047 63.1452 54.1403 63.8184 50.1284C64.3631 46.8934 64.2794 43.1352 61.7314 40.7204C58.7439 41.2468 58.5974 44.4237 60.0384 46.667C60.864 50.6598 56.1146 47.8704 57.4459 45.1543C57.8978 40.9158 63.3813 39.2135 63.1985 34.7107C63.624 33.1894 62.3961 27.478 61.2046 31.3082C59.4177 34.4292 57.7562 37.4805 54.9846 39.9027C51.8001 44.3281 53.3642 50.6119 56.7052 54.4991C58.7596 56.8927 60.1676 59.7892 61.8899 62.3543C62.1411 62.4471 62.4972 62.4905 62.6888 62.2491ZM59.2775 47.0516C58.2626 50.35 57.8893 41.8971 59.2775 47.0516ZM57.1299 36.6162C57.4652 33.8052 54.4075 30.797 53.8515 27.7553C52.4015 26.4846 48.2485 25.4653 50.1468 28.7245C51.4525 32.0617 52.5886 35.6246 54.8596 38.4432C55.662 37.8941 56.4859 37.3564 57.1299 36.6162ZM51.6144 34.7512C51.7278 31.0229 47.5966 30.5888 46.2253 27.8949C46.0024 23.8863 51.5532 25.7121 53.632 26.802C56.6139 30.6213 59.1063 23.5082 55.4714 22.7099C51.8392 21.2534 47.3991 19.8984 43.6782 21.7444C40.5884 23.6088 40.9992 27.9467 43.0629 30.4261C45.0963 32.9854 48.2767 34.7676 51.5274 34.9444L51.6144 34.7512ZM58.0993 33.6748C61.4821 31.8029 61.8062 27.4551 62.4761 24.0349C63.2033 18.7163 62.5896 13.3233 62.0756 8.01326C60.7346 6.35468 57.2856 8.78266 55.4983 9.13438C54.7965 11.2824 53.5887 15.2443 57.2153 13.9378C58.7736 16.3809 57.9763 19.6624 58.1345 22.47C58.8279 25.7882 56.2734 28.5639 55.879 31.2574C56.3922 31.9603 56.787 34.4617 58.0993 33.6748ZM49.1061 28.803C49.6546 26.4665 46.5212 26.2075 47.93 28.575C48.1049 28.8488 48.984 29.4669 49.1061 28.803ZM39.7803 22.1896C41.7188 21.0696 44.2293 18.1241 42.9992 15.9686C40.5669 14.9268 39.1105 16.2565 37.8175 17.9279C33.9771 18.1148 32.5776 12.9321 33.7372 9.93011C36.8748 6.96621 30.1119 4.49798 29.4978 8.4863C28.0451 11.5895 28.9544 15.3818 30.4794 18.3075C32.1804 21.5997 36.2072 23.6865 39.7803 22.1896ZM57.1177 18.8809C57.8813 17.0955 55.8381 13.2889 54.9097 16.5233C54.5435 18.1053 54.917 23.1665 57.032 21.1518C57.1414 20.3999 57.1165 19.638 57.1177 18.8809ZM53.5165 19.0279C53.3013 13.5283 54.7737 8.1673 56.3862 2.9695C55.7782 0.0124992 50.6992 1.94835 48.3321 1.30831C44.963 1.43568 41.4985 0.919343 38.1929 1.60578C35.8556 2.7024 39.0599 4.48792 39.9163 5.65663C41.761 5.98871 43.9749 5.47682 45.934 5.7512C48.4316 5.34867 51.1556 6.25018 49.5666 9.20119C49.0123 12.8023 48.4969 16.5512 49.3326 20.1466C51.0064 20.1454 54.4705 22.5162 53.5165 19.0279ZM46.6685 19.7914C48.6485 20.4535 48.4967 16.1477 47.088 16.2996C44.5949 14.9562 42.0746 21.392 45.5498 19.9314L46.1231 19.8564L46.6685 19.7914ZM37.6827 16.8807C38.897 14.8157 33.5403 15.8075 36.8029 17.0864C37.0974 17.2643 37.4837 17.1369 37.6827 16.8807ZM47.9533 14.9602C48.8222 12.7101 49.5288 8.82317 45.806 10.2435C42.0894 10.5274 38.3497 9.96908 34.6485 10.232C32.0628 13.8539 36.7635 15.4195 39.723 15.017C42.4533 15.1082 45.2514 15.4564 47.9533 14.9602ZM20.9855 11.8891C23.0694 11.7024 24.9192 10.1718 22.2505 8.68604C20.7145 7.29692 15.3995 9.17666 16.3577 5.65292C19.4468 4.23554 21.7573 7.56663 23.8545 9.27867C25.3139 10.6843 28.6163 13.0449 28.3653 9.35481C29.1577 6.16253 24.8606 4.58616 22.7364 3.02821C17.5673 0.318978 11.4228 0.955438 5.95359 2.2936C4.54679 2.45124 -0.408369 2.85641 3.20069 3.99507C7.29635 6.41169 10.767 9.88748 15.3001 11.5534C17.0853 12.4726 19.0967 12.4586 20.9855 11.8891ZM41.7645 9.48646C39.7057 6.5362 37.4955 3.05506 33.8999 1.8834C31.2764 1.57337 26.9757 0.868899 25.8213 3.84672C26.8135 4.58994 27.8917 6.80884 29.3597 6.04305C32.8241 4.05264 35.1163 7.6487 37.4667 9.34203C38.86 9.64922 40.3605 9.75023 41.7645 9.48646ZM48.4305 8.82622C49.7631 6.89244 48.0692 6.77332 46.6237 6.94014C45.0582 7.0557 40.0998 6.10991 42.6735 8.56359C43.2734 9.76207 44.6592 9.10799 45.7188 9.22279C46.6044 9.12161 47.6397 9.32147 48.4305 8.82622ZM19.4366 7.08168C18.5269 5.07819 16.1515 7.48456 19.4366 7.08168Z" fill="#273139"/>
</g>
<defs>
<clipPath id="clip0_406_84">
<rect width="65" height="63.7356" fill="white"/>
</clipPath>
</defs>
</svg>
