<svg width="350" height="343" viewBox="0 0 350 343" fill="none" xmlns="http://www.w3.org/2000/svg">
<g clip-path="url(#clip0_404_43)">
<path d="M19.0195 341.468C31.6185 324.816 40.4346 305.426 54.3574 289.631C70.6791 267.235 73.5021 235.979 60.5945 211.356C66.5188 188.125 94.3113 195.48 108.977 181.43C127.294 169.751 136.279 146.816 132.26 125.705C140 123.417 158.761 129.827 168.906 122.503C187.206 113.299 198.212 93.618 200.903 73.7933C211.077 56.7162 228.736 67.1227 243.158 71.0075C271.077 73.8181 294.142 54.4038 315.677 39.5014C324.296 28.5964 344.452 27.249 349.424 17.0777C337.509 3.97833 316.606 8.68447 300.96 2.97307C273.619 -3.33989 244.448 0.506525 219.611 13.5044C204.544 7.19545 184.562 -4.06406 165.874 4.4225C155.492 11.9916 148.426 -1.50472 138.021 1.27008C107.56 1.86739 76.9865 0.569899 46.6188 3.0081C26.6403 7.46006 53.3036 35.1731 41.6853 38.8244C28.4579 32.6434 2.86387 22.3437 8.76714 48.2988C9.00815 64.8364 10.9914 81.6327 6.21168 97.5739C4.48658 116.504 9.13713 135.416 10.7709 153.948C2.74038 172.852 -1.28323 196.486 11.6076 214.239C2.68364 228.705 -1.79545 245.539 0.672134 262.621C3.24152 286.775 4.19156 311.084 6.61343 335.241C6.93956 341.136 14.1264 344.554 19.0195 341.468ZM12.4244 334.636C10.6777 312.894 9.97108 291.045 6.35187 269.478C3.42408 252.087 3.87354 231.884 17.5714 218.903C33.6315 221.733 34.4186 238.811 26.6726 250.87C22.2339 272.334 47.766 257.34 40.6089 242.738C38.1798 219.953 8.70168 210.802 9.68468 186.596C7.39707 178.418 13.998 147.715 20.4032 168.305C30.0092 185.083 38.9408 201.486 53.8402 214.507C70.9591 238.297 62.5511 272.077 44.5908 292.974C33.5471 305.841 25.9777 321.412 16.7191 335.201C15.3687 335.7 13.4543 335.933 12.4244 334.636ZM30.7626 252.938C38.2252 225.228 36.2185 270.669 30.7626 252.938ZM42.3077 196.84C40.5052 181.728 56.9425 165.557 59.9317 149.205C67.7266 142.374 90.0517 136.895 79.8471 154.416C72.8282 172.356 66.7207 191.509 54.5125 206.661C50.1989 203.709 45.7697 200.819 42.3077 196.84ZM71.9574 186.814C71.3481 166.771 93.5566 164.438 100.928 149.956C102.126 128.407 72.2864 138.222 61.1114 144.081C45.0815 164.612 31.6833 126.374 51.2235 122.083C70.7494 114.253 94.6179 106.969 114.621 116.893C131.231 126.915 129.022 150.235 117.928 163.563C106.997 177.321 89.9003 186.902 72.4252 187.853L71.9574 186.814ZM37.0963 181.027C18.9114 170.964 17.1689 147.592 13.5678 129.206C9.65859 100.614 12.9578 71.6227 15.7211 43.0773C22.9298 34.1612 41.4706 47.2134 51.0786 49.1042C54.8515 60.6513 61.3446 81.9494 41.8486 74.9261C33.4716 88.0596 37.7575 105.7 36.9074 120.793C33.1796 138.631 46.9123 153.553 49.0322 168.032C46.2735 171.811 44.151 185.258 37.0963 181.027ZM85.4417 154.838C82.493 142.277 99.3377 140.885 91.7643 153.612C90.8239 155.084 86.0982 158.407 85.4417 154.838ZM135.575 119.286C125.154 113.265 111.658 97.4305 118.271 85.8431C131.346 80.2425 139.176 87.3907 146.127 96.3757C166.771 97.3805 174.295 69.5197 168.061 53.3818C151.194 37.4486 187.55 24.18 190.851 45.6203C198.66 62.3021 193.772 82.6885 185.574 98.4164C176.43 116.115 154.783 127.333 135.575 119.286ZM42.3733 101.499C38.2683 91.9009 49.2519 71.438 54.2428 88.8252C56.2114 97.3297 54.2037 124.537 42.8338 113.707C42.246 109.665 42.3796 105.569 42.3733 101.499ZM61.7325 102.289C62.8893 72.7247 54.9741 43.9054 46.3054 15.9633C49.5744 0.0671926 76.8775 10.4738 89.6024 7.03315C107.714 7.71784 126.338 4.94216 144.108 8.63225C156.673 14.5274 139.448 24.1259 134.844 30.4086C124.927 32.1938 113.026 29.442 102.494 30.917C89.0678 28.7531 74.424 33.5994 82.9663 49.4633C85.9459 68.8218 88.7165 88.9754 84.2238 108.303C75.226 108.297 56.6039 121.042 61.7325 102.289ZM98.5457 106.394C87.9016 109.953 88.7177 86.806 96.2904 87.6225C109.693 80.4007 123.242 114.998 104.559 107.146L101.477 106.743L98.5457 106.394ZM146.851 90.7463C140.323 79.6457 169.12 84.9771 151.58 91.852C149.997 92.8086 147.921 92.1235 146.851 90.7463ZM91.6388 80.4225C86.9678 68.3265 83.1692 47.4312 103.182 55.0667C123.162 56.5925 143.265 53.5913 163.162 55.0048C177.062 74.4749 151.792 82.8912 135.883 80.7279C121.205 81.218 106.163 83.0899 91.6388 80.4225ZM236.611 63.9128C225.408 62.9094 215.465 54.6813 229.81 46.694C238.068 39.2264 266.64 49.3315 261.489 30.3887C244.883 22.7692 232.462 40.6763 221.188 49.8798C213.343 57.4363 195.59 70.126 196.939 50.2892C192.679 33.1282 215.779 24.6541 227.199 16.2789C254.987 1.71475 288.018 5.1362 317.419 12.3298C324.982 13.1773 351.619 15.3554 332.218 21.4765C310.201 34.4677 291.543 53.1527 267.174 62.1079C257.577 67.0495 246.765 66.9745 236.611 63.9128ZM124.908 50.9969C135.976 35.137 147.858 16.4232 167.186 10.1247C181.289 8.45805 204.409 4.67099 210.615 20.679C205.281 24.6744 199.485 36.6027 191.594 32.4859C172.97 21.786 160.647 41.1175 148.012 50.2205C140.522 51.8718 132.456 52.4148 124.908 50.9969ZM89.0733 47.4475C81.9096 37.0521 91.0155 36.4117 98.7864 37.3085C107.202 37.9297 133.857 32.8453 120.022 46.0357C116.797 52.4785 109.347 48.9623 103.651 49.5794C98.8904 49.0355 93.3249 50.1099 89.0733 47.4475ZM244.937 38.0694C262.597 40.2351 249.828 27.2991 244.937 38.0694Z" fill="#8C1C28"/>
</g>
<defs>
<clipPath id="clip0_404_43">
<rect width="349.424" height="342.627" fill="white"/>
</clipPath>
</defs>
</svg>
