<svg width="350" height="343" viewBox="0 0 350 343" fill="none" xmlns="http://www.w3.org/2000/svg">
<g clip-path="url(#clip0_404_48)">
<path d="M19.0195 1.15887C31.6185 17.8105 40.4346 37.2013 54.3574 52.9956C70.6791 75.3918 73.5021 106.648 60.5945 131.271C66.5188 154.502 94.3113 147.147 108.977 161.197C127.294 172.876 136.279 195.811 132.26 216.922C140 219.21 158.761 212.8 168.906 220.123C187.206 229.328 198.212 249.009 200.903 268.834C211.077 285.911 228.736 275.504 243.158 271.619C271.077 268.809 294.142 288.223 315.677 303.126C324.296 314.031 344.452 315.378 349.424 325.549C337.509 338.649 316.606 333.942 300.96 339.654C273.619 345.967 244.448 342.12 219.611 329.123C204.544 335.432 184.562 346.691 165.874 338.204C155.492 330.635 148.426 344.132 138.021 341.357C107.56 340.76 76.9865 342.057 46.6188 339.619C26.6403 335.167 53.3036 307.454 41.6853 303.803C28.4579 309.984 2.86387 320.283 8.76714 294.328C9.00815 277.791 10.9914 260.994 6.21168 245.053C4.48658 226.123 9.13713 207.211 10.7709 188.679C2.74038 169.775 -1.28323 146.141 11.6076 128.387C2.68364 113.922 -1.79545 97.0879 0.672134 80.0057C3.24152 55.8524 4.19156 31.5426 6.61343 7.38625C6.93956 1.49067 14.1264 -1.92716 19.0195 1.15887ZM12.4244 7.9913C10.6777 29.7332 9.97108 51.582 6.35187 73.149C3.42408 90.5399 3.87354 110.743 17.5714 123.724C33.6315 120.894 34.4186 103.816 26.6726 91.7569C22.2339 70.2926 47.766 85.2874 40.6089 99.8887C38.1798 122.674 8.70168 131.825 9.68468 156.031C7.39707 164.209 13.998 194.912 20.4032 174.322C30.0092 157.544 38.9408 141.141 53.8402 128.12C70.9591 104.33 62.5511 70.5499 44.5908 49.6532C33.5471 36.7856 25.9777 21.215 16.7191 7.42551C15.3687 6.92678 13.4543 6.6937 12.4244 7.9913ZM30.7626 89.689C38.2252 117.399 36.2185 71.9576 30.7626 89.689ZM42.3077 145.787C40.5052 160.899 56.9425 177.07 59.9317 193.422C67.7266 200.253 90.0517 205.732 79.8471 188.211C72.8282 170.271 66.7207 151.118 54.5125 135.966C50.1989 138.917 45.7697 141.808 42.3077 145.787ZM71.9574 155.813C71.3481 175.855 93.5566 178.189 100.928 192.671C102.126 214.22 72.2864 204.405 61.1114 198.546C45.0815 178.015 31.6833 216.253 51.2235 220.544C70.7494 228.374 94.6179 235.658 114.621 225.734C131.231 215.712 129.022 192.392 117.928 179.064C106.997 165.306 89.9003 155.725 72.4252 154.774L71.9574 155.813ZM37.0963 161.6C18.9114 171.663 17.1689 195.035 13.5678 213.421C9.65859 242.013 12.9578 271.004 15.7211 299.55C22.9298 308.466 41.4706 295.414 51.0786 293.523C54.8515 281.976 61.3446 260.678 41.8486 267.701C33.4716 254.567 37.7575 236.927 36.9074 221.834C33.1796 203.996 46.9123 189.074 49.0322 174.595C46.2735 170.816 44.151 157.369 37.0963 161.6ZM85.4417 187.789C82.493 200.35 99.3377 201.742 91.7643 189.015C90.8239 187.543 86.0982 184.22 85.4417 187.789ZM135.575 223.341C125.154 229.362 111.658 245.196 118.271 256.784C131.346 262.384 139.176 255.236 146.127 246.251C166.771 245.246 174.295 273.107 168.061 289.245C151.194 305.178 187.55 318.447 190.851 297.007C198.66 280.325 193.772 259.938 185.574 244.211C176.43 226.512 154.783 215.294 135.575 223.341ZM42.3733 241.128C38.2683 250.726 49.2519 271.189 54.2428 253.802C56.2114 245.297 54.2037 218.09 42.8338 228.92C42.246 232.962 42.3796 237.058 42.3733 241.128ZM61.7325 240.338C62.8893 269.902 54.9741 298.722 46.3054 326.664C49.5744 342.56 76.8775 332.153 89.6024 335.594C107.714 334.909 126.338 337.685 144.108 333.995C156.673 328.1 139.448 318.501 134.844 312.218C124.927 310.433 113.026 313.185 102.494 311.71C89.0678 313.874 74.424 309.028 82.9663 293.164C85.9459 273.805 88.7165 253.652 84.2238 234.324C75.226 234.33 56.6039 221.585 61.7325 240.338ZM98.5457 236.233C87.9016 232.674 88.7177 255.821 96.2904 255.004C109.693 262.226 123.242 227.629 104.559 235.481L101.477 235.884L98.5457 236.233ZM146.851 251.881C140.323 262.981 169.12 257.65 151.58 250.775C149.997 249.818 147.921 250.503 146.851 251.881ZM91.6388 262.204C86.9678 274.3 83.1692 295.196 103.182 287.56C123.162 286.034 143.265 289.036 163.162 287.622C177.062 268.152 151.792 259.736 135.883 261.899C121.205 261.409 106.163 259.537 91.6388 262.204ZM236.611 278.714C225.408 279.718 215.465 287.946 229.81 295.933C238.068 303.401 266.64 293.295 261.489 312.238C244.883 319.858 232.462 301.951 221.188 292.747C213.343 285.191 195.59 272.501 196.939 292.338C192.679 309.499 215.779 317.973 227.199 326.348C254.987 340.912 288.018 337.491 317.419 330.297C324.982 329.45 351.619 327.272 332.218 321.15C310.201 308.159 291.543 289.474 267.174 280.519C257.577 275.578 246.765 275.652 236.611 278.714ZM124.908 291.63C135.976 307.49 147.858 326.204 167.186 332.502C181.289 334.169 204.409 337.956 210.615 321.948C205.281 317.953 199.485 306.024 191.594 310.141C172.97 320.841 160.647 301.509 148.012 292.406C140.522 290.755 132.456 290.212 124.908 291.63ZM89.0733 295.179C81.9096 305.575 91.0155 306.215 98.7864 305.318C107.202 304.697 133.857 309.782 120.022 296.591C116.797 290.149 109.347 293.665 103.651 293.048C98.8904 293.591 93.3249 292.517 89.0733 295.179ZM244.937 304.558C262.597 302.392 249.828 315.328 244.937 304.558Z" fill="#8C1C28"/>
</g>
<defs>
<clipPath id="clip0_404_48">
<rect width="349.424" height="342.627" fill="white" transform="matrix(1 0 0 -1 0 342.627)"/>
</clipPath>
</defs>
</svg>
