<svg width="350" height="343" viewBox="0 0 350 343" fill="none" xmlns="http://www.w3.org/2000/svg">
<g clip-path="url(#clip0_404_51)">
<path d="M330.404 1.15887C317.805 17.8105 308.989 37.2013 295.067 52.9956C278.745 75.3918 275.922 106.648 288.829 131.271C282.905 154.502 255.113 147.147 240.447 161.197C222.13 172.876 213.145 195.811 217.163 216.922C209.424 219.21 190.663 212.8 180.518 220.123C162.218 229.328 151.212 249.009 148.521 268.834C138.347 285.911 120.688 275.504 106.266 271.619C78.3466 268.809 55.2823 288.223 33.7469 303.126C25.1283 314.031 4.9722 315.378 0 325.549C11.9148 338.649 32.8182 333.942 48.4634 339.654C75.8049 345.967 104.976 342.12 129.813 329.123C144.88 335.432 164.862 346.691 183.55 338.204C193.932 330.635 200.997 344.132 211.403 341.357C241.864 340.76 272.437 342.057 302.805 339.619C322.784 335.167 296.12 307.454 307.739 303.803C320.966 309.984 346.56 320.283 340.657 294.328C340.416 277.791 338.433 260.994 343.212 245.053C344.937 226.123 340.287 207.211 338.653 188.679C346.684 169.775 350.707 146.141 337.816 128.387C346.74 113.922 351.219 97.0879 348.752 80.0057C346.182 55.8524 345.232 31.5426 342.81 7.38625C342.484 1.49067 335.297 -1.92716 330.404 1.15887ZM337 7.9913C338.746 29.7332 339.453 51.582 343.072 73.149C346 90.5399 345.55 110.743 331.853 123.724C315.792 120.894 315.005 103.816 322.751 91.7569C327.19 70.2926 301.658 85.2874 308.815 99.8887C311.244 122.674 340.722 131.825 339.739 156.031C342.027 164.209 335.426 194.912 329.021 174.322C319.415 157.544 310.483 141.141 295.584 128.12C278.465 104.33 286.873 70.5499 304.833 49.6532C315.877 36.7856 323.446 21.215 332.705 7.42551C334.055 6.92678 335.97 6.6937 337 7.9913ZM318.661 89.689C313.205 71.9576 311.199 117.399 318.661 89.689ZM307.116 145.787C308.919 160.899 292.481 177.07 289.492 193.422C281.697 200.253 259.372 205.732 269.577 188.211C276.596 170.271 282.703 151.118 294.911 135.966C299.225 138.917 303.654 141.808 307.116 145.787ZM277.466 155.813C278.076 175.855 255.867 178.189 248.496 192.671C247.297 214.22 277.137 204.405 288.313 198.546C304.342 178.015 317.741 216.253 298.2 220.544C278.675 228.374 254.806 235.658 234.803 225.734C218.193 215.712 220.402 192.392 231.496 179.064C242.427 165.306 259.524 155.725 276.999 154.774L277.466 155.813ZM312.328 161.6C330.513 171.663 332.255 195.035 335.856 213.421C339.765 242.013 336.466 271.004 333.703 299.55C326.494 308.466 307.953 295.414 298.345 293.523C294.572 281.976 288.079 260.678 307.575 267.701C315.952 254.567 311.666 236.927 312.517 221.834C316.244 203.996 302.512 189.074 300.392 174.595C303.15 170.816 305.273 157.369 312.328 161.6ZM263.982 187.789C266.931 200.35 250.086 201.742 257.66 189.015C258.6 187.543 263.326 184.22 263.982 187.789ZM213.849 223.341C224.27 229.362 237.766 245.196 231.153 256.784C218.078 262.384 210.248 255.236 203.297 246.251C182.653 245.246 175.129 273.107 181.363 289.245C198.23 305.178 161.874 318.447 158.573 297.007C150.764 280.325 155.652 259.938 163.85 244.211C172.994 226.512 194.641 215.294 213.849 223.341ZM307.051 241.128C311.156 250.726 300.172 271.189 295.181 253.802C293.213 245.297 295.22 218.09 306.59 228.92C307.178 232.962 307.044 237.058 307.051 241.128ZM287.691 240.338C286.535 269.902 294.45 298.722 303.119 326.664C299.85 342.56 272.546 332.153 259.821 335.594C241.71 334.909 223.086 337.685 205.316 333.995C192.751 328.1 209.976 318.501 214.58 312.218C224.497 310.433 236.398 313.185 246.93 311.71C260.356 313.874 275 309.028 266.458 293.164C263.478 273.805 260.707 253.652 265.2 234.324C274.198 234.33 292.82 221.585 287.691 240.338ZM250.878 236.233C261.522 232.674 260.706 255.821 253.134 255.004C239.731 262.226 226.182 227.629 244.865 235.481L247.946 235.884L250.878 236.233ZM202.573 251.881C209.101 262.981 180.304 257.65 197.844 250.775C199.427 249.818 201.503 250.503 202.573 251.881ZM257.785 262.204C262.456 274.3 266.255 295.196 246.242 287.56C226.262 286.034 206.158 289.036 186.262 287.622C172.362 268.152 197.632 259.736 213.541 261.899C228.219 261.409 243.261 259.537 257.785 262.204ZM112.813 278.714C124.015 279.718 133.959 287.946 119.613 295.933C111.356 303.401 82.7838 293.295 87.9347 312.238C104.541 319.858 116.962 301.951 128.236 292.747C136.081 285.191 153.834 272.501 152.485 292.338C156.744 309.499 133.645 317.973 122.225 326.348C94.4372 340.912 61.4063 337.491 32.005 330.297C24.4424 329.45 -2.19529 327.272 17.2061 321.15C39.2234 308.159 57.8806 289.474 82.2497 280.519C91.8465 275.578 102.659 275.652 112.813 278.714ZM224.516 291.63C213.448 307.49 201.566 326.204 182.237 332.502C168.134 334.169 145.015 337.956 138.809 321.948C144.143 317.953 149.939 306.024 157.83 310.141C176.454 320.841 188.777 301.509 201.412 292.406C208.902 290.755 216.968 290.212 224.516 291.63ZM260.351 295.179C267.514 305.575 258.408 306.215 250.638 305.318C242.222 304.697 215.567 309.782 229.402 296.591C232.627 290.149 240.077 293.665 245.773 293.048C250.534 293.591 256.099 292.517 260.351 295.179ZM104.487 304.558C99.5961 315.328 86.8264 302.392 104.487 304.558Z" fill="#8C1C28"/>
</g>
<defs>
<clipPath id="clip0_404_51">
<rect width="349.424" height="342.627" fill="white" transform="matrix(1 0 0 -1 0 342.627)"/>
</clipPath>
</defs>
</svg>
