<svg width="65" height="64" viewBox="0 0 65 64" fill="none" xmlns="http://www.w3.org/2000/svg">
<g clip-path="url(#clip0_406_87)">
<path d="M3.53801 63.5201C5.88168 60.4225 7.52166 56.8154 10.1116 53.8774C13.1478 49.7112 13.6729 43.8968 11.2718 39.3165C12.3739 34.995 17.5438 36.3634 20.2719 33.7497C23.6792 31.5772 25.3506 27.3108 24.6032 23.3836C26.0429 22.9581 29.5328 24.1504 31.4199 22.7882C34.8241 21.076 36.8714 17.4149 37.3721 13.7271C39.2646 10.5504 42.5495 12.4862 45.2324 13.2089C50.4259 13.7317 54.7164 10.1202 58.7224 7.34807C60.3256 5.31951 64.0751 5.06887 65 3.17681C62.7836 0.740052 58.8952 1.61549 55.9848 0.553052C50.8987 -0.621288 45.4724 0.094224 40.8521 2.5121C38.0494 1.3385 34.3324 -0.755998 30.856 0.822676C28.9247 2.23068 27.6104 -0.279909 25.6747 0.23626C20.0083 0.347372 14.3211 0.106013 8.67206 0.559568C4.95564 1.38772 9.91556 6.54292 7.75433 7.22213C5.29375 6.07235 0.532738 4.15639 1.63087 8.98457C1.6757 12.0609 2.04462 15.1854 1.1555 18.1507C0.834595 21.6721 1.69969 25.1901 2.0036 28.6375C0.509766 32.154 -0.238707 36.5504 2.15924 39.8529C0.499212 42.5438 -0.333991 45.6753 0.125031 48.8529C0.602989 53.3459 0.779716 57.8681 1.23023 62.3616C1.2909 63.4583 2.62781 64.0941 3.53801 63.5201ZM2.31119 62.2491C1.98627 58.2047 1.85482 54.1403 1.18158 50.1284C0.636949 46.8934 0.720558 43.1352 3.26864 40.7204C6.25614 41.2468 6.40257 44.4237 4.96164 46.667C4.13596 50.6598 8.88545 47.8704 7.55409 45.1543C7.10223 40.9158 1.61869 39.2135 1.80155 34.7107C1.37601 33.1894 2.60391 27.478 3.79541 31.3082C5.58233 34.4292 7.24378 37.4805 10.0154 39.9027C13.1999 44.3281 11.6358 50.6119 8.29481 54.4991C6.24045 56.8927 4.83239 59.7892 3.1101 62.3543C2.8589 62.4471 2.50277 62.4905 2.31119 62.2491ZM5.72248 47.0516C7.11068 41.8971 6.73739 50.35 5.72248 47.0516ZM7.87009 36.6162C7.53479 33.8052 10.5925 30.797 11.1485 27.7553C12.5985 26.4846 16.7515 25.4653 14.8532 28.7245C13.5475 32.0617 12.4114 35.6246 10.1405 38.4432C9.33802 37.8941 8.5141 37.3564 7.87009 36.6162ZM13.3856 34.7512C13.2722 31.0229 17.4034 30.5888 18.7747 27.8949C18.9976 23.8863 13.4468 25.7121 11.368 26.802C8.38608 30.6213 5.89374 23.5082 9.52861 22.7099C13.1608 21.2534 17.6009 19.8984 21.3218 21.7444C24.4116 23.6088 24.0008 27.9467 21.9371 30.4261C19.9037 32.9854 16.7233 34.7676 13.4726 34.9444L13.3856 34.7512ZM6.90067 33.6748C3.51791 31.8029 3.19377 27.4551 2.52388 24.0349C1.7967 18.7163 2.41042 13.3233 2.92444 8.01326C4.26542 6.35468 7.71438 8.78266 9.50166 9.13438C10.2035 11.2824 11.4113 15.2443 7.78469 13.9378C6.2264 16.3809 7.02367 19.6624 6.86553 22.47C6.17209 25.7882 8.72665 28.5639 9.12099 31.2574C8.60783 31.9603 8.21298 34.4617 6.90067 33.6748ZM15.8939 28.803C15.3454 26.4665 18.4788 26.2075 17.07 28.575C16.8951 28.8488 16.016 29.4669 15.8939 28.803ZM25.2197 22.1896C23.2812 21.0696 20.7707 18.1241 22.0008 15.9686C24.4331 14.9268 25.8895 16.2565 27.1825 17.9279C31.0228 18.1148 32.4224 12.9321 31.2628 9.93011C28.1252 6.96621 34.8881 4.49798 35.5022 8.4863C36.9549 11.5895 36.0456 15.3818 34.5206 18.3075C32.8196 21.5997 28.7928 23.6865 25.2197 22.1896ZM7.88229 18.8809C7.11869 17.0955 9.16186 13.2889 10.0903 16.5233C10.4565 18.1053 10.083 23.1665 7.96797 21.1518C7.85861 20.3999 7.88347 19.638 7.88229 18.8809ZM11.4835 19.0279C11.6987 13.5283 10.2263 8.1673 8.61375 2.9695C9.22184 0.0124992 14.3008 1.94835 16.6679 1.30831C20.037 1.43568 23.5015 0.919343 26.8071 1.60578C29.1444 2.7024 25.9401 4.48792 25.0837 5.65663C23.239 5.98871 21.0251 5.47682 19.066 5.7512C16.5684 5.34867 13.8444 6.25018 15.4334 9.20119C15.9877 12.8023 16.5031 16.5512 15.6674 20.1466C13.9936 20.1454 10.5295 22.5162 11.4835 19.0279ZM18.3315 19.7914C16.3515 20.4535 16.5033 16.1477 17.912 16.2996C20.4051 14.9562 22.9254 21.392 19.4502 19.9314L18.8769 19.8564L18.3315 19.7914ZM27.3173 16.8807C26.103 14.8157 31.4597 15.8075 28.1971 17.0864C27.9026 17.2643 27.5163 17.1369 27.3173 16.8807ZM17.0467 14.9602C16.1778 12.7101 15.4712 8.82317 19.194 10.2435C22.9106 10.5274 26.6503 9.96908 30.3515 10.232C32.9372 13.8539 28.2365 15.4195 25.277 15.017C22.5467 15.1082 19.7486 15.4564 17.0467 14.9602ZM44.0145 11.8891C41.9306 11.7024 40.0808 10.1718 42.7495 8.68604C44.2855 7.29692 49.6005 9.17666 48.6424 5.65292C45.5532 4.23554 43.2427 7.56663 41.1455 9.27867C39.6861 10.6843 36.3837 13.0449 36.6347 9.35481C35.8423 6.16253 40.1394 4.58616 42.2636 3.02821C47.4327 0.318978 53.5772 0.955438 59.0464 2.2936C60.4532 2.45124 65.4084 2.85641 61.7993 3.99507C57.7037 6.41169 54.233 9.88748 49.6999 11.5534C47.9147 12.4726 45.9033 12.4586 44.0145 11.8891ZM23.2355 9.48646C25.2943 6.5362 27.5045 3.05506 31.1001 1.8834C33.7235 1.57337 38.0243 0.868899 39.1787 3.84672C38.1865 4.58994 37.1083 6.80884 35.6403 6.04305C32.1759 4.05264 29.8837 7.6487 27.5333 9.34203C26.14 9.64922 24.6395 9.75023 23.2355 9.48646ZM16.5695 8.82622C15.2369 6.89244 16.9308 6.77332 18.3763 6.94014C19.9418 7.0557 24.9002 6.10991 22.3265 8.56359C21.7266 9.76207 20.3408 9.10799 19.2812 9.22279C18.3956 9.12161 17.3604 9.32147 16.5695 8.82622ZM45.5633 7.08168C48.8485 7.48456 46.4731 5.07819 45.5633 7.08168Z" fill="#273139"/>
</g>
<defs>
<clipPath id="clip0_406_87">
<rect width="65" height="63.7356" fill="white"/>
</clipPath>
</defs>
</svg>
