<svg width="350" height="343" viewBox="0 0 350 343" fill="none" xmlns="http://www.w3.org/2000/svg">
<g clip-path="url(#clip0_404_38)">
<path d="M330.404 341.468C317.805 324.816 308.989 305.426 295.067 289.631C278.745 267.235 275.922 235.979 288.829 211.356C282.905 188.125 255.113 195.48 240.447 181.43C222.13 169.751 213.145 146.816 217.163 125.705C209.424 123.417 190.663 129.827 180.518 122.503C162.218 113.299 151.212 93.618 148.521 73.7933C138.347 56.7162 120.688 67.1227 106.266 71.0075C78.3466 73.8181 55.2823 54.4038 33.7469 39.5014C25.1283 28.5964 4.9722 27.249 0 17.0777C11.9148 3.97833 32.8182 8.68447 48.4634 2.97307C75.8049 -3.33989 104.976 0.506525 129.813 13.5044C144.88 7.19545 164.862 -4.06406 183.55 4.4225C193.932 11.9916 200.997 -1.50472 211.403 1.27008C241.864 1.86739 272.437 0.569899 302.805 3.0081C322.784 7.46006 296.12 35.1731 307.739 38.8244C320.966 32.6434 346.56 22.3437 340.657 48.2988C340.416 64.8364 338.433 81.6327 343.212 97.5739C344.937 116.504 340.287 135.416 338.653 153.948C346.684 172.852 350.707 196.486 337.816 214.239C346.74 228.705 351.219 245.539 348.752 262.621C346.182 286.775 345.232 311.084 342.81 335.241C342.484 341.136 335.297 344.554 330.404 341.468ZM337 334.636C338.746 312.894 339.453 291.045 343.072 269.478C346 252.087 345.55 231.884 331.853 218.903C315.792 221.733 315.005 238.811 322.751 250.87C327.19 272.334 301.658 257.34 308.815 242.738C311.244 219.953 340.722 210.802 339.739 186.596C342.027 178.418 335.426 147.715 329.021 168.305C319.415 185.083 310.483 201.486 295.584 214.507C278.465 238.297 286.873 272.077 304.833 292.974C315.877 305.841 323.446 321.412 332.705 335.201C334.055 335.7 335.97 335.933 337 334.636ZM318.661 252.938C313.205 270.669 311.199 225.228 318.661 252.938ZM307.116 196.84C308.919 181.728 292.481 165.557 289.492 149.205C281.697 142.374 259.372 136.895 269.577 154.416C276.596 172.356 282.703 191.509 294.911 206.661C299.225 203.709 303.654 200.819 307.116 196.84ZM277.466 186.814C278.076 166.771 255.867 164.438 248.496 149.956C247.297 128.407 277.137 138.222 288.313 144.081C304.342 164.612 317.741 126.374 298.2 122.083C278.675 114.253 254.806 106.969 234.803 116.893C218.193 126.915 220.402 150.235 231.496 163.563C242.427 177.321 259.524 186.902 276.999 187.853L277.466 186.814ZM312.328 181.027C330.513 170.964 332.255 147.592 335.856 129.206C339.765 100.614 336.466 71.6227 333.703 43.0773C326.494 34.1612 307.953 47.2134 298.345 49.1042C294.572 60.6513 288.079 81.9494 307.575 74.9261C315.952 88.0596 311.666 105.7 312.517 120.793C316.244 138.631 302.512 153.553 300.392 168.032C303.15 171.811 305.273 185.258 312.328 181.027ZM263.982 154.838C266.931 142.277 250.086 140.885 257.66 153.612C258.6 155.084 263.326 158.407 263.982 154.838ZM213.849 119.286C224.27 113.265 237.766 97.4305 231.153 85.8431C218.078 80.2425 210.248 87.3907 203.297 96.3757C182.653 97.3805 175.129 69.5197 181.363 53.3818C198.23 37.4486 161.874 24.18 158.573 45.6203C150.764 62.3021 155.652 82.6885 163.85 98.4164C172.994 116.115 194.641 127.333 213.849 119.286ZM307.051 101.499C311.156 91.9009 300.172 71.438 295.181 88.8252C293.213 97.3297 295.22 124.537 306.59 113.707C307.178 109.665 307.044 105.569 307.051 101.499ZM287.691 102.289C286.535 72.7247 294.45 43.9054 303.119 15.9633C299.85 0.0671926 272.546 10.4738 259.821 7.03315C241.71 7.71784 223.086 4.94216 205.316 8.63225C192.751 14.5274 209.976 24.1259 214.58 30.4086C224.497 32.1938 236.398 29.442 246.93 30.917C260.356 28.7531 275 33.5994 266.458 49.4633C263.478 68.8218 260.707 88.9754 265.2 108.303C274.198 108.297 292.82 121.042 287.691 102.289ZM250.878 106.394C261.522 109.953 260.706 86.806 253.134 87.6225C239.731 80.4007 226.182 114.998 244.865 107.146L247.946 106.743L250.878 106.394ZM202.573 90.7463C209.101 79.6457 180.304 84.9771 197.844 91.852C199.427 92.8086 201.503 92.1235 202.573 90.7463ZM257.785 80.4225C262.456 68.3265 266.255 47.4312 246.242 55.0667C226.262 56.5925 206.158 53.5913 186.262 55.0048C172.362 74.4749 197.632 82.8912 213.541 80.7279C228.219 81.218 243.261 83.0899 257.785 80.4225ZM112.813 63.9128C124.015 62.9094 133.959 54.6813 119.613 46.694C111.356 39.2264 82.7838 49.3315 87.9347 30.3887C104.541 22.7692 116.962 40.6763 128.236 49.8798C136.081 57.4363 153.834 70.126 152.485 50.2892C156.744 33.1282 133.645 24.6541 122.225 16.2789C94.4372 1.71475 61.4063 5.1362 32.005 12.3298C24.4424 13.1773 -2.19529 15.3554 17.2061 21.4765C39.2234 34.4677 57.8806 53.1527 82.2497 62.1079C91.8465 67.0495 102.659 66.9745 112.813 63.9128ZM224.516 50.9969C213.448 35.137 201.566 16.4232 182.237 10.1247C168.134 8.45805 145.015 4.67099 138.809 20.679C144.143 24.6744 149.939 36.6027 157.83 32.4859C176.454 21.786 188.777 41.1175 201.412 50.2205C208.902 51.8718 216.968 52.4148 224.516 50.9969ZM260.351 47.4475C267.514 37.0521 258.408 36.4117 250.638 37.3085C242.222 37.9297 215.567 32.8453 229.402 46.0357C232.627 52.4785 240.077 48.9623 245.773 49.5794C250.534 49.0355 256.099 50.1099 260.351 47.4475ZM104.487 38.0694C99.5961 27.2991 86.8264 40.2351 104.487 38.0694Z" fill="#8C1C28"/>
</g>
<defs>
<clipPath id="clip0_404_38">
<rect width="349.424" height="342.627" fill="white"/>
</clipPath>
</defs>
</svg>
