<svg width="18" height="20" viewBox="0 0 18 20" fill="none" xmlns="http://www.w3.org/2000/svg">
<g clip-path="url(#clip0_411_135)">
<path d="M8.9425 8.91138C9.7327 8.91138 10.3733 8.27078 10.3733 7.48059C10.3733 6.69039 9.7327 6.0498 8.9425 6.0498C8.1523 6.0498 7.51172 6.69039 7.51172 7.48059C7.51172 8.27078 8.1523 8.91138 8.9425 8.91138Z" fill="#273139"/>
<path d="M17.5379 7.67524L16.8118 7.00562V8.41708L17.6305 7.78039C17.602 7.74339 17.571 7.70827 17.5379 7.67524Z" fill="#273139"/>
<path d="M9.42592 0.188598C9.1531 -0.062866 8.73297 -0.062866 8.46015 0.188598L7.53516 1.04206H10.3495L9.42592 0.188598Z" fill="#273139"/>
<path d="M9.16072 14.3682L16.0964 8.9737V2.11526C16.0964 1.91772 15.9363 1.75757 15.7388 1.75757H2.14627C1.94873 1.75757 1.78857 1.91772 1.78857 2.11526V8.97374L8.72216 14.3664C8.84985 14.4698 9.03221 14.4705 9.16072 14.3682ZM4.65014 7.48069C4.65014 5.1101 6.57188 3.18832 8.94251 3.18832C11.3131 3.18832 13.2349 5.1101 13.2349 7.48069V8.19608C13.2373 8.84809 12.7971 9.41864 12.1658 9.58175C11.5346 9.74489 10.8731 9.45902 10.5593 8.88748C9.98819 9.54583 9.07565 9.79339 8.25009 9.51399C7.42456 9.2346 6.84996 8.48369 6.79604 7.6138C6.74212 6.74391 7.21965 5.92784 8.00441 5.54866C8.78913 5.16947 9.72526 5.30251 10.3733 5.88532V5.69218C10.3733 5.49464 10.5334 5.33449 10.731 5.33449C10.9285 5.33449 11.0887 5.49464 11.0887 5.69218V8.19605C11.0887 8.59113 11.409 8.91144 11.8041 8.91144C12.1992 8.91144 12.5195 8.59113 12.5195 8.19605V7.48066C12.5195 5.50515 10.918 3.90371 8.94251 3.90371C6.96701 3.90371 5.36556 5.50518 5.36556 7.48066C5.36556 9.45613 6.96701 11.0576 8.94251 11.0576C9.70811 11.0607 10.4541 10.8156 11.0687 10.3591C11.2273 10.2413 11.4513 10.2745 11.5691 10.4331C11.6868 10.5918 11.6537 10.8158 11.4951 10.9335C10.7573 11.4818 9.86175 11.7763 8.94254 11.7731C6.57297 11.7705 4.6527 9.85023 4.65014 7.48069Z" fill="#273139"/>
<path d="M9.6023 14.9314C9.2148 15.2391 8.66633 15.2391 8.27883 14.9314L7.24688 14.1255L0.729248 19.8766C0.894328 19.957 1.07538 19.9992 1.25899 20H16.6257C16.8093 19.9992 16.9903 19.957 17.1554 19.8766L10.6378 14.1259L9.6023 14.9314Z" fill="#273139"/>
<path d="M11.2124 13.6789L17.6903 19.3945C17.8168 19.1908 17.8842 18.9558 17.8849 18.716V8.48901L11.2124 13.6789Z" fill="#273139"/>
<path d="M1.07316 7.00562L0.346332 7.6756C0.313441 7.70849 0.282718 7.74348 0.254395 7.78041L1.07316 8.41711V7.00562Z" fill="#273139"/>
<path d="M0 8.48901V18.716C0.000427158 18.9562 0.0678195 19.1915 0.194587 19.3956L6.67246 13.68L0 8.48901Z" fill="#273139"/>
</g>
<defs>
<clipPath id="clip0_411_135">
<rect width="18" height="20" fill="white"/>
</clipPath>
</defs>
</svg>
