<svg width="20" height="20" viewBox="0 0 20 20" fill="none" xmlns="http://www.w3.org/2000/svg">
<path d="M18.6376 12.8915C17.6217 12.0846 16.6898 11.6923 15.7885 11.6923C14.4848 11.6923 13.5462 12.5119 12.6963 13.3516C12.5986 13.4482 12.4803 13.4933 12.324 13.4933C11.6078 13.4933 10.348 12.607 8.57945 10.859C6.49884 8.80264 5.71219 7.49475 6.24115 6.97179C7.67509 5.55514 8.12274 4.13499 5.92728 1.4366C5.14133 0.469854 4.37236 0 3.57646 0C2.50309 0 1.68713 0.847938 0.96724 1.59613C0.84278 1.72546 0.72521 1.84763 0.609938 1.96155C-0.203719 2.7656 -0.203301 4.5194 0.611122 6.65321C1.50469 8.99443 3.26899 11.5413 5.5791 13.8246C7.36561 15.5901 9.30943 17.0168 11.2006 17.9748C12.8516 18.8111 14.4531 19.2593 15.71 19.2593C15.7102 19.2593 15.7103 19.2593 15.7105 19.2593C16.4971 19.2593 17.136 19.0897 17.558 18.7448C18.4152 18.0445 20.0106 16.7472 19.9999 15.2062C19.9941 14.3797 19.5359 13.6052 18.6376 12.8915Z" fill="#273139"/>
</svg>
