<svg width="21" height="20" viewBox="0 0 21 20" fill="none" xmlns="http://www.w3.org/2000/svg">
<g clip-path="url(#clip0_411_104)">
<path d="M3.04943 17.2079C3.81277 16.561 4.66052 16.0307 5.56046 15.6209C5.12252 14.0981 4.86539 12.3223 4.83327 10.4019H0C0.104477 13.0656 1.25351 15.4682 3.04943 17.2079Z" fill="#273139"/>
<path d="M4.83327 9.59844C4.86539 7.68199 5.12252 5.90214 5.56046 4.37948C4.66052 3.96967 3.81679 3.43937 3.04943 2.79248C1.25351 4.53216 0.104477 6.93472 0 9.59844H4.83327Z" fill="#273139"/>
<path d="M7.74195 19.7788C6.96253 19.0034 6.29959 17.8383 5.80543 16.3999C5.03804 16.7534 4.31889 17.2115 3.65601 17.7579C4.82915 18.7181 6.21926 19.4212 7.74195 19.7788Z" fill="#273139"/>
<path d="M5.8056 3.59989C6.29975 2.16158 6.96269 1.00049 7.74211 0.225098C6.21942 0.578599 4.82931 1.28171 3.66016 2.24596C4.31905 2.78832 5.03821 3.24639 5.8056 3.59989Z" fill="#273139"/>
<path d="M6.56079 3.91722C7.53707 4.27882 8.57365 4.48366 9.63029 4.52791V0C8.39685 0.269154 7.29201 1.75975 6.56079 3.91722Z" fill="#273139"/>
<path d="M5.63672 9.59812H9.63027V5.3394C8.49327 5.29515 7.37634 5.07423 6.3197 4.68848C5.91793 6.13489 5.66884 7.81425 5.63672 9.59812Z" fill="#273139"/>
<path d="M9.63027 14.6606V10.4019H5.63672C5.66884 12.1858 5.91793 13.8652 6.3197 15.3115C7.37634 14.9258 8.49327 14.7048 9.63027 14.6606Z" fill="#273139"/>
<path d="M6.55688 16.0829C7.29212 18.2404 8.39696 19.731 9.6304 20.0002V15.4722C8.57376 15.5165 7.53719 15.7214 6.55688 16.0829Z" fill="#273139"/>
<path d="M10.4341 20.0002C11.6675 19.731 12.7723 18.2404 13.5076 16.0789C12.5273 15.7173 11.4947 15.5165 10.4341 15.4722V20.0002Z" fill="#273139"/>
<path d="M10.4341 0V4.52791C11.4947 4.48366 12.5273 4.28278 13.5076 3.92124C12.7723 1.75975 11.6675 0.269154 10.4341 0Z" fill="#273139"/>
<path d="M10.4341 14.6606C11.5751 14.7048 12.692 14.9258 13.7446 15.3075C14.1504 13.8652 14.3995 12.1858 14.4316 10.4019H10.4341V14.6606Z" fill="#273139"/>
<path d="M10.4341 9.59849H14.4316C14.3995 7.81462 14.1504 6.13526 13.7446 4.69287C12.692 5.0746 11.5751 5.29954 10.4341 5.33976V9.59849Z" fill="#273139"/>
<path d="M12.3262 19.7789C13.8489 19.4213 15.239 18.7182 16.4081 17.7539C15.7492 17.2116 15.0261 16.7535 14.2627 16.396C13.7645 17.8383 13.1016 19.0035 12.3262 19.7789Z" fill="#273139"/>
<path d="M16.4081 2.24596C15.239 1.28171 13.8489 0.578599 12.3262 0.225098C13.1016 1.00049 13.7645 2.16563 14.2627 3.60391C15.0261 3.24639 15.7492 2.79234 16.4081 2.24596Z" fill="#273139"/>
<path d="M15.235 10.4019C15.2029 12.3183 14.9417 14.0981 14.5078 15.6209C15.4078 16.0266 16.2515 16.561 17.0188 17.2079C18.8148 15.4682 19.9598 13.0656 20.0683 10.4019H15.235Z" fill="#273139"/>
<path d="M17.0188 2.79639C16.2515 3.43927 15.4078 3.97359 14.5078 4.37938C14.9417 5.90606 15.2029 7.68188 15.235 9.59833H20.0683C19.9598 6.93462 18.8148 4.53608 17.0188 2.79639Z" fill="#273139"/>
</g>
<defs>
<clipPath id="clip0_411_104">
<rect width="21" height="20" fill="white"/>
</clipPath>
</defs>
</svg>
